<svg xmlns="http://www.w3.org/2000/svg" viewBox="0 0 343.12 158.1"><defs><style>.cls-1,.cls-5,.cls-6{fill:none;}.cls-1{stroke:#f76f26;}.cls-1,.cls-3,.cls-4,.cls-5,.cls-6{stroke-linecap:round;stroke-linejoin:round;stroke-width:4px;}.cls-2{fill:#f76f26;}.cls-3{fill:#fdcd49;}.cls-3,.cls-4,.cls-5{stroke:#000;}.cls-4{fill:#0cc0d4;}.cls-6{stroke:#0cc0d4;}</style></defs><title>beautifulmindlogo</title><g id="Dopamine"><line class="cls-1" x1="70.18" y1="74.71" x2="98.92" y2="91.65"/><line class="cls-1" x1="100.92" y1="128.44" x2="72.18" y2="145.39"/><line class="cls-1" x1="39.63" y1="126.76" x2="39.47" y2="95.07"/><polygon class="cls-1" points="108.98 134.23 69.36 156.1 30.61 132.72 31.49 87.47 71.11 65.61 109.86 88.99 108.98 134.23"/><polyline class="cls-1" points="109.79 89.12 147.56 67.03 185.33 89.12 205.99 77.72"/><line class="cls-1" x1="30.68" y1="132.59" x2="12.87" y2="143.99"/><line class="cls-1" x1="30.68" y1="87.69" x2="12.87" y2="76.29"/><circle class="cls-2" cx="4.5" cy="71.6" r="4.5"/><circle class="cls-2" cx="4.5" cy="148.6" r="4.5"/><line class="cls-1" x1="218.5" y1="71.6" x2="232" y2="63.1"/></g><g id="Bee"><polygon class="cls-3" points="308.57 67.54 289.11 67.54 283.29 82.1 308.57 82.1 308.57 67.54"/><path class="cls-4" d="M317.12,54.14l-12.29-4.92a2.2,2.2,0,0,0-3,2.36l3,21.25H312L318.35,57A2.2,2.2,0,0,0,317.12,54.14Z" transform="translate(-6.5 -5.21)"/><path class="cls-4" d="M290.61,60.31h6.67a1,1,0,0,1,.84.45l6.75,11.85-4.18.22L289.9,62A1,1,0,0,1,290.61,60.31Z" transform="translate(-6.5 -5.21)"/><polyline class="cls-5" points="298.5 68.6 302.5 72.6 296.5 76.6 303.5 81.6"/><line class="cls-6" x1="279.06" y1="40.47" x2="292" y2="33.1"/><line class="cls-6" x1="309" y1="30.1" x2="323.18" y2="30.08"/><line class="cls-6" x1="336.45" y1="34.42" x2="341.12" y2="46.48"/><line class="cls-6" x1="328.54" y1="67.11" x2="338.95" y2="59.44"/></g><g id="Text_Vector" data-name="Text Vector"><path d="M215.38,151.23,212,115.62c0-.34-.07-1.9-.07-2.17-.14.27-.63,1.56-.83,1.83l-19.73,37.86-19.79-37.86a12,12,0,0,1-.83-1.9,8.09,8.09,0,0,1-.07,2.24l-3.35,35.61h-5.22l5.78-52.87,22.51,42a15,15,0,0,1,1,2.51,15.12,15.12,0,0,1,1-2.51l22.44-42,5.78,52.87Z" transform="translate(-6.5 -5.21)"/><path d="M232.93,112a3.47,3.47,0,1,1,0-6.93,3.47,3.47,0,1,1,0,6.93Zm-2.37,39.21V118.54h4.6v32.69Z" transform="translate(-6.5 -5.21)"/><path d="M269.38,151.23v-19.3c0-7-2.37-10.06-8.92-10.06a14.54,14.54,0,0,0-10,4.35v25h-4.6V118.54h4.6V122a17,17,0,0,1,11.29-4.35c7.81,0,12.2,3.74,12.2,12.17v21.4Z" transform="translate(-6.5 -5.21)"/><path d="M309.72,95.5h4.6v52.2a23.91,23.91,0,0,1-14,4.42c-9.33,0-18.25-5.37-18.25-16.72,0-10.74,7.1-17.74,17.21-17.74a16.54,16.54,0,0,1,10.45,3.53Zm0,30.79c-1.74-2.72-6.06-4.69-10.38-4.69-7.53,0-12.48,5.17-12.48,13.8,0,8.43,6.28,12.84,13.45,12.84a16.86,16.86,0,0,0,9.41-2.78Z" transform="translate(-6.5 -5.21)"/><path d="M323.52,144.23a12.32,12.32,0,0,0,9.33,4.22c4,0,7.11-2,7.11-6.32,0-7.27-16.17-6.66-16.17-15.77,0-4.83,4-8.77,10.39-8.77A14.44,14.44,0,0,1,344,121.4l-2,3.26a11.43,11.43,0,0,0-7.59-3.4c-4.25,0-5.86,2.59-5.86,4.76,0,6.39,16.17,5.23,16.17,16,0,6.12-4.95,10.13-11.78,10.13a15.86,15.86,0,0,1-11.77-4.83Z" transform="translate(-6.5 -5.21)"/><path d="M13.54,60.94V9.5H24.15c9.78,0,17.44,2.71,17.44,12.91,0,5.1-4.43,9.58-8.65,11,5.42.68,13.15,5,13.15,13,0,9-6.47,14.47-18.84,14.47Zm9.35-28.61c8.22,0,13.43-3.94,13.43-9.79,0-6.59-4.71-8.63-11.32-8.63H18.6V32.33Zm4.85,24.2c8.79,0,13-4,13-10,0-5.64-5.28-9.78-12.66-9.78H18.6V56.53Z" transform="translate(-6.5 -5.21)"/><path d="M84.48,56.39c-2.25,3-7.39,5.44-14.07,5.44C60.36,61.83,53,55,53,44.77s6.82-17.4,17.22-17.4,15.26,8,15.26,16.31V44.9H57.69C57.69,53,63.17,58,71.4,58c5.83,0,9.35-2.58,10.9-4.28ZM80.68,41.3C80.12,35.86,76.6,31.24,70,31.24c-5.9,0-11.18,3.47-12.09,10.06Z" transform="translate(-6.5 -5.21)"/><path d="M119.84,57.2c-3.16,2.86-8.23,4.63-14.77,4.63-9.84,0-14.41-5.64-14.41-11.83,0-7.34,8.09-10.67,14-10.67,3.59,0,8,1.09,10.62,3.67V38.45c0-4.08-3.24-7.21-9.28-7.21a25,25,0,0,0-9.42,2l-1.76-3.39a26.19,26.19,0,0,1,11.25-2.45c11,0,13.78,5,13.78,12.3Zm-4.57-10.39a14.68,14.68,0,0,0-10.13-3.88c-4.36,0-9.63,2.25-9.63,7.07,0,5.3,4.5,8.09,9.85,8.09,4.42,0,7.73-1.16,9.91-2.79Z" transform="translate(-6.5 -5.21)"/><path d="M153.23,28.25h4.65v29c-3.45,3.06-8,4.56-14.21,4.56-8.37,0-14.27-4.22-14.27-12.58v-21H134v20c0,6.73,4,9.65,9.84,9.65a16,16,0,0,0,9.35-2.58Z" transform="translate(-6.5 -5.21)"/><path d="M170.81,60.94V32.19h-6.26V28.32h6.26V16.63h4.64V28.32h8.23v3.87h-8.23V60.94Z" transform="translate(-6.5 -5.21)"/><path d="M192.67,21.73a3.47,3.47,0,1,1,0-6.93,3.47,3.47,0,1,1,0,6.93Zm-2.39,39.21V28.25h4.64V60.94Z" transform="translate(-6.5 -5.21)"/><path d="M207.93,60.94V32.19h-5.69V28.32h5.69V19.21c0-4.48.63-7.68,2.67-10.33C212.85,6,216.09,5.35,219,5.35a12.67,12.67,0,0,1,6.54,1.77l-2,3.8A10,10,0,0,0,219,9.5c-4.78,0-6.4,3.66-6.4,8.69V28.32H221v3.87h-8.44V60.94Z" transform="translate(-6.5 -5.21)"/><path d="M251.24,28.25h4.64v29c-3.44,3.06-8,4.56-14.2,4.56-8.37,0-14.27-4.22-14.27-12.58v-21h4.64v20c0,6.73,4,9.65,9.84,9.65a16,16,0,0,0,9.35-2.58Z" transform="translate(-6.5 -5.21)"/><path d="M266.71,60.94V5.21h4.64V60.94Z" transform="translate(-6.5 -5.21)"/></g></svg>