<svg xmlns="http://www.w3.org/2000/svg" viewBox="0 0 738.83 158.1"><defs><style>.cls-1,.cls-4,.cls-5,.cls-6{stroke:#000;}.cls-1{stroke-miterlimit:10;stroke-width:0.25px;}.cls-2,.cls-6,.cls-7{fill:none;}.cls-2{stroke:#f76f26;}.cls-2,.cls-4,.cls-5,.cls-6,.cls-7{stroke-linecap:round;stroke-linejoin:round;stroke-width:4px;}.cls-3{fill:#f76f26;}.cls-4{fill:#fdcd49;}.cls-5{fill:#0cc0d4;}.cls-7{stroke:#0cc0d4;}</style></defs><title>Asset 5</title><g id="Layer_2" data-name="Layer 2"><g id="Text_Vector" data-name="Text Vector"><path class="cls-1" d="M410.73,32.51a15,15,0,0,1-10.26,3.69c-9.24,0-16.08-6.77-16.08-14.94s6.61-15,15.8-15a15.12,15.12,0,0,1,10.42,3.88l-2.08,2.55c-1.89-1.83-4.6-3.12-8.65-3.12-6.57,0-11.48,4.9-11.48,11.85,0,6.46,5.5,11.48,12.11,11.48A12.73,12.73,0,0,0,409,30.12Z"/><path class="cls-1" d="M423,36.16c-5.82,0-10.38-4.33-10.38-9.84s4.56-9.88,10.42-9.88a10,10,0,0,1,10.3,9.88A10,10,0,0,1,423,36.16Zm6.68-9.84a6.76,6.76,0,0,0-6.68-7c-4,0-6.76,3-6.76,7.14a6.82,6.82,0,0,0,6.68,7C427,33.38,429.71,30.53,429.71,26.32Z"/><path class="cls-1" d="M462.26,35.63V23.58c0-2.92-1.3-4.1-3.77-4.1a7.69,7.69,0,0,0-5,2.28V35.63H450V23.51c0-3-1.42-4-3.9-4a7.46,7.46,0,0,0-4.91,2.32V35.63h-3.46V16.93h3.46v2a9.71,9.71,0,0,1,6.29-2.51,5.46,5.46,0,0,1,5.07,2.85,11.7,11.7,0,0,1,7-2.85c3.85,0,6.17,2.09,6.17,6.72V35.63Z"/><path class="cls-1" d="M495.67,35.63V23.58c0-2.92-1.3-4.1-3.77-4.1a7.66,7.66,0,0,0-5,2.28V35.63h-3.46V23.51c0-3-1.42-4-3.89-4a7.46,7.46,0,0,0-4.92,2.32V35.63h-3.46V16.93h3.46v2a9.71,9.71,0,0,1,6.29-2.51A5.46,5.46,0,0,1,486,19.29a11.72,11.72,0,0,1,7-2.85c3.85,0,6.17,2.09,6.17,6.72V35.63Z"/><path class="cls-1" d="M517.45,16.93h3.49V33.54c-2.08,1.78-4.75,2.62-8.29,2.62-4.91,0-8.41-2.4-8.41-7.22v-12h3.5V28.18c0,3.76,2.2,5.17,5.15,5.17a7.72,7.72,0,0,0,4.56-1.3Z"/><path class="cls-1" d="M539.62,35.63V25c0-3.65-1-5.51-4.52-5.51a7.53,7.53,0,0,0-5.19,2.35v13.8h-3.46V16.93h3.46v2a9.61,9.61,0,0,1,6.36-2.47c4.37,0,6.8,2.13,6.8,6.88V35.63Z"/><path class="cls-1" d="M548,11.12a2.31,2.31,0,0,1,2.43-2.36,2.26,2.26,0,0,1,2.4,2.36,2.3,2.3,0,0,1-2.4,2.32A2.33,2.33,0,0,1,548,11.12Zm.67,24.51V16.93h3.49v18.7Z"/><path class="cls-1" d="M559.47,35.63V19.74h-3.58V17h3.58v-6.5h3.46V17h4.75v2.77h-4.75V35.63Z"/><path class="cls-1" d="M569.76,45.43l6.49-11.7-8-16.8h3.85l6,13.19,6.56-13.19h3.89l-15,28.5Z"/><path class="cls-1" d="M630.06,35.63l-1.89-17.1c0-.34,0-1.14,0-1.45-.07.23-.43.84-.66,1.3L617.09,36.73,606.67,18.41a12.65,12.65,0,0,1-.66-1.36,6.45,6.45,0,0,1,0,1.48l-1.8,17.1h-4l3.53-29.56,12.86,22.26a4.31,4.31,0,0,1,.51,1.22,9.39,9.39,0,0,1,.51-1.22L630.45,6.1,634,35.63Z"/><path class="cls-1" d="M655.69,33.31c-1.1,1.4-4.17,2.85-8.14,2.85-5.89,0-10.14-3.88-10.14-9.77a9.52,9.52,0,0,1,10-9.95c6,0,8.92,4.6,8.92,9.54v1H640.91A6.72,6.72,0,0,0,641,28.1c.71,3.76,3.81,5.28,7.27,5.28a8.56,8.56,0,0,0,6.17-2.31Zm-2.91-9.12c-.51-2.85-2.12-5-5.5-5a6,6,0,0,0-6.25,5Z"/><path class="cls-1" d="M673.73,35.63V25c0-3.65-1-5.51-4.52-5.51A7.55,7.55,0,0,0,664,21.83v13.8h-3.46V16.93H664v2a9.64,9.64,0,0,1,6.37-2.47c4.36,0,6.8,2.13,6.8,6.88V35.63Z"/><path class="cls-1" d="M684,35.63V19.74h-3.58V17H684v-6.5h3.46V17h4.76v2.77h-4.76V35.63Z"/><path class="cls-1" d="M710.52,33.65c-1.69,1.41-4.56,2.51-8.53,2.51-5.77,0-8.41-3.23-8.41-6.77,0-4.25,4.48-6,8-6a8.87,8.87,0,0,1,5.62,1.83V22.86c0-2.05-1.61-3.57-4.79-3.57a14.47,14.47,0,0,0-5.39,1.1l-1.14-2.51a16.62,16.62,0,0,1,6.72-1.44c6.33,0,7.94,2.89,7.94,7.22Zm-3.34-5.55A8.05,8.05,0,0,0,702,26.2c-3.26,0-4.87,1.64-4.87,3.46s1.73,3.65,5.07,3.65A9,9,0,0,0,707.18,32Z"/><path class="cls-1" d="M715.87,35.63V4.47h3.46V35.63Z"/><path class="cls-1" d="M405.38,87.23v-13H390v13h-3.77V58.46H390V70.93h15.37V58.46h3.77V87.23Z"/><path class="cls-1" d="M432.15,84.91c-1.1,1.4-4.17,2.85-8.14,2.85-5.89,0-10.14-3.88-10.14-9.77A9.52,9.52,0,0,1,423.82,68c6.05,0,8.92,4.6,8.92,9.54v1H417.37a6.72,6.72,0,0,0,.12,1.14c.71,3.76,3.81,5.28,7.27,5.28a8.56,8.56,0,0,0,6.17-2.31Zm-2.91-9.12c-.51-2.85-2.12-5-5.5-5a6,6,0,0,0-6.25,5Z"/><path class="cls-1" d="M452.31,85.25c-1.69,1.41-4.56,2.51-8.53,2.51-5.77,0-8.41-3.23-8.41-6.76,0-4.26,4.48-6,8-6A8.87,8.87,0,0,1,449,76.78V74.46c0-2-1.61-3.57-4.79-3.57a14.47,14.47,0,0,0-5.39,1.1l-1.14-2.51A16.66,16.66,0,0,1,444.37,68c6.33,0,7.94,2.89,7.94,7.22ZM449,79.7a8.05,8.05,0,0,0-5.15-1.9c-3.26,0-4.87,1.64-4.87,3.46s1.73,3.65,5.07,3.65a9,9,0,0,0,5-1.29Z"/><path class="cls-1" d="M457.66,87.23V56.07h3.46V87.23Z"/><path class="cls-1" d="M468.39,87.23V71.34h-3.58V68.57h3.58v-6.5h3.46v6.5h4.76v2.77h-4.76V87.23Z"/><path class="cls-1" d="M493.07,87.23V76.59c0-3.65-1-5.51-4.51-5.51a7.53,7.53,0,0,0-5.19,2.35v13.8h-3.46V56.07h3.46V70.51A9.61,9.61,0,0,1,489.73,68c4.37,0,6.8,2.09,6.8,6.88V87.23Z"/><path class="cls-1" d="M526.72,85.25c-1.69,1.41-4.56,2.51-8.53,2.51-5.78,0-8.41-3.23-8.41-6.76,0-4.26,4.48-6,8-6a8.87,8.87,0,0,1,5.62,1.83V74.46c0-2-1.61-3.57-4.79-3.57A14.47,14.47,0,0,0,513.2,72l-1.14-2.51A16.58,16.58,0,0,1,518.78,68c6.33,0,7.94,2.89,7.94,7.22Zm-3.34-5.55a8.05,8.05,0,0,0-5.15-1.9c-3.26,0-4.87,1.64-4.87,3.46s1.73,3.65,5.07,3.65a9,9,0,0,0,5-1.29Z"/><path class="cls-1" d="M545.08,87.23V76.59c0-3.65-1-5.51-4.52-5.51a7.55,7.55,0,0,0-5.19,2.35v13.8h-3.46V68.53h3.46v2A9.62,9.62,0,0,1,541.74,68c4.36,0,6.8,2.13,6.8,6.88V87.23Z"/><path class="cls-1" d="M568.19,56.07h3.46V85.33a14.88,14.88,0,0,1-8.22,2.43c-5.42,0-10.61-3.19-10.61-9.61,0-6.05,4.13-10.11,10-10.11a8.79,8.79,0,0,1,5.38,1.71Zm0,17.06a6.79,6.79,0,0,0-5.27-2.2c-3.89,0-6.44,2.77-6.44,7.22a6.61,6.61,0,0,0,6.95,6.8,9,9,0,0,0,4.76-1.3Z"/><path class="cls-1" d="M604.08,66.82l-9.4,21.62-11-30h4.13l7.11,19.72a4.76,4.76,0,0,1,.24,1.41,4.42,4.42,0,0,1,.27-1.41L604,57.7l8.88,20.48a4.45,4.45,0,0,1,.28,1.41,4.88,4.88,0,0,1,.23-1.41l6.92-19.72h4l-10.77,30Z"/><path class="cls-1" d="M642.52,84.91c-1.1,1.4-4.17,2.85-8.14,2.85-5.89,0-10.14-3.88-10.14-9.77a9.52,9.52,0,0,1,10-9.95c6,0,8.92,4.6,8.92,9.54v1H627.74a6.72,6.72,0,0,0,.12,1.14c.71,3.76,3.81,5.28,7.27,5.28a8.56,8.56,0,0,0,6.17-2.31Zm-2.91-9.12c-.51-2.85-2.12-5-5.5-5a6,6,0,0,0-6.25,5Z"/><path class="cls-1" d="M647.55,87.23V56.07H651V87.23Z"/><path class="cls-1" d="M656.91,87.23V56.07h3.46V87.23Z"/><path class="cls-1" d="M679.27,87.23V76.59c0-3.65-1-5.51-4.52-5.51a7.55,7.55,0,0,0-5.19,2.35v13.8H666.1V68.53h3.46v2A9.67,9.67,0,0,1,675.93,68c4.36,0,6.8,2.13,6.8,6.88V87.23Z"/><path class="cls-1" d="M705.29,84.91c-1.1,1.4-4.16,2.85-8.13,2.85-5.9,0-10.14-3.88-10.14-9.77A9.52,9.52,0,0,1,697,68c6,0,8.92,4.6,8.92,9.54v1H690.51a6.72,6.72,0,0,0,.12,1.14c.71,3.76,3.81,5.28,7.27,5.28a8.59,8.59,0,0,0,6.18-2.31Zm-2.9-9.12c-.52-2.85-2.13-5-5.51-5a6,6,0,0,0-6.25,5Z"/><path class="cls-1" d="M709.81,82.78a7.69,7.69,0,0,0,5.35,2.36c1.89,0,3.54-.92,3.54-3.08,0-3.46-8.93-3.76-8.93-8.85,0-2.82,2.44-5.21,6.21-5.21a8.92,8.92,0,0,1,6,2.17l-1.38,2.35a6.64,6.64,0,0,0-4.2-1.9c-2,0-3,1.18-3,2.36,0,3.61,8.88,3.23,8.88,9,0,3.54-2.87,5.78-6.95,5.78a10.56,10.56,0,0,1-7-2.59Z"/><path class="cls-1" d="M726.24,82.78a7.69,7.69,0,0,0,5.35,2.36c1.89,0,3.54-.92,3.54-3.08,0-3.46-8.92-3.76-8.92-8.85,0-2.82,2.43-5.21,6.21-5.21a8.91,8.91,0,0,1,6,2.17l-1.38,2.35a6.64,6.64,0,0,0-4.2-1.9c-2.05,0-3,1.18-3,2.36,0,3.61,8.88,3.23,8.88,9,0,3.54-2.86,5.78-7,5.78a10.56,10.56,0,0,1-7-2.59Z"/><path class="cls-1" d="M519.69,140.67a15,15,0,0,1-10.26,3.68c-9.24,0-16.08-6.76-16.08-14.93s6.6-15,15.8-15a15.08,15.08,0,0,1,10.42,3.88l-2.09,2.54c-1.88-1.82-4.59-3.11-8.64-3.11-6.57,0-11.48,4.9-11.48,11.85,0,6.46,5.5,11.48,12.11,11.48a12.7,12.7,0,0,0,8.49-2.82Z"/><path class="cls-1" d="M539.93,141.47c-1.1,1.4-4.17,2.85-8.14,2.85-5.89,0-10.14-3.88-10.14-9.77a9.52,9.52,0,0,1,10-10c6,0,8.92,4.59,8.92,9.53v1H525.15a6.72,6.72,0,0,0,.12,1.14c.71,3.76,3.81,5.28,7.27,5.28a8.51,8.51,0,0,0,6.17-2.32ZM537,132.35c-.51-2.85-2.12-5-5.5-5a6,6,0,0,0-6.25,5Z"/><path class="cls-1" d="M558,143.78V133.15c0-3.65-1-5.51-4.52-5.51a7.55,7.55,0,0,0-5.19,2.35v13.79H544.8V125.09h3.46v2a9.59,9.59,0,0,1,6.37-2.47c4.36,0,6.8,2.12,6.8,6.87v12.31Z"/><path class="cls-1" d="M568.27,143.78V127.9h-3.58v-2.77h3.58v-6.5h3.46v6.5h4.76v2.77h-4.76v15.88Z"/><path class="cls-1" d="M596.49,141.47c-1.1,1.4-4.16,2.85-8.13,2.85-5.9,0-10.14-3.88-10.14-9.77a9.52,9.52,0,0,1,9.94-10c6.05,0,8.92,4.59,8.92,9.53v1H581.71a6.72,6.72,0,0,0,.12,1.14c.71,3.76,3.81,5.28,7.27,5.28a8.49,8.49,0,0,0,6.17-2.32Zm-2.91-9.12c-.51-2.85-2.12-5-5.5-5a6,6,0,0,0-6.25,5Z"/><path class="cls-1" d="M601.37,143.78V125.09h3.46v2.81c.27-.91,1.92-3.27,4.16-3.27a6.31,6.31,0,0,1,3.3.88l-1.37,3.15a4.21,4.21,0,0,0-2.4-.83c-2.24,0-3.58,2.47-3.69,4.1v11.85Z"/></g><g id="Layer_9" data-name="Layer 9"><g id="logo"><g id="Color"><line class="cls-2" x1="70.18" y1="74.71" x2="98.92" y2="91.65"/><line class="cls-2" x1="100.92" y1="128.44" x2="72.18" y2="145.39"/><line class="cls-2" x1="39.63" y1="126.76" x2="39.47" y2="95.07"/><polygon class="cls-2" points="108.98 134.23 69.36 156.1 30.61 132.72 31.49 87.47 71.11 65.61 109.86 88.99 108.98 134.23"/><polyline class="cls-2" points="109.79 89.12 147.56 67.03 185.33 89.12 205.99 77.72"/><line class="cls-2" x1="30.68" y1="132.59" x2="12.87" y2="143.99"/><line class="cls-2" x1="30.68" y1="87.69" x2="12.87" y2="76.29"/><circle class="cls-3" cx="4.5" cy="71.6" r="4.5"/><circle class="cls-3" cx="4.5" cy="148.6" r="4.5"/><line class="cls-2" x1="218.5" y1="71.6" x2="232" y2="63.1"/></g><g id="Color-2" data-name="Color"><polygon class="cls-4" points="308.57 67.54 289.11 67.54 283.29 82.1 308.57 82.1 308.57 67.54"/><path class="cls-5" d="M310.62,48.92,298.32,44a2.2,2.2,0,0,0-3,2.35l3,21.25h7.15l6.33-15.82A2.22,2.22,0,0,0,310.62,48.92Z"/><path class="cls-5" d="M284.11,55.1h6.67a1,1,0,0,1,.84.45l6.74,11.85-4.17.21-10.8-10.79A1,1,0,0,1,284.11,55.1Z"/><polyline class="cls-6" points="298.5 68.6 302.5 72.6 296.5 76.6 303.5 81.6"/><line class="cls-7" x1="279.06" y1="40.47" x2="292" y2="33.1"/><line class="cls-7" x1="309" y1="30.1" x2="323.18" y2="30.08"/><line class="cls-7" x1="336.45" y1="34.42" x2="341.12" y2="46.48"/><line class="cls-7" x1="328.54" y1="67.11" x2="338.95" y2="59.44"/></g><path d="M208.87,146l-3.41-35.61c0-.34-.07-1.9-.07-2.18a20.12,20.12,0,0,1-.84,1.84l-19.72,37.85L165,110.07a11.25,11.25,0,0,1-.84-1.9,8.09,8.09,0,0,1-.07,2.24L160.79,146h-5.23l5.79-52.87,22.5,42a14.27,14.27,0,0,1,1.05,2.51,14.46,14.46,0,0,1,1-2.51l22.43-42L214.1,146Z"/><path d="M226.43,106.81a3.47,3.47,0,1,1,0-6.94,3.47,3.47,0,1,1,0,6.94ZM224.06,146V113.33h4.6V146Z"/><path d="M262.87,146v-19.3c0-7-2.37-10.06-8.92-10.06A14.51,14.51,0,0,0,244,121v25h-4.6V113.33H244v3.47a17,17,0,0,1,11.29-4.35c7.8,0,12.19,3.74,12.19,12.16V146Z"/><path d="M303.22,90.29h4.6v52.2a23.9,23.9,0,0,1-14,4.41c-9.34,0-18.26-5.36-18.26-16.71,0-10.74,7.11-17.74,17.21-17.74A16.54,16.54,0,0,1,303.22,116Zm0,30.79c-1.74-2.72-6.07-4.69-10.39-4.69-7.52,0-12.47,5.16-12.47,13.8,0,8.42,6.27,12.84,13.45,12.84a16.82,16.82,0,0,0,9.41-2.79Z"/><path d="M317,139a12.32,12.32,0,0,0,9.34,4.21c4,0,7.11-2,7.11-6.32,0-7.27-16.17-6.66-16.17-15.76,0-4.83,4-8.77,10.38-8.77a14.47,14.47,0,0,1,9.83,3.81l-2,3.26a11.41,11.41,0,0,0-7.6-3.4c-4.25,0-5.85,2.58-5.85,4.76,0,6.39,16.17,5.23,16.17,16,0,6.11-4.95,10.12-11.78,10.12a15.87,15.87,0,0,1-11.78-4.82Z"/><path d="M7,55.73V4.28H17.65c9.77,0,17.44,2.72,17.44,12.91,0,5.1-4.43,9.59-8.65,11,5.41.68,13.15,5,13.15,13.05,0,9-6.47,14.48-18.85,14.48Zm9.35-28.61c8.23,0,13.43-3.94,13.43-9.79,0-6.59-4.71-8.63-11.32-8.63h-6.4V27.12Zm4.85,24.19c8.79,0,13-3.94,13-10,0-5.64-5.27-9.79-12.65-9.79h-9.5V51.31Z"/><path d="M78,51.18c-2.25,3-7.38,5.43-14.06,5.43-10.06,0-17.44-6.86-17.44-17.06S53.29,22.16,63.7,22.16,79,30.18,79,38.47v1.22H51.18c0,8.09,5.49,13.05,13.71,13.05,5.84,0,9.36-2.58,10.9-4.28ZM74.18,36.09C73.61,30.65,70.1,26,63.49,26c-5.91,0-11.18,3.47-12.1,10.06Z"/><path d="M113.34,52c-3.17,2.86-8.23,4.62-14.77,4.62-9.84,0-14.41-5.64-14.41-11.82,0-7.34,8.08-10.67,14-10.67,3.58,0,8,1.08,10.62,3.67V33.23c0-4.07-3.24-7.2-9.29-7.2a24.84,24.84,0,0,0-9.42,2L88.3,24.6a26.36,26.36,0,0,1,11.25-2.44c11,0,13.79,5,13.79,12.3Zm-4.57-10.4a14.75,14.75,0,0,0-10.13-3.87C94.28,37.72,89,40,89,44.79c0,5.3,4.5,8.09,9.84,8.09,4.43,0,7.74-1.16,9.92-2.79Z"/><path d="M146.73,23h4.64v29c-3.44,3.06-8,4.55-14.2,4.55-8.37,0-14.28-4.21-14.28-12.57V23h4.65V43c0,6.73,4,9.65,9.84,9.65a16.12,16.12,0,0,0,9.35-2.58Z"/><path d="M164.31,55.73V27h-6.26V23.11h6.26V11.42H169V23.11h8.22V27H169V55.73Z"/><path d="M186.17,16.52a3.47,3.47,0,1,1,0-6.94,3.47,3.47,0,1,1,0,6.94Zm-2.39,39.21V23h4.64V55.73Z"/><path d="M201.43,55.73V27h-5.7V23.11h5.7V14c0-4.49.63-7.68,2.67-10.33C206.35.82,209.58.14,212.47.14A12.75,12.75,0,0,1,219,1.9l-2,3.81a10.1,10.1,0,0,0-4.57-1.43c-4.79,0-6.4,3.67-6.4,8.7V23.11h8.43V27h-8.43V55.73Z"/><path d="M244.74,23h4.64v29c-3.45,3.06-8,4.55-14.21,4.55-8.36,0-14.27-4.21-14.27-12.57V23h4.64V43c0,6.73,4,9.65,9.85,9.65a16.12,16.12,0,0,0,9.35-2.58Z"/><path d="M260.2,55.73V0h4.64V55.73Z"/></g></g></g></svg>