<svg xmlns="http://www.w3.org/2000/svg" viewBox="0 0 769.97 244.19"><defs><style>.cls-1,.cls-4{fill:#f76f26;}.cls-1,.cls-3{stroke:#f76f26;}.cls-1,.cls-3,.cls-5,.cls-6,.cls-7,.cls-8{stroke-linecap:round;stroke-linejoin:round;stroke-width:4px;}.cls-2,.cls-5,.cls-6,.cls-7{stroke:#000;}.cls-2{stroke-miterlimit:10;stroke-width:0.25px;}.cls-3,.cls-7,.cls-8{fill:none;}.cls-5{fill:#fdcd49;}.cls-6{fill:#0cc0d4;}.cls-8{stroke:#0cc0d4;}</style></defs><title>Asset 3</title><g id="Layer_2" data-name="Layer 2"><g id="Text_Vector" data-name="Text Vector"><polygon class="cls-1" points="424.38 220.32 384.76 242.19 346.01 218.81 346.89 173.56 386.51 151.7 425.25 175.08 424.38 220.32"/><g id="Partnering_for_Resilience" data-name="Partnering for Resilience"><path class="cls-2" d="M160.78,215.29V186.53H167c6,0,11.47,2,11.47,8.51,0,5.51-3.61,9.35-11.44,9.35h-2.43v10.9Zm6.14-14.13c4.79,0,7.58-2.36,7.58-6.08,0-3.53-2.75-5.28-6.56-5.28h-3.38v11.36Z"/><path class="cls-2" d="M196.87,213.32c-1.69,1.4-4.56,2.51-8.53,2.51-5.78,0-8.41-3.23-8.41-6.77,0-4.25,4.48-6,8-6a8.91,8.91,0,0,1,5.62,1.83v-2.32c0-2.05-1.62-3.57-4.8-3.57a14.2,14.2,0,0,0-5.38,1.1l-1.14-2.51a16.41,16.41,0,0,1,6.72-1.44c6.33,0,7.94,2.88,7.94,7.22Zm-3.34-5.55a8.08,8.08,0,0,0-5.15-1.9c-3.26,0-4.88,1.63-4.88,3.46s1.73,3.65,5.07,3.65a9,9,0,0,0,5-1.3Z"/><path class="cls-2" d="M202.06,215.29V196.6h3.46v2.81c.27-.91,1.92-3.27,4.16-3.27a6.31,6.31,0,0,1,3.3.88l-1.37,3.15a4.21,4.21,0,0,0-2.4-.83c-2.24,0-3.58,2.47-3.69,4.1v11.85Z"/><path class="cls-2" d="M217.58,215.29V199.41H214v-2.77h3.57v-6.5H221v6.5h4.76v2.77H221v15.88Z"/><path class="cls-2" d="M242.27,215.29V204.65c0-3.64-1-5.5-4.52-5.5a7.55,7.55,0,0,0-5.19,2.35v13.79H229.1V196.6h3.46v2a9.57,9.57,0,0,1,6.37-2.47c4.36,0,6.8,2.12,6.8,6.87v12.31Z"/><path class="cls-2" d="M268.29,213c-1.1,1.4-4.17,2.85-8.14,2.85-5.89,0-10.14-3.88-10.14-9.77a9.52,9.52,0,0,1,9.95-9.95c6.05,0,8.92,4.59,8.92,9.53v1H253.51a6.72,6.72,0,0,0,.12,1.14c.7,3.76,3.81,5.28,7.27,5.28a8.51,8.51,0,0,0,6.17-2.32Zm-2.91-9.12c-.51-2.85-2.12-5-5.5-5a6,6,0,0,0-6.25,5Z"/><path class="cls-2" d="M273.16,215.29V196.6h3.46v2.81c.28-.91,1.93-3.27,4.17-3.27a6.31,6.31,0,0,1,3.3.88l-1.38,3.15a4.17,4.17,0,0,0-2.39-.83c-2.24,0-3.58,2.47-3.7,4.1v11.85Z"/><path class="cls-2" d="M286.64,190.79a2.32,2.32,0,0,1,2.44-2.36,2.26,2.26,0,0,1,2.4,2.36,2.3,2.3,0,0,1-2.4,2.32A2.34,2.34,0,0,1,286.64,190.79Zm.67,24.5V196.6h3.5v18.69Z"/><path class="cls-2" d="M309.72,215.29V204.65c0-3.64-1-5.5-4.52-5.5A7.55,7.55,0,0,0,300,201.5v13.79h-3.46V196.6H300v2a9.57,9.57,0,0,1,6.37-2.47c4.36,0,6.8,2.12,6.8,6.87v12.31Z"/><path class="cls-2" d="M332.67,213.17a8.58,8.58,0,0,1-6,2.66c-4.56,0-9.2-3.65-9.2-9.85,0-6.42,5.11-9.87,10.61-9.87a14.37,14.37,0,0,1,8,2.16v18c0,7.07-4.75,9.16-9.08,9.16a15.42,15.42,0,0,1-8.25-2.24l1.53-2.51a12.82,12.82,0,0,0,6.72,1.94c2.68,0,5.66-1.11,5.66-6Zm0-13.07a9.73,9.73,0,0,0-4.56-1.14c-3.61,0-7,2.16-7,7,0,3.08,1.88,7,6.25,7a6.51,6.51,0,0,0,5.3-2.93Z"/><path class="cls-2" d="M366.4,215.29V199.41h-3.12v-2.77h3.12v-4.9A8.18,8.18,0,0,1,368,186.3a6.74,6.74,0,0,1,5.13-2.05,7.81,7.81,0,0,1,4.18,1.1l-1.37,2.7a5,5,0,0,0-2.73-.83c-2.32,0-3.46,1.74-3.46,4.52v4.9h4.67v2.77h-4.67v15.88Z"/><path class="cls-2" d="M386.2,215.83a9.86,9.86,0,1,1,10-9.84A9.84,9.84,0,0,1,386.2,215.83Zm6.46-9.84c0-4.11-3-7-6.46-7-3.84,0-6.54,3-6.54,7.14a6.72,6.72,0,0,0,6.46,7C390,213.05,392.66,210.2,392.66,206Z"/><path class="cls-2" d="M400.41,215.29V196.6h3.34v2.81c.27-.91,1.86-3.26,4-3.26A6,6,0,0,1,411,197l-1.33,3.15a4,4,0,0,0-2.32-.83c-2.16,0-3.45,2.47-3.57,4.1v11.85Z"/><path class="cls-2" d="M459.59,215.29,448.19,204h-1.1v11.32h-3.65V186.53h5.74c4.93,0,11.32,1.48,11.32,8.51,0,4.64-3.27,8.06-8.28,8.74l12.5,11.51Zm-10.45-14.55c4.94,0,7.56-2.39,7.56-5.66,0-3.61-2.55-5.28-6.8-5.28h-2.81v10.94Z"/><path class="cls-2" d="M482.12,213c-1.06,1.4-4,2.85-7.86,2.85-5.7,0-9.81-3.88-9.81-9.77s3.92-9.95,9.61-9.95c5.86,0,8.63,4.59,8.63,9.53v1H467.83a6.72,6.72,0,0,0,.12,1.14c.68,3.76,3.68,5.28,7,5.28a8.08,8.08,0,0,0,6-2.32Zm-2.81-9.12c-.5-2.85-2.05-5-5.32-5a5.87,5.87,0,0,0-6,5Z"/><path class="cls-2" d="M486.49,210.85a7.31,7.31,0,0,0,5.17,2.35c1.82,0,3.42-.91,3.42-3.07,0-3.46-8.63-3.76-8.63-8.86,0-2.81,2.36-5.2,6-5.2a8.49,8.49,0,0,1,5.81,2.16l-1.33,2.36a6.31,6.31,0,0,0-4.07-1.9c-2,0-2.92,1.18-2.92,2.36,0,3.61,8.59,3.23,8.59,9,0,3.53-2.78,5.78-6.73,5.78a10,10,0,0,1-6.8-2.59Z"/><path class="cls-2" d="M502.22,190.79a2.28,2.28,0,0,1,2.36-2.36,2.23,2.23,0,0,1,2.32,2.36,2.26,2.26,0,0,1-2.32,2.32A2.29,2.29,0,0,1,502.22,190.79Zm.65,24.5V196.6h3.38v18.69Z"/><path class="cls-2" d="M512,215.29V184.14h3.35v31.15Z"/><path class="cls-2" d="M520.35,190.79a2.28,2.28,0,0,1,2.36-2.36,2.22,2.22,0,0,1,2.31,2.36,2.26,2.26,0,0,1-2.31,2.32A2.29,2.29,0,0,1,520.35,190.79Zm.65,24.5V196.6h3.38v18.69Z"/><path class="cls-2" d="M546.45,213c-1.06,1.4-4,2.85-7.86,2.85-5.7,0-9.8-3.88-9.8-9.77s3.91-9.95,9.61-9.95c5.85,0,8.62,4.59,8.62,9.53v1H532.17a6.92,6.92,0,0,0,.11,1.14c.69,3.76,3.69,5.28,7,5.28a8.06,8.06,0,0,0,6-2.32Zm-2.81-9.12c-.49-2.85-2-5-5.32-5a5.87,5.87,0,0,0-6,5Z"/><path class="cls-2" d="M563.89,215.29V204.66c0-3.65-1-5.51-4.36-5.51a7.21,7.21,0,0,0-5,2.35v13.79h-3.34V196.6h3.34v2a9.12,9.12,0,0,1,6.16-2.47c4.21,0,6.57,2.12,6.57,6.87v12.31Z"/><path class="cls-2" d="M588.37,212.82c-1.22,1.56-3.65,3-7.34,3a9.86,9.86,0,0,1,.31-19.72,9.84,9.84,0,0,1,6.42,2.35l-1.45,2.43a7.32,7.32,0,0,0-4.93-2c-3.27,0-6.54,2.43-6.54,7.1,0,4.26,3,7,6.61,7a7.24,7.24,0,0,0,5.66-2.2Z"/><path class="cls-2" d="M608.13,213c-1.07,1.4-4,2.85-7.87,2.85-5.7,0-9.8-3.88-9.8-9.77s3.91-9.95,9.61-9.95,8.63,4.59,8.63,9.53v1H593.84a6.72,6.72,0,0,0,.12,1.14c.68,3.76,3.68,5.28,7,5.28a8.11,8.11,0,0,0,6-2.32Zm-2.82-9.12c-.49-2.85-2-5-5.31-5a5.87,5.87,0,0,0-6,5Z"/></g><path class="cls-2" d="M429,32.51a15,15,0,0,1-10.25,3.69c-9.24,0-16.08-6.77-16.08-14.94s6.6-15,15.8-15a15.12,15.12,0,0,1,10.42,3.88l-2.09,2.55c-1.88-1.83-4.6-3.12-8.64-3.12-6.57,0-11.48,4.9-11.48,11.85,0,6.46,5.5,11.48,12.1,11.48a12.79,12.79,0,0,0,8.5-2.81Z"/><path class="cls-2" d="M441.34,36.16c-5.82,0-10.38-4.33-10.38-9.84s4.56-9.88,10.42-9.88a10,10,0,0,1,10.3,9.88A10,10,0,0,1,441.34,36.16ZM448,26.32a6.77,6.77,0,0,0-6.68-7c-4,0-6.76,3-6.76,7.14a6.82,6.82,0,0,0,6.68,7C445.27,33.38,448,30.53,448,26.32Z"/><path class="cls-2" d="M480.57,35.63V23.58c0-2.92-1.3-4.1-3.78-4.1a7.69,7.69,0,0,0-5,2.28V35.63H468.3V23.51c0-3-1.41-4-3.89-4a7.44,7.44,0,0,0-4.91,2.32V35.63H456V16.93h3.46v2a9.71,9.71,0,0,1,6.29-2.51,5.46,5.46,0,0,1,5.07,2.85,11.69,11.69,0,0,1,7-2.85c3.86,0,6.18,2.09,6.18,6.72V35.63Z"/><path class="cls-2" d="M514,35.63V23.58c0-2.92-1.3-4.1-3.78-4.1a7.69,7.69,0,0,0-5,2.28V35.63h-3.46V23.51c0-3-1.41-4-3.89-4a7.46,7.46,0,0,0-4.91,2.32V35.63h-3.46V16.93h3.46v2a9.71,9.71,0,0,1,6.29-2.51,5.46,5.46,0,0,1,5.07,2.85,11.7,11.7,0,0,1,7-2.85c3.85,0,6.17,2.09,6.17,6.72V35.63Z"/><path class="cls-2" d="M535.75,16.93h3.5V33.54c-2.08,1.78-4.75,2.62-8.29,2.62-4.91,0-8.41-2.4-8.41-7.22v-12h3.5V28.18c0,3.76,2.2,5.17,5.14,5.17a7.69,7.69,0,0,0,4.56-1.3Z"/><path class="cls-2" d="M557.92,35.63V25c0-3.65-1-5.51-4.52-5.51a7.55,7.55,0,0,0-5.19,2.35v13.8h-3.45V16.93h3.45v2a9.67,9.67,0,0,1,6.37-2.47c4.36,0,6.8,2.13,6.8,6.88V35.63Z"/><path class="cls-2" d="M566.34,11.12a2.31,2.31,0,0,1,2.43-2.36,2.26,2.26,0,0,1,2.4,2.36,2.3,2.3,0,0,1-2.4,2.32A2.33,2.33,0,0,1,566.34,11.12ZM567,35.63V16.93h3.5v18.7Z"/><path class="cls-2" d="M577.77,35.63V19.74H574.2V17h3.57v-6.5h3.46V17H586v2.77h-4.76V35.63Z"/><path class="cls-2" d="M588.07,45.43l6.49-11.7-8-16.8h3.85l6,13.19L603,16.93h3.89l-15,28.5Z"/><path class="cls-2" d="M648.37,35.63l-1.89-17.1c0-.34,0-1.14,0-1.45-.08.23-.43.84-.67,1.3L635.4,36.73,625,18.41c-.27-.49-.51-1-.67-1.36a5.88,5.88,0,0,1,0,1.48l-1.81,17.1h-4l3.54-29.56,12.86,22.26a4.62,4.62,0,0,1,.51,1.22,9.39,9.39,0,0,1,.51-1.22L648.76,6.1l3.58,29.53Z"/><path class="cls-2" d="M674,33.31c-1.1,1.4-4.17,2.85-8.14,2.85-5.9,0-10.14-3.88-10.14-9.77a9.52,9.52,0,0,1,9.94-9.95c6.06,0,8.93,4.6,8.93,9.54v1H659.22a6.72,6.72,0,0,0,.12,1.14c.7,3.76,3.81,5.28,7.27,5.28a8.58,8.58,0,0,0,6.17-2.31Zm-2.91-9.12c-.51-2.85-2.12-5-5.5-5a6,6,0,0,0-6.25,5Z"/><path class="cls-2" d="M692,35.63V25c0-3.65-1-5.51-4.52-5.51a7.55,7.55,0,0,0-5.19,2.35v13.8h-3.46V16.93h3.46v2a9.62,9.62,0,0,1,6.37-2.47c4.36,0,6.8,2.13,6.8,6.88V35.63Z"/><path class="cls-2" d="M702.34,35.63V19.74h-3.58V17h3.58v-6.5h3.46V17h4.75v2.77H705.8V35.63Z"/><path class="cls-2" d="M728.83,33.65c-1.69,1.41-4.56,2.51-8.53,2.51-5.78,0-8.41-3.23-8.41-6.77,0-4.25,4.48-6,8-6a8.87,8.87,0,0,1,5.62,1.83V22.86c0-2.05-1.61-3.57-4.8-3.57a14.45,14.45,0,0,0-5.38,1.1l-1.14-2.51a16.58,16.58,0,0,1,6.72-1.44c6.33,0,7.94,2.89,7.94,7.22Zm-3.34-5.55a8.05,8.05,0,0,0-5.15-1.9c-3.26,0-4.87,1.64-4.87,3.46s1.73,3.65,5.07,3.65a9,9,0,0,0,5-1.29Z"/><path class="cls-2" d="M734.18,35.63V4.47h3.46V35.63Z"/><path class="cls-2" d="M423.69,87.23v-13H408.32v13h-3.77V58.46h3.77V70.93h15.37V58.46h3.77V87.23Z"/><path class="cls-2" d="M450.46,84.91c-1.1,1.4-4.17,2.85-8.14,2.85-5.89,0-10.14-3.88-10.14-9.77A9.52,9.52,0,0,1,442.12,68c6.06,0,8.93,4.6,8.93,9.54v1H435.68a6.72,6.72,0,0,0,.12,1.14c.7,3.76,3.81,5.28,7.27,5.28a8.58,8.58,0,0,0,6.17-2.31Zm-2.91-9.12c-.51-2.85-2.12-5-5.5-5a6,6,0,0,0-6.25,5Z"/><path class="cls-2" d="M470.62,85.25c-1.69,1.41-4.56,2.51-8.53,2.51-5.78,0-8.41-3.23-8.41-6.76,0-4.26,4.48-6,8-6a8.87,8.87,0,0,1,5.62,1.83V74.46c0-2-1.61-3.57-4.79-3.57A14.47,14.47,0,0,0,457.1,72L456,69.48A16.58,16.58,0,0,1,462.68,68c6.33,0,7.94,2.89,7.94,7.22Zm-3.34-5.55a8.05,8.05,0,0,0-5.15-1.9c-3.26,0-4.87,1.64-4.87,3.46s1.73,3.65,5.07,3.65a9,9,0,0,0,4.95-1.29Z"/><path class="cls-2" d="M476,87.23V56.07h3.46V87.23Z"/><path class="cls-2" d="M486.7,87.23V71.34h-3.58V68.57h3.58v-6.5h3.46v6.5h4.75v2.77h-4.75V87.23Z"/><path class="cls-2" d="M511.38,87.23V76.59c0-3.65-1-5.51-4.52-5.51a7.55,7.55,0,0,0-5.19,2.35v13.8h-3.45V56.07h3.45V70.51A9.67,9.67,0,0,1,508,68c4.36,0,6.8,2.09,6.8,6.88V87.23Z"/><path class="cls-2" d="M545,85.25c-1.69,1.41-4.56,2.51-8.53,2.51-5.78,0-8.41-3.23-8.41-6.76,0-4.26,4.48-6,8-6a8.87,8.87,0,0,1,5.62,1.83V74.46c0-2-1.61-3.57-4.8-3.57a14.45,14.45,0,0,0-5.38,1.1l-1.14-2.51A16.58,16.58,0,0,1,537.09,68c6.33,0,7.94,2.89,7.94,7.22Zm-3.34-5.55a8.05,8.05,0,0,0-5.15-1.9c-3.26,0-4.87,1.64-4.87,3.46s1.72,3.65,5.07,3.65a9,9,0,0,0,5-1.29Z"/><path class="cls-2" d="M563.39,87.23V76.59c0-3.65-1-5.51-4.52-5.51a7.53,7.53,0,0,0-5.19,2.35v13.8h-3.46V68.53h3.46v2A9.62,9.62,0,0,1,560.05,68c4.36,0,6.8,2.13,6.8,6.88V87.23Z"/><path class="cls-2" d="M586.5,56.07H590V85.33a14.9,14.9,0,0,1-8.22,2.43c-5.42,0-10.61-3.19-10.61-9.61,0-6.05,4.13-10.11,10-10.11a8.82,8.82,0,0,1,5.39,1.71Zm0,17.06a6.81,6.81,0,0,0-5.27-2.2c-3.89,0-6.44,2.77-6.44,7.22a6.61,6.61,0,0,0,7,6.8,9,9,0,0,0,4.76-1.3Z"/><path class="cls-2" d="M622.39,66.82,613,88.44l-11-30h4.12l7.12,19.72a5.13,5.13,0,0,1,.23,1.41,4.7,4.7,0,0,1,.28-1.41l8.61-20.48,8.88,20.48a4.2,4.2,0,0,1,.27,1.41,4.53,4.53,0,0,1,.24-1.41l6.92-19.72h4.05l-10.77,30Z"/><path class="cls-2" d="M660.83,84.91c-1.1,1.4-4.17,2.85-8.14,2.85-5.89,0-10.14-3.88-10.14-9.77A9.52,9.52,0,0,1,652.49,68c6.06,0,8.93,4.6,8.93,9.54v1H646.05a6.72,6.72,0,0,0,.12,1.14c.7,3.76,3.81,5.28,7.27,5.28a8.58,8.58,0,0,0,6.17-2.31Zm-2.91-9.12c-.51-2.85-2.12-5-5.5-5a6,6,0,0,0-6.25,5Z"/><path class="cls-2" d="M665.86,87.23V56.07h3.46V87.23Z"/><path class="cls-2" d="M675.21,87.23V56.07h3.46V87.23Z"/><path class="cls-2" d="M697.58,87.23V76.59c0-3.65-1-5.51-4.52-5.51a7.55,7.55,0,0,0-5.19,2.35v13.8h-3.46V68.53h3.46v2A9.62,9.62,0,0,1,694.24,68c4.36,0,6.8,2.13,6.8,6.88V87.23Z"/><path class="cls-2" d="M723.6,84.91c-1.1,1.4-4.17,2.85-8.13,2.85-5.9,0-10.15-3.88-10.15-9.77A9.52,9.52,0,0,1,715.27,68c6.05,0,8.92,4.6,8.92,9.54v1H708.82a6.72,6.72,0,0,0,.12,1.14c.71,3.76,3.81,5.28,7.27,5.28a8.56,8.56,0,0,0,6.17-2.31Zm-2.91-9.12c-.51-2.85-2.12-5-5.5-5a6,6,0,0,0-6.25,5Z"/><path class="cls-2" d="M728.12,82.78a7.67,7.67,0,0,0,5.35,2.36c1.88,0,3.53-.92,3.53-3.08,0-3.46-8.92-3.76-8.92-8.85,0-2.82,2.44-5.21,6.21-5.21a8.94,8.94,0,0,1,6,2.17l-1.38,2.35a6.65,6.65,0,0,0-4.21-1.9c-2,0-3,1.18-3,2.36,0,3.61,8.88,3.23,8.88,9,0,3.54-2.87,5.78-7,5.78a10.53,10.53,0,0,1-7-2.59Z"/><path class="cls-2" d="M744.55,82.78a7.67,7.67,0,0,0,5.35,2.36c1.88,0,3.53-.92,3.53-3.08,0-3.46-8.92-3.76-8.92-8.85,0-2.82,2.44-5.21,6.21-5.21a8.94,8.94,0,0,1,6,2.17l-1.38,2.35a6.64,6.64,0,0,0-4.2-1.9c-2,0-3,1.18-3,2.36,0,3.61,8.88,3.23,8.88,9,0,3.54-2.87,5.78-7,5.78a10.54,10.54,0,0,1-7-2.59Z"/><path class="cls-2" d="M538,140.67a15,15,0,0,1-10.26,3.68c-9.23,0-16.07-6.76-16.07-14.93s6.6-15,15.8-15a15.08,15.08,0,0,1,10.42,3.88l-2.09,2.54c-1.88-1.82-4.6-3.11-8.65-3.11-6.56,0-11.47,4.9-11.47,11.85,0,6.46,5.5,11.48,12.1,11.48a12.68,12.68,0,0,0,8.49-2.82Z"/><path class="cls-2" d="M558.24,141.47c-1.1,1.4-4.17,2.85-8.14,2.85-5.9,0-10.14-3.88-10.14-9.77a9.52,9.52,0,0,1,9.94-10c6.06,0,8.93,4.59,8.93,9.53v1H543.46a6.72,6.72,0,0,0,.12,1.14c.7,3.76,3.81,5.28,7.27,5.28a8.53,8.53,0,0,0,6.17-2.32Zm-2.91-9.12c-.51-2.85-2.12-5-5.5-5a6,6,0,0,0-6.25,5Z"/><path class="cls-2" d="M576.28,143.78V133.15c0-3.65-1-5.51-4.52-5.51a7.55,7.55,0,0,0-5.19,2.35v13.79h-3.46V125.09h3.46v2a9.57,9.57,0,0,1,6.37-2.47c4.36,0,6.8,2.12,6.8,6.87v12.31Z"/><path class="cls-2" d="M586.58,143.78V127.9H583v-2.77h3.58v-6.5H590v6.5h4.75v2.77H590v15.88Z"/><path class="cls-2" d="M614.8,141.47c-1.1,1.4-4.17,2.85-8.14,2.85-5.89,0-10.14-3.88-10.14-9.77a9.52,9.52,0,0,1,10-10c6,0,8.92,4.59,8.92,9.53v1H600a6.72,6.72,0,0,0,.12,1.14c.71,3.76,3.81,5.28,7.27,5.28a8.51,8.51,0,0,0,6.17-2.32Zm-2.91-9.12c-.51-2.85-2.12-5-5.5-5a6,6,0,0,0-6.25,5Z"/><path class="cls-2" d="M619.67,143.78V125.09h3.46v2.81c.28-.91,1.93-3.27,4.17-3.27a6.31,6.31,0,0,1,3.3.88l-1.37,3.15a4.21,4.21,0,0,0-2.4-.83c-2.24,0-3.58,2.47-3.7,4.1v11.85Z"/></g><g id="Layer_9" data-name="Layer 9"><g id="Color"><line class="cls-3" x1="88.49" y1="74.71" x2="117.23" y2="91.65"/><line class="cls-3" x1="119.23" y1="128.44" x2="90.49" y2="145.39"/><line class="cls-3" x1="57.94" y1="126.76" x2="57.78" y2="95.07"/><polygon class="cls-3" points="127.29 134.23 87.67 156.1 48.92 132.72 49.8 87.47 89.42 65.61 128.16 88.99 127.29 134.23"/><polyline class="cls-3" points="128.09 89.12 165.86 67.03 203.63 89.12 224.3 77.72"/><line class="cls-3" x1="48.99" y1="132.59" x2="31.17" y2="143.99"/><line class="cls-3" x1="48.99" y1="87.69" x2="31.17" y2="76.29"/><circle class="cls-4" cx="22.81" cy="71.6" r="4.5"/><circle class="cls-4" cx="22.81" cy="148.6" r="4.5"/><line class="cls-3" x1="236.81" y1="71.6" x2="250.31" y2="63.1"/></g><g id="Color-2" data-name="Color"><polygon class="cls-5" points="326.88 67.54 307.42 67.54 301.59 82.1 326.88 82.1 326.88 67.54"/><path class="cls-6" d="M328.92,48.92,316.63,44a2.2,2.2,0,0,0-3,2.35l3,21.25h7.15l6.33-15.82A2.22,2.22,0,0,0,328.92,48.92Z"/><path class="cls-6" d="M302.41,55.1h6.68a1,1,0,0,1,.83.45l6.75,11.85-4.17.21L301.7,56.82A1,1,0,0,1,302.41,55.1Z"/><polyline class="cls-7" points="316.81 68.6 320.81 72.6 314.81 76.6 321.81 81.6"/><line class="cls-8" x1="297.37" y1="40.47" x2="310.31" y2="33.1"/><line class="cls-8" x1="327.31" y1="30.1" x2="341.49" y2="30.08"/><line class="cls-8" x1="354.76" y1="34.42" x2="359.43" y2="46.48"/><line class="cls-8" x1="346.85" y1="67.11" x2="357.26" y2="59.44"/></g><path d="M227.18,146l-3.41-35.61c0-.34-.07-1.9-.07-2.18a20.12,20.12,0,0,1-.84,1.84l-19.72,37.85-19.79-37.85a11.25,11.25,0,0,1-.84-1.9,8.09,8.09,0,0,1-.07,2.24L179.1,146h-5.23l5.78-52.87,22.51,42a14.27,14.27,0,0,1,1.05,2.51,14.49,14.49,0,0,1,1-2.51l22.44-42L232.41,146Z"/><path d="M244.73,106.81a3.47,3.47,0,1,1,0-6.94,3.47,3.47,0,1,1,0,6.94ZM242.37,146V113.33H247V146Z"/><path d="M281.18,146v-19.3c0-7-2.37-10.06-8.92-10.06a14.56,14.56,0,0,0-10,4.35v25H257.7V113.33h4.59v3.47a17,17,0,0,1,11.29-4.35c7.81,0,12.2,3.74,12.2,12.16V146Z"/><path d="M321.53,90.29h4.59v52.2a23.87,23.87,0,0,1-14,4.41c-9.34,0-18.26-5.36-18.26-16.71,0-10.74,7.11-17.74,17.21-17.74A16.56,16.56,0,0,1,321.53,116Zm0,30.79c-1.75-2.72-6.07-4.69-10.39-4.69-7.52,0-12.47,5.16-12.47,13.8,0,8.42,6.27,12.84,13.45,12.84a16.84,16.84,0,0,0,9.41-2.79Z"/><path d="M335.32,139a12.32,12.32,0,0,0,9.34,4.21c4,0,7.11-2,7.11-6.32,0-7.27-16.17-6.66-16.17-15.76,0-4.83,4-8.77,10.38-8.77a14.49,14.49,0,0,1,9.83,3.81l-2,3.26a11.44,11.44,0,0,0-7.6-3.4c-4.25,0-5.85,2.58-5.85,4.76,0,6.39,16.16,5.23,16.16,16,0,6.11-4.94,10.12-11.77,10.12A15.87,15.87,0,0,1,333,142.15Z"/><path d="M25.34,55.73V4.28H36c9.77,0,17.43,2.72,17.43,12.91,0,5.1-4.43,9.59-8.64,11,5.41.68,13.14,5,13.14,13.05,0,9-6.47,14.48-18.84,14.48Zm9.35-28.61c8.23,0,13.43-3.94,13.43-9.79,0-6.59-4.71-8.63-11.32-8.63H30.4V27.12Zm4.85,24.19c8.79,0,13-3.94,13-10,0-5.64-5.27-9.79-12.66-9.79H30.4V51.31Z"/><path d="M96.28,51.18c-2.25,3-7.38,5.43-14.06,5.43-10.06,0-17.44-6.86-17.44-17.06S71.6,22.16,82,22.16s15.25,8,15.25,16.31v1.22H69.49c0,8.09,5.49,13.05,13.71,13.05,5.84,0,9.35-2.58,10.9-4.28Zm-3.8-15.09C91.92,30.65,88.4,26,81.8,26c-5.91,0-11.18,3.47-12.1,10.06Z"/><path d="M131.64,52c-3.16,2.86-8.22,4.62-14.76,4.62-9.85,0-14.42-5.64-14.42-11.82,0-7.34,8.09-10.67,14-10.67,3.58,0,8,1.08,10.61,3.67V33.23c0-4.07-3.23-7.2-9.28-7.2a24.79,24.79,0,0,0-9.42,2l-1.76-3.4a26.36,26.36,0,0,1,11.25-2.44c11,0,13.78,5,13.78,12.3Zm-4.57-10.4A14.72,14.72,0,0,0,117,37.72c-4.36,0-9.64,2.24-9.64,7.07,0,5.3,4.5,8.09,9.85,8.09,4.43,0,7.73-1.16,9.91-2.79Z"/><path d="M165,23h4.64v29c-3.45,3.06-8,4.55-14.2,4.55-8.37,0-14.28-4.21-14.28-12.57V23h4.64V43c0,6.73,4,9.65,9.85,9.65A16.12,16.12,0,0,0,165,50.09Z"/><path d="M182.61,55.73V27h-6.26V23.11h6.26V11.42h4.64V23.11h8.23V27h-8.23V55.73Z"/><path d="M204.48,16.52a3.47,3.47,0,1,1,0-6.94,3.47,3.47,0,1,1,0,6.94Zm-2.39,39.21V23h4.64V55.73Z"/><path d="M219.73,55.73V27H214V23.11h5.69V14c0-4.49.64-7.68,2.68-10.33C224.66.82,227.89.14,230.77.14a12.76,12.76,0,0,1,6.54,1.76l-2,3.81a10,10,0,0,0-4.57-1.43c-4.78,0-6.4,3.67-6.4,8.7V23.11h8.44V27h-8.44V55.73Z"/><path d="M263,23h4.65v29c-3.45,3.06-8,4.55-14.21,4.55-8.37,0-14.27-4.21-14.27-12.57V23h4.64V43c0,6.73,4,9.65,9.84,9.65A16.1,16.1,0,0,0,263,50.09Z"/><path d="M278.51,55.73V0h4.64V55.73Z"/><line class="cls-7" x1="2" y1="176.27" x2="330.7" y2="176.27"/><line class="cls-7" x1="436.95" y1="176.27" x2="767.97" y2="176.27"/></g></g></svg>