<svg xmlns="http://www.w3.org/2000/svg" viewBox="0 0 371.32 342.05"><defs><style>.cls-1,.cls-6{fill:none;stroke:#078fda;stroke-linecap:round;stroke-linejoin:round;}.cls-1{stroke-width:10px;}.cls-2{fill:#fdcd49;}.cls-3{fill:#078fda;}.cls-4{fill:#0cc0d4;}.cls-5{fill:#f76f26;}.cls-6{stroke-width:5px;}</style></defs><title>Asset 15</title><g id="Layer_2" data-name="Layer 2"><g id="Layer_9" data-name="Layer 9"><path class="cls-1" d="M5,336.46c9.07,1.08,25,1.5,41.71-6.33C54,326.75,74.36,317.21,78,298.59c.48-2.46,2.55-13.1-4.14-20.61-4.15-4.67-12.51-9.09-18.92-5.57-6,3.26-7.62,11.93-5.81,17.95,3.07,10.22,16.52,13.89,26.77,16.69A100.71,100.71,0,0,0,118.74,309c19.94-3.28,31-19.12,50.38-17.87,29.79,1.93,37.76,14.52,57.78,12.12,23.77-2.84,33.37-23.17,48.8-35.3"/><g id="Bee_1" data-name="Bee 1"><path class="cls-2" d="M207.34,185c13.27-9.36,60-39.64,104.71-36.17a6.64,6.64,0,0,1,6.12,6.63h0a6.6,6.6,0,0,0,4.58,6.31c11.42,3.66,40.69,15,47.24,36.84,0,0,13.46,18.85-45.22,40.49a6.44,6.44,0,0,0-1.92,1.1c-5.86,4.9-44.23,33.78-102.94,3.45a6.68,6.68,0,0,1-3.37-4.3l-11.83-47.31A6.64,6.64,0,0,1,207.34,185Z"/><path class="cls-3" d="M151.71,223.38l39.78-18.72a1.17,1.17,0,0,1,1.61.74l4.67,16.37a1.15,1.15,0,0,1-1.05,1.48l-44.46,2.34A1.16,1.16,0,0,1,151.71,223.38Z"/><path class="cls-4" d="M264.3,140.86,231.82,3.43A2.79,2.79,0,0,1,234.87,0l82.46,10a2.79,2.79,0,0,1,2.26,3.78l-50,127.44A2.79,2.79,0,0,1,264.3,140.86Z"/><path class="cls-4" d="M256.25,146.83,212.48,85a2.87,2.87,0,0,0-1.8-1.15l-52.42-10a2.86,2.86,0,0,0-3.38,3.06l4.93,54.22a2.86,2.86,0,0,0,2.15,2.51l84.28,21.07a2.86,2.86,0,0,0,2-.22l7-3.49A2.86,2.86,0,0,0,256.25,146.83Z"/><path class="cls-3" d="M270.43,148.57s60.15-33.39,29.4-84.39C299.83,64.18,247.23,52.15,270.43,148.57Z"/><path class="cls-3" d="M258.17,155s-35.45-76.36-60-65.45,8.18,51.82,8.18,51.82S222.72,168.63,258.17,155Z"/></g><path class="cls-5" d="M313.89,246.34c-6.44-53.48-45.3-91.91-45.3-91.91l19.33-4.49s34.4,30.88,32.4,91.88Z"/><path class="cls-5" d="M225.7,173.36l12.15-6.52s32.86,35.73,16.17,88.85l-10.28-3.05S253.08,203.9,225.7,173.36Z"/><circle class="cls-3" cx="272.62" cy="266.5" r="4.77"/><path class="cls-1" d="M272.62,264.11s36.2-63.79-3.8-109.79"/><line class="cls-6" x1="273.82" y1="262.92" x2="264.82" y2="257.32"/><path class="cls-1" d="M273.82,267.69s22.42,16.54,23.42,60.54"/><path class="cls-1" d="M270.92,267.69s2.32,8.54-13.81,47.73"/><path class="cls-3" d="M300.59,272.33c-13.52-8.79-26.1-12.15-28.1-7.51s7.36,15.53,20.88,24.32,26.11,12.14,28.1,7.5S314.12,281.11,300.59,272.33Zm11.2,18.41c-1,2.36-8.28.08-16.24-5.09S282,274.39,283,272s8.29-.09,16.24,5.08S312.8,288.38,311.79,290.74Z"/><path class="cls-3" d="M274.5,265.46c-1.12-5.07-13.39-5.37-27.39-.67s-24.45,12.61-23.32,17.68,13.38,5.36,27.39.66S275.62,270.53,274.5,265.46Zm-25.77,12.79c-9,3-16.71,3.38-17.27.84S237.71,272,246.69,269s16.7-3.39,17.27-.84S257.71,275.24,248.73,278.25Z"/></g></g></svg>