<svg xmlns="http://www.w3.org/2000/svg" viewBox="0 0 1929.41 3246.97"><defs><style>.cls-1{opacity:0.25;}.cls-2{fill:none;stroke:#078fda;stroke-miterlimit:10;stroke-width:10px;}.cls-3{fill:#fdcd49;}.cls-4{fill:#078fda;}.cls-5{fill:#0cc0d4;}.cls-6{fill:#f76f26;}</style></defs><title>Asset 12</title><g id="Layer_2" data-name="Layer 2"><g id="Hex_Bees" data-name="Hex + Bees"><g id="opacity_25_" data-name="opacity 25%" class="cls-1"><polygon class="cls-2" points="892.25 274.57 814.5 274.57 775.63 341.9 814.5 409.24 892.25 409.24 931.13 341.9 892.25 274.57"/><polygon class="cls-2" points="1008.24 342.08 930.49 342.08 891.61 409.41 930.49 476.75 1008.24 476.75 1047.11 409.41 1008.24 342.08"/><polygon class="cls-2" points="1124.24 409.07 1046.49 409.07 1007.62 476.4 1046.49 543.74 1124.24 543.74 1163.12 476.4 1124.24 409.07"/><polygon class="cls-2" points="1124.24 274.07 1046.49 274.07 1007.62 341.4 1046.49 408.74 1124.24 408.74 1163.12 341.4 1124.24 274.07"/><polygon class="cls-2" points="892.24 139.07 814.49 139.07 775.62 206.41 814.49 273.74 892.24 273.74 931.12 206.41 892.24 139.07"/><polygon class="cls-2" points="1008.23 206.58 930.48 206.58 891.6 273.92 930.48 341.25 1008.23 341.25 1047.1 273.92 1008.23 206.58"/><polygon class="cls-2" points="1535.25 340.57 1457.5 340.57 1418.63 407.9 1457.5 475.24 1535.25 475.24 1574.13 407.9 1535.25 340.57"/><polygon class="cls-2" points="1651.24 408.08 1573.49 408.08 1534.61 475.41 1573.49 542.75 1651.24 542.75 1690.11 475.41 1651.24 408.08"/><polygon class="cls-2" points="1767.24 475.07 1689.49 475.07 1650.62 542.4 1689.49 609.74 1767.24 609.74 1806.12 542.4 1767.24 475.07"/><polygon class="cls-2" points="1767.24 340.07 1689.49 340.07 1650.62 407.4 1689.49 474.74 1767.24 474.74 1806.12 407.4 1767.24 340.07"/><polygon class="cls-2" points="1535.24 205.07 1457.49 205.07 1418.62 272.4 1457.49 339.74 1535.24 339.74 1574.12 272.4 1535.24 205.07"/><polygon class="cls-2" points="1651.23 272.58 1573.48 272.58 1534.6 339.92 1573.48 407.25 1651.23 407.25 1690.1 339.92 1651.23 272.58"/><polygon class="cls-2" points="1884.74 273.83 1806.99 273.83 1768.11 341.16 1806.99 408.49 1884.74 408.49 1923.61 341.16 1884.74 273.83"/><polygon class="cls-2" points="1884.74 407.83 1806.99 407.83 1768.11 475.16 1806.99 542.49 1884.74 542.49 1923.61 475.16 1884.74 407.83"/><polygon class="cls-2" points="1884.76 542 1807.01 542 1768.13 609.33 1807.01 676.66 1884.76 676.66 1923.63 609.33 1884.76 542"/><polygon class="cls-2" points="1766.76 610 1689.01 610 1650.13 677.33 1689.01 744.66 1766.76 744.66 1805.63 677.33 1766.76 610"/><polygon class="cls-2" points="1884.76 137.98 1807.01 137.98 1768.13 205.32 1807.01 272.65 1884.76 272.65 1923.63 205.32 1884.76 137.98"/><polygon class="cls-2" points="240.94 1017.84 163.19 1017.84 124.31 1085.17 163.19 1152.5 240.94 1152.5 279.81 1085.17 240.94 1017.84"/><polygon class="cls-2" points="356.92 1085.35 279.17 1085.35 240.3 1152.68 279.17 1220.01 356.92 1220.01 395.8 1152.68 356.92 1085.35"/><polygon class="cls-2" points="472.93 1152.34 395.18 1152.34 356.3 1219.67 395.18 1287.01 472.93 1287.01 511.8 1219.67 472.93 1152.34"/><polygon class="cls-2" points="472.93 1017.34 395.18 1017.34 356.3 1084.67 395.18 1152.01 472.93 1152.01 511.8 1084.67 472.93 1017.34"/><polygon class="cls-2" points="123.91 678.85 46.16 678.85 7.29 746.18 46.16 813.51 123.91 813.51 162.79 746.18 123.91 678.85"/><polygon class="cls-2" points="240.93 882.34 163.18 882.34 124.3 949.67 163.18 1017 240.93 1017 279.8 949.67 240.93 882.34"/><polygon class="cls-2" points="356.91 949.85 279.16 949.85 240.29 1017.18 279.16 1084.52 356.91 1084.52 395.79 1017.18 356.91 949.85"/><polygon class="cls-2" points="124.42 949.09 46.67 949.09 7.8 1016.43 46.67 1083.76 124.42 1083.76 163.3 1016.43 124.42 949.09"/><polygon class="cls-2" points="124.42 1083.09 46.67 1083.09 7.8 1150.43 46.67 1217.76 124.42 1217.76 163.3 1150.43 124.42 1083.09"/><polygon class="cls-2" points="124.45 1217.26 46.7 1217.26 7.82 1284.6 46.7 1351.93 124.45 1351.93 163.32 1284.6 124.45 1217.26"/><polygon class="cls-2" points="240.45 1152.26 162.7 1152.26 123.82 1219.6 162.7 1286.93 240.45 1286.93 279.32 1219.6 240.45 1152.26"/><polygon class="cls-2" points="124.45 813.25 46.7 813.25 7.82 880.58 46.7 947.92 124.45 947.92 163.32 880.58 124.45 813.25"/><polygon class="cls-2" points="472.48 881.32 394.73 881.32 355.86 948.65 394.73 1015.99 472.48 1015.99 511.36 948.65 472.48 881.32"/><polygon class="cls-2" points="356.49 814.31 278.74 814.31 239.87 881.65 278.74 948.98 356.49 948.98 395.37 881.65 356.49 814.31"/><polygon class="cls-2" points="588.49 813.31 510.74 813.31 471.87 880.65 510.74 947.98 588.49 947.98 627.37 880.65 588.49 813.31"/><polygon class="cls-2" points="472.48 745.82 394.73 745.82 355.85 813.16 394.73 880.49 472.48 880.49 511.35 813.16 472.48 745.82"/><polygon class="cls-2" points="588.48 1085.07 510.73 1085.07 471.86 1152.4 510.73 1219.73 588.48 1219.73 627.36 1152.4 588.48 1085.07"/><polygon class="cls-2" points="356.48 1220.07 278.73 1220.07 239.86 1287.4 278.73 1354.73 356.48 1354.73 395.36 1287.4 356.48 1220.07"/><polygon class="cls-2" points="125.22 276.99 47.47 276.99 8.59 344.32 47.47 411.65 125.22 411.65 164.09 344.32 125.22 276.99"/><polygon class="cls-2" points="241.2 344.5 163.45 344.5 124.58 411.83 163.45 479.17 241.2 479.17 280.08 411.83 241.2 344.5"/><polygon class="cls-2" points="357.21 411.49 279.46 411.49 240.59 478.82 279.46 546.16 357.21 546.16 396.08 478.82 357.21 411.49"/><polygon class="cls-2" points="357.21 276.49 279.46 276.49 240.59 343.82 279.46 411.16 357.21 411.16 396.08 343.82 357.21 276.49"/><polygon class="cls-2" points="125.19 5 47.45 5 8.57 72.33 47.45 139.67 125.19 139.67 164.07 72.33 125.19 5"/><polygon class="cls-2" points="125.21 141.49 47.46 141.49 8.59 208.82 47.46 276.16 125.21 276.16 164.09 208.82 125.21 141.49"/><polygon class="cls-2" points="241.19 209 163.44 209 124.57 276.33 163.44 343.67 241.19 343.67 280.07 276.33 241.19 209"/><polygon class="cls-2" points="1083.7 867.25 1005.95 867.25 967.08 934.58 1005.95 1001.91 1083.7 1001.91 1122.58 934.58 1083.7 867.25"/><polygon class="cls-2" points="1201.7 934.25 1123.95 934.25 1085.08 1001.58 1123.95 1068.91 1201.7 1068.91 1240.58 1001.58 1201.7 934.25"/><polygon class="cls-2" points="1085.73 1001.41 1007.98 1001.41 969.1 1068.75 1007.98 1136.08 1085.73 1136.08 1124.6 1068.75 1085.73 1001.41"/><polygon class="cls-2" points="124.73 411.41 46.98 411.41 8.1 478.75 46.98 546.08 124.73 546.08 163.6 478.75 124.73 411.41"/><polygon class="cls-2" points="472.73 206.4 394.98 206.4 356.1 273.74 394.98 341.07 472.73 341.07 511.6 273.74 472.73 206.4"/><polygon class="cls-2" points="356.76 140.47 279.01 140.47 240.14 207.81 279.01 275.14 356.76 275.14 395.64 207.81 356.76 140.47"/><polygon class="cls-2" points="472.76 344.22 395.01 344.22 356.14 411.55 395.01 478.89 472.76 478.89 511.64 411.55 472.76 344.22"/><polygon class="cls-2" points="240.76 479.22 163.01 479.22 124.14 546.55 163.01 613.89 240.76 613.89 279.64 546.55 240.76 479.22"/><polygon class="cls-2" points="1884.69 5.04 1806.94 5.04 1768.06 72.38 1806.94 139.71 1884.69 139.71 1923.56 72.38 1884.69 5.04"/><polygon class="cls-2" points="1689.93 1013.84 1767.68 1013.84 1806.56 946.51 1767.68 879.17 1689.93 879.17 1651.06 946.51 1689.93 1013.84"/><polygon class="cls-2" points="1573.94 946.33 1651.69 946.33 1690.57 879 1651.69 811.66 1573.94 811.66 1535.07 879 1573.94 946.33"/><polygon class="cls-2" points="1457.94 879.34 1535.69 879.34 1574.56 812 1535.69 744.67 1457.94 744.67 1419.06 812 1457.94 879.34"/><polygon class="cls-2" points="1457.94 1014.34 1535.69 1014.34 1574.56 947 1535.69 879.67 1457.94 879.67 1419.06 947 1457.94 1014.34"/><polygon class="cls-2" points="1806.95 1352.83 1884.7 1352.83 1923.58 1285.49 1884.7 1218.16 1806.95 1218.16 1768.08 1285.49 1806.95 1352.83"/><polygon class="cls-2" points="1689.94 1149.34 1767.69 1149.34 1806.56 1082.01 1767.69 1014.67 1689.94 1014.67 1651.06 1082.01 1689.94 1149.34"/><polygon class="cls-2" points="1573.95 1081.83 1651.7 1081.83 1690.58 1014.5 1651.7 947.16 1573.95 947.16 1535.08 1014.5 1573.95 1081.83"/><polygon class="cls-2" points="1806.44 1082.58 1884.19 1082.58 1923.07 1015.25 1884.19 947.92 1806.44 947.92 1767.57 1015.25 1806.44 1082.58"/><polygon class="cls-2" points="1806.44 948.58 1884.19 948.58 1923.07 881.25 1884.19 813.92 1806.44 813.92 1767.57 881.25 1806.44 948.58"/><polygon class="cls-2" points="1806.42 814.41 1884.17 814.41 1923.05 747.08 1884.17 679.75 1806.42 679.75 1767.55 747.08 1806.42 814.41"/><polygon class="cls-2" points="1690.42 879.41 1768.17 879.41 1807.05 812.08 1768.17 744.75 1690.42 744.75 1651.55 812.08 1690.42 879.41"/><polygon class="cls-2" points="1806.42 1218.43 1884.17 1218.43 1923.05 1151.09 1884.17 1083.76 1806.42 1083.76 1767.55 1151.09 1806.42 1218.43"/><polygon class="cls-2" points="1458.38 1150.36 1536.13 1150.36 1575.01 1083.02 1536.13 1015.69 1458.38 1015.69 1419.51 1083.02 1458.38 1150.36"/><polygon class="cls-2" points="1574.38 1217.36 1652.13 1217.36 1691 1150.03 1652.13 1082.7 1574.38 1082.7 1535.5 1150.03 1574.38 1217.36"/><polygon class="cls-2" points="1342.38 1218.36 1420.13 1218.36 1459 1151.03 1420.13 1083.7 1342.38 1083.7 1303.5 1151.03 1342.38 1218.36"/><polygon class="cls-2" points="1458.39 1285.85 1536.14 1285.85 1575.02 1218.52 1536.14 1151.19 1458.39 1151.19 1419.52 1218.52 1458.39 1285.85"/><polygon class="cls-2" points="1342.38 946.61 1420.13 946.61 1459.01 879.28 1420.13 811.94 1342.38 811.94 1303.51 879.28 1342.38 946.61"/><polygon class="cls-2" points="1574.38 811.61 1652.13 811.61 1691.01 744.28 1652.13 676.94 1574.38 676.94 1535.51 744.28 1574.38 811.61"/><polygon class="cls-2" points="1805.65 1754.69 1883.4 1754.69 1922.27 1687.36 1883.4 1620.02 1805.65 1620.02 1766.77 1687.36 1805.65 1754.69"/><polygon class="cls-2" points="1689.66 1687.18 1767.41 1687.18 1806.29 1619.85 1767.41 1552.51 1689.66 1552.51 1650.79 1619.85 1689.66 1687.18"/><polygon class="cls-2" points="1573.66 1620.19 1651.41 1620.19 1690.28 1552.85 1651.41 1485.52 1573.66 1485.52 1534.78 1552.85 1573.66 1620.19"/><polygon class="cls-2" points="1573.66 1755.19 1651.41 1755.19 1690.28 1687.85 1651.41 1620.52 1573.66 1620.52 1534.78 1687.85 1573.66 1755.19"/><polygon class="cls-2" points="1805.67 2026.68 1883.42 2026.68 1922.3 1959.34 1883.42 1892.01 1805.67 1892.01 1766.8 1959.34 1805.67 2026.68"/><polygon class="cls-2" points="1805.66 1890.19 1883.41 1890.19 1922.28 1822.85 1883.41 1755.52 1805.66 1755.52 1766.78 1822.85 1805.66 1890.19"/><polygon class="cls-2" points="1689.67 1822.68 1767.42 1822.68 1806.3 1755.34 1767.42 1688.01 1689.67 1688.01 1650.8 1755.34 1689.67 1822.68"/><polygon class="cls-2" points="1806.14 1620.26 1883.89 1620.26 1922.77 1552.93 1883.89 1485.6 1806.14 1485.6 1767.27 1552.93 1806.14 1620.26"/><polygon class="cls-2" points="1458.14 1825.28 1535.89 1825.28 1574.77 1757.94 1535.89 1690.61 1458.14 1690.61 1419.27 1757.94 1458.14 1825.28"/><polygon class="cls-2" points="1574.1 1891.2 1651.85 1891.2 1690.73 1823.87 1651.85 1756.54 1574.1 1756.54 1535.23 1823.87 1574.1 1891.2"/><polygon class="cls-2" points="1690.1 1958.21 1767.85 1958.21 1806.72 1890.88 1767.85 1823.55 1690.1 1823.55 1651.22 1890.88 1690.1 1958.21"/><polygon class="cls-2" points="1458.1 1959.21 1535.85 1959.21 1574.72 1891.88 1535.85 1824.55 1458.1 1824.55 1419.22 1891.88 1458.1 1959.21"/><polygon class="cls-2" points="1574.11 2026.7 1651.86 2026.7 1690.74 1959.37 1651.86 1892.04 1574.11 1892.04 1535.24 1959.37 1574.11 2026.7"/><polygon class="cls-2" points="1458.1 1687.46 1535.85 1687.46 1574.73 1620.12 1535.85 1552.79 1458.1 1552.79 1419.23 1620.12 1458.1 1687.46"/><polygon class="cls-2" points="1690.1 1552.46 1767.85 1552.46 1806.73 1485.12 1767.85 1417.79 1690.1 1417.79 1651.23 1485.12 1690.1 1552.46"/><polygon class="cls-2" points="745.65 2299.39 823.4 2299.39 862.27 2232.06 823.4 2164.73 745.65 2164.73 706.77 2232.06 745.65 2299.39"/><polygon class="cls-2" points="629.66 2231.89 707.41 2231.89 746.29 2164.55 707.41 2097.22 629.66 2097.22 590.79 2164.55 629.66 2231.89"/><polygon class="cls-2" points="513.65 2164.89 591.4 2164.89 630.28 2097.56 591.4 2030.23 513.65 2030.23 474.78 2097.56 513.65 2164.89"/><polygon class="cls-2" points="513.65 2299.89 591.4 2299.89 630.28 2232.56 591.4 2165.23 513.65 2165.23 474.78 2232.56 513.65 2299.89"/><polygon class="cls-2" points="396.67 2636.38 474.42 2636.38 513.3 2569.05 474.42 2501.72 396.67 2501.72 357.8 2569.05 396.67 2636.38"/><polygon class="cls-2" points="745.65 2434.89 823.4 2434.89 862.28 2367.56 823.4 2300.23 745.65 2300.23 706.78 2367.56 745.65 2434.89"/><polygon class="cls-2" points="629.67 2367.38 707.42 2367.38 746.3 2300.05 707.42 2232.72 629.67 2232.72 590.8 2300.05 629.67 2367.38"/><polygon class="cls-2" points="396.16 2366.14 473.91 2366.14 512.79 2298.8 473.91 2231.47 396.16 2231.47 357.29 2298.8 396.16 2366.14"/><polygon class="cls-2" points="396.16 2232.14 473.91 2232.14 512.79 2164.8 473.91 2097.47 396.16 2097.47 357.29 2164.8 396.16 2232.14"/><polygon class="cls-2" points="396.14 2097.97 473.89 2097.97 512.76 2030.64 473.89 1963.3 396.14 1963.3 357.26 2030.64 396.14 2097.97"/><polygon class="cls-2" points="514.14 2029.97 591.89 2029.97 630.76 1962.64 591.89 1895.3 514.14 1895.3 475.26 1962.64 514.14 2029.97"/><polygon class="cls-2" points="396.14 2501.98 473.89 2501.98 512.76 2434.65 473.89 2367.32 396.14 2367.32 357.26 2434.65 396.14 2501.98"/><polygon class="cls-2" points="513.19 2571.11 590.94 2571.11 629.81 2503.78 590.94 2436.45 513.19 2436.45 474.31 2503.78 513.19 2571.11"/><polygon class="cls-2" points="240.97 1693.12 163.22 1693.12 124.34 1760.46 163.22 1827.79 240.97 1827.79 279.84 1760.46 240.97 1693.12"/><polygon class="cls-2" points="356.95 1760.63 279.2 1760.63 240.33 1827.97 279.2 1895.3 356.95 1895.3 395.83 1827.97 356.95 1760.63"/><polygon class="cls-2" points="472.96 1827.63 395.21 1827.63 356.34 1894.96 395.21 1962.29 472.96 1962.29 511.84 1894.96 472.96 1827.63"/><polygon class="cls-2" points="472.96 1692.63 395.21 1692.63 356.34 1759.96 395.21 1827.29 472.96 1827.29 511.84 1759.96 472.96 1692.63"/><polygon class="cls-2" points="123.95 1354.14 46.2 1354.14 7.32 1421.47 46.2 1488.8 123.95 1488.8 162.82 1421.47 123.95 1354.14"/><polygon class="cls-2" points="240.96 1557.63 163.21 1557.63 124.34 1624.96 163.21 1692.29 240.96 1692.29 279.84 1624.96 240.96 1557.63"/><polygon class="cls-2" points="356.95 1625.14 279.2 1625.14 240.32 1692.47 279.2 1759.8 356.95 1759.8 395.82 1692.47 356.95 1625.14"/><polygon class="cls-2" points="124.45 1624.38 46.7 1624.38 7.83 1691.71 46.7 1759.05 124.45 1759.05 163.33 1691.71 124.45 1624.38"/><polygon class="cls-2" points="124.45 1758.38 46.7 1758.38 7.83 1825.71 46.7 1893.05 124.45 1893.05 163.33 1825.71 124.45 1758.38"/><polygon class="cls-2" points="124.48 1892.55 46.73 1892.55 7.85 1959.88 46.73 2027.22 124.48 2027.22 163.35 1959.88 124.48 1892.55"/><polygon class="cls-2" points="240.48 1827.55 162.73 1827.55 123.85 1894.88 162.73 1962.22 240.48 1962.22 279.35 1894.88 240.48 1827.55"/><polygon class="cls-2" points="124.48 1488.54 46.73 1488.54 7.85 1555.87 46.73 1623.2 124.48 1623.2 163.35 1555.87 124.48 1488.54"/><polygon class="cls-2" points="472.51 1556.61 394.76 1556.61 355.89 1623.94 394.76 1691.28 472.51 1691.28 511.39 1623.94 472.51 1556.61"/><polygon class="cls-2" points="356.52 1489.6 278.77 1489.6 239.9 1556.93 278.77 1624.27 356.52 1624.27 395.4 1556.93 356.52 1489.6"/><polygon class="cls-2" points="588.52 1488.6 510.77 1488.6 471.9 1555.93 510.77 1623.27 588.52 1623.27 627.4 1555.93 588.52 1488.6"/><polygon class="cls-2" points="472.51 1421.11 394.76 1421.11 355.88 1488.44 394.76 1555.78 472.51 1555.78 511.38 1488.44 472.51 1421.11"/><polygon class="cls-2" points="588.51 1760.36 510.76 1760.36 471.89 1827.69 510.76 1895.02 588.51 1895.02 627.39 1827.69 588.51 1760.36"/><polygon class="cls-2" points="356.51 1895.36 278.76 1895.36 239.89 1962.69 278.76 2030.02 356.51 2030.02 395.39 1962.69 356.51 1895.36"/><polygon class="cls-2" points="125.25 952.28 47.5 952.28 8.63 1019.61 47.5 1086.94 125.25 1086.94 164.13 1019.61 125.25 952.28"/><polygon class="cls-2" points="241.24 1019.79 163.49 1019.79 124.61 1087.12 163.49 1154.45 241.24 1154.45 280.11 1087.12 241.24 1019.79"/><polygon class="cls-2" points="357.24 1086.78 279.49 1086.78 240.62 1154.11 279.49 1221.44 357.24 1221.44 396.12 1154.11 357.24 1086.78"/><polygon class="cls-2" points="357.24 951.78 279.49 951.78 240.62 1019.11 279.49 1086.44 357.24 1086.44 396.12 1019.11 357.24 951.78"/><polygon class="cls-2" points="125.23 680.29 47.48 680.29 8.6 747.62 47.48 814.96 125.23 814.96 164.1 747.62 125.23 680.29"/><polygon class="cls-2" points="125.24 816.78 47.49 816.78 8.62 884.11 47.49 951.45 125.24 951.45 164.12 884.11 125.24 816.78"/><polygon class="cls-2" points="241.23 884.29 163.48 884.29 124.6 951.62 163.48 1018.96 241.23 1018.96 280.1 951.62 241.23 884.29"/><polygon class="cls-2" points="124.76 1086.7 47.01 1086.7 8.13 1154.04 47.01 1221.37 124.76 1221.37 163.63 1154.04 124.76 1086.7"/><polygon class="cls-2" points="472.76 881.69 395.01 881.69 356.13 949.02 395.01 1016.36 472.76 1016.36 511.63 949.02 472.76 881.69"/><polygon class="cls-2" points="356.8 815.76 279.05 815.76 240.17 883.09 279.05 950.43 356.8 950.43 395.67 883.09 356.8 815.76"/><polygon class="cls-2" points="240.8 748.75 163.05 748.75 124.18 816.09 163.05 883.42 240.8 883.42 279.68 816.09 240.8 748.75"/><polygon class="cls-2" points="472.8 747.75 395.05 747.75 356.18 815.09 395.05 882.42 472.8 882.42 511.68 815.09 472.8 747.75"/><polygon class="cls-2" points="356.79 680.26 279.04 680.26 240.16 747.6 279.04 814.93 356.79 814.93 395.66 747.6 356.79 680.26"/><polygon class="cls-2" points="472.8 1019.51 395.05 1019.51 356.17 1086.84 395.05 1154.17 472.8 1154.17 511.67 1086.84 472.8 1019.51"/><polygon class="cls-2" points="240.8 1154.51 163.05 1154.51 124.17 1221.84 163.05 1289.17 240.8 1289.17 279.67 1221.84 240.8 1154.51"/><polygon class="cls-2" points="823.06 2572.82 745.31 2572.82 706.43 2640.16 745.31 2707.49 823.06 2707.49 861.93 2640.16 823.06 2572.82"/><polygon class="cls-2" points="939.04 2640.33 861.29 2640.33 822.42 2707.67 861.29 2775 939.04 2775 977.92 2707.67 939.04 2640.33"/><polygon class="cls-2" points="1055.05 2707.32 977.3 2707.32 938.43 2774.66 977.3 2841.99 1055.05 2841.99 1093.93 2774.66 1055.05 2707.32"/><polygon class="cls-2" points="1055.05 2572.32 977.3 2572.32 938.43 2639.66 977.3 2706.99 1055.05 2706.99 1093.93 2639.66 1055.05 2572.32"/><polygon class="cls-2" points="1055.04 2305.83 977.29 2305.83 938.41 2373.17 977.29 2440.5 1055.04 2440.5 1093.91 2373.17 1055.04 2305.83"/><polygon class="cls-2" points="823.05 2437.32 745.3 2437.32 706.43 2504.66 745.3 2571.99 823.05 2571.99 861.93 2504.66 823.05 2437.32"/><polygon class="cls-2" points="939.04 2504.83 861.29 2504.83 822.41 2572.17 861.29 2639.5 939.04 2639.5 977.91 2572.17 939.04 2504.83"/><polygon class="cls-2" points="1303.62 1692.44 1225.87 1692.44 1186.99 1759.77 1225.87 1827.11 1303.62 1827.11 1342.49 1759.77 1303.62 1692.44"/><polygon class="cls-2" points="1187.16 2972.84 1109.41 2972.84 1070.53 3040.17 1109.41 3107.51 1187.16 3107.51 1226.03 3040.17 1187.16 2972.84"/><polygon class="cls-2" points="395.64 3037.76 473.39 3037.76 512.26 2970.43 473.39 2903.09 395.64 2903.09 356.76 2970.43 395.64 3037.76"/><polygon class="cls-2" points="279.65 2970.25 357.4 2970.25 396.28 2902.92 357.4 2835.58 279.65 2835.58 240.78 2902.92 279.65 2970.25"/><polygon class="cls-2" points="162.65 2768.26 240.4 2768.26 279.27 2700.93 240.4 2633.59 162.65 2633.59 123.77 2700.93 162.65 2768.26"/><polygon class="cls-2" points="162.65 2903.26 240.4 2903.26 279.27 2835.93 240.4 2768.59 162.65 2768.59 123.77 2835.93 162.65 2903.26"/><polygon class="cls-2" points="45.66 3239.75 123.41 3239.75 162.29 3172.41 123.41 3105.08 45.66 3105.08 6.79 3172.41 45.66 3239.75"/><polygon class="cls-2" points="45.16 2969.5 122.91 2969.5 161.78 2902.17 122.91 2834.84 45.16 2834.84 6.28 2902.17 45.16 2969.5"/><polygon class="cls-2" points="45.16 2835.5 122.91 2835.5 161.78 2768.17 122.91 2700.84 45.16 2700.84 6.28 2768.17 45.16 2835.5"/><polygon class="cls-2" points="45.13 2701.34 122.88 2701.34 161.76 2634 122.88 2566.67 45.13 2566.67 6.26 2634 45.13 2701.34"/><polygon class="cls-2" points="163.13 2098.34 240.88 2098.34 279.76 2031 240.88 1963.67 163.13 1963.67 124.26 2031 163.13 2098.34"/><polygon class="cls-2" points="45.13 3105.35 122.88 3105.35 161.76 3038.01 122.88 2970.68 45.13 2970.68 6.26 3038.01 45.13 3105.35"/><polygon class="cls-2" points="162.18 3174.48 239.93 3174.48 278.8 3107.15 239.93 3039.81 162.18 3039.81 123.3 3107.15 162.18 3174.48"/><polygon class="cls-2" points="1688.65 2229.13 1766.4 2229.13 1805.27 2161.8 1766.4 2094.46 1688.65 2094.46 1649.77 2161.8 1688.65 2229.13"/><polygon class="cls-2" points="1572.66 2161.62 1650.41 2161.62 1689.29 2094.29 1650.41 2026.95 1572.66 2026.95 1533.79 2094.29 1572.66 2161.62"/><polygon class="cls-2" points="1456.66 2094.63 1534.41 2094.63 1573.28 2027.29 1534.41 1959.96 1456.66 1959.96 1417.78 2027.29 1456.66 2094.63"/><polygon class="cls-2" points="1456.66 2229.63 1534.41 2229.63 1573.28 2162.29 1534.41 2094.96 1456.66 2094.96 1417.78 2162.29 1456.66 2229.63"/><polygon class="cls-2" points="1805.67 2568.12 1883.42 2568.12 1922.3 2500.78 1883.42 2433.45 1805.67 2433.45 1766.8 2500.78 1805.67 2568.12"/><polygon class="cls-2" points="1688.66 2364.63 1766.41 2364.63 1805.28 2297.29 1766.41 2229.96 1688.66 2229.96 1649.78 2297.29 1688.66 2364.63"/><polygon class="cls-2" points="1572.67 2297.12 1650.42 2297.12 1689.3 2229.78 1650.42 2162.45 1572.67 2162.45 1533.8 2229.78 1572.67 2297.12"/><polygon class="cls-2" points="1805.16 2297.87 1882.91 2297.87 1921.79 2230.54 1882.91 2163.2 1805.16 2163.2 1766.29 2230.54 1805.16 2297.87"/><polygon class="cls-2" points="1805.16 2163.87 1882.91 2163.87 1921.79 2096.54 1882.91 2029.2 1805.16 2029.2 1766.29 2096.54 1805.16 2163.87"/><polygon class="cls-2" points="1805.14 2029.7 1882.89 2029.7 1921.77 1962.37 1882.89 1895.04 1805.14 1895.04 1766.27 1962.37 1805.14 2029.7"/><polygon class="cls-2" points="1689.14 2094.7 1766.89 2094.7 1805.77 2027.37 1766.89 1960.04 1689.14 1960.04 1650.27 2027.37 1689.14 2094.7"/><polygon class="cls-2" points="1805.14 2433.72 1882.89 2433.72 1921.77 2366.38 1882.89 2299.05 1805.14 2299.05 1766.27 2366.38 1805.14 2433.72"/><polygon class="cls-2" points="1457.1 2365.64 1534.85 2365.64 1573.73 2298.31 1534.85 2230.98 1457.1 2230.98 1418.23 2298.31 1457.1 2365.64"/><polygon class="cls-2" points="1573.1 2432.65 1650.85 2432.65 1689.72 2365.32 1650.85 2297.99 1573.1 2297.99 1534.22 2365.32 1573.1 2432.65"/><polygon class="cls-2" points="1341.1 2433.65 1418.85 2433.65 1457.72 2366.32 1418.85 2298.99 1341.1 2298.99 1302.22 2366.32 1341.1 2433.65"/><polygon class="cls-2" points="1457.11 2501.14 1534.86 2501.14 1573.73 2433.81 1534.86 2366.48 1457.11 2366.48 1418.23 2433.81 1457.11 2501.14"/><polygon class="cls-2" points="1341.1 2161.9 1418.85 2161.9 1457.73 2094.57 1418.85 2027.23 1341.1 2027.23 1302.23 2094.57 1341.1 2161.9"/><polygon class="cls-2" points="1573.1 2026.9 1650.85 2026.9 1689.73 1959.57 1650.85 1892.23 1573.1 1892.23 1534.23 1959.57 1573.1 2026.9"/><polygon class="cls-2" points="1804.37 2969.98 1882.12 2969.98 1920.99 2902.64 1882.12 2835.31 1804.37 2835.31 1765.49 2902.64 1804.37 2969.98"/><polygon class="cls-2" points="1688.38 2902.47 1766.13 2902.47 1805.01 2835.13 1766.13 2767.8 1688.38 2767.8 1649.51 2835.13 1688.38 2902.47"/><polygon class="cls-2" points="1572.38 2835.48 1650.13 2835.48 1689 2768.14 1650.13 2700.81 1572.38 2700.81 1533.5 2768.14 1572.38 2835.48"/><polygon class="cls-2" points="1572.38 2970.48 1650.13 2970.48 1689 2903.14 1650.13 2835.81 1572.38 2835.81 1533.5 2903.14 1572.38 2970.48"/><polygon class="cls-2" points="1804.39 3241.97 1882.14 3241.97 1921.02 3174.63 1882.14 3107.3 1804.39 3107.3 1765.52 3174.63 1804.39 3241.97"/><polygon class="cls-2" points="1804.38 3105.48 1882.13 3105.48 1921 3038.14 1882.13 2970.81 1804.38 2970.81 1765.5 3038.14 1804.38 3105.48"/><polygon class="cls-2" points="1688.39 3037.97 1766.14 3037.97 1805.02 2970.63 1766.14 2903.3 1688.39 2903.3 1649.52 2970.63 1688.39 3037.97"/><polygon class="cls-2" points="1804.86 2835.55 1882.61 2835.55 1921.48 2768.22 1882.61 2700.89 1804.86 2700.89 1765.98 2768.22 1804.86 2835.55"/><polygon class="cls-2" points="1572.82 3106.49 1650.57 3106.49 1689.45 3039.16 1650.57 2971.83 1572.82 2971.83 1533.95 3039.16 1572.82 3106.49"/><polygon class="cls-2" points="1456.82 2902.75 1534.57 2902.75 1573.45 2835.41 1534.57 2768.08 1456.82 2768.08 1417.95 2835.41 1456.82 2902.75"/><polygon class="cls-2" points="1688.82 2767.75 1766.57 2767.75 1805.45 2700.41 1766.57 2633.08 1688.82 2633.08 1649.95 2700.41 1688.82 2767.75"/><polygon class="cls-2" points="122.4 2298.95 44.65 2298.95 5.77 2366.28 44.65 2433.61 122.4 2433.61 161.27 2366.28 122.4 2298.95"/><polygon class="cls-2" points="240.4 2365.95 162.65 2365.95 123.77 2433.28 162.65 2500.61 240.4 2500.61 279.27 2433.28 240.4 2365.95"/><polygon class="cls-2" points="124.42 2433.11 46.67 2433.11 7.8 2500.45 46.67 2567.78 124.42 2567.78 163.3 2500.45 124.42 2433.11"/><polygon class="cls-2" points="1054.54 1760.1 976.79 1760.1 937.91 1827.43 976.79 1894.77 1054.54 1894.77 1093.41 1827.43 1054.54 1760.1"/><polygon class="cls-2" points="821.52 1759.61 743.77 1759.61 704.9 1826.94 743.77 1894.28 821.52 1894.28 860.4 1826.94 821.52 1759.61"/><polygon class="cls-2" points="937.53 1826.6 859.78 1826.6 820.91 1893.93 859.78 1961.27 937.53 1961.27 976.41 1893.93 937.53 1826.6"/><polygon class="cls-2" points="937.53 1691.6 859.78 1691.6 820.91 1758.93 859.78 1826.27 937.53 1826.27 976.41 1758.93 937.53 1691.6"/><polygon class="cls-2" points="937.52 1552.11 859.77 1552.11 820.89 1619.44 859.77 1686.78 937.52 1686.78 976.39 1619.44 937.52 1552.11"/><polygon class="cls-2" points="1054.53 1624.6 976.78 1624.6 937.91 1691.93 976.78 1759.27 1054.53 1759.27 1093.41 1691.93 1054.53 1624.6"/><polygon class="cls-2" points="821.52 1624.11 743.77 1624.11 704.89 1691.44 743.77 1758.78 821.52 1758.78 860.39 1691.44 821.52 1624.11"/><g id="Robot"><g id="Bee_1" data-name="Bee 1"><path class="cls-3" d="M499.3,504c13.27-9.36,60-39.64,104.72-36.17a6.66,6.66,0,0,1,6.12,6.64h0a6.6,6.6,0,0,0,4.58,6.3c11.41,3.66,40.69,15,47.24,36.84,0,0,13.46,18.85-45.22,40.49a6.49,6.49,0,0,0-1.93,1.1c-5.86,4.9-44.22,33.79-102.93,3.45a6.66,6.66,0,0,1-3.37-4.29l-11.83-47.32A6.64,6.64,0,0,1,499.3,504Z"/><path class="cls-4" d="M443.67,542.4l39.78-18.72a1.16,1.16,0,0,1,1.61.73l4.68,16.38a1.15,1.15,0,0,1-1.05,1.47l-44.46,2.34A1.16,1.16,0,0,1,443.67,542.4Z"/><path class="cls-5" d="M556.27,459.87,523.79,322.44a2.78,2.78,0,0,1,3-3.41l82.46,10a2.78,2.78,0,0,1,2.26,3.78l-50,127.44A2.79,2.79,0,0,1,556.27,459.87Z"/><path class="cls-5" d="M548.22,465.84,504.44,404a2.82,2.82,0,0,0-1.79-1.16l-52.43-10a2.85,2.85,0,0,0-3.37,3.06l4.93,54.21a2.86,2.86,0,0,0,2.15,2.51l84.28,21.07a2.86,2.86,0,0,0,2-.22l7-3.49A2.86,2.86,0,0,0,548.22,465.84Z"/><path class="cls-4" d="M562.4,467.58s60.14-33.38,29.4-84.39C591.8,383.19,539.2,371.16,562.4,467.58Z"/><path class="cls-4" d="M550.14,474s-35.45-76.37-60-65.46,8.18,51.82,8.18,51.82S514.69,487.64,550.14,474Z"/></g><path class="cls-6" d="M605.85,565.35c-6.43-53.48-45.3-91.91-45.3-91.91L579.89,469s34.4,30.88,32.4,91.88Z"/><path class="cls-6" d="M517.67,492.37l12.15-6.52s32.86,35.73,16.16,88.86l-10.28-3.06S545.05,522.92,517.67,492.37Z"/></g><g id="Small_Bee_1" data-name="Small Bee 1"><path class="cls-3" d="M180.6,2080.54l62.61,19.32,11.46,49.26s-57.54,1.28-80-24.7Z"/><path class="cls-4" d="M206,2084.57s-9.36-6.7-3.69-62.09l48.18-8Z"/><path class="cls-5" d="M217.53,2084.32s31.35-39.85,43.37-17.09S217.53,2084.32,217.53,2084.32Z"/><path class="cls-6" d="M206.25,2088.45l16.46,5.08s16.75,27.06,1,53.09L210.54,2144S215.12,2104.29,206.25,2088.45Z"/></g><path class="cls-3" d="M1392.81,1443.31s-27,1.93-11.56-21.19c0,0,27.94-35.65,60.69-35.65,21.62,0,20.58,14.27,17.37,24a23.28,23.28,0,0,1-10.46,12.75C1436.14,1430.57,1407.26,1442.35,1392.81,1443.31Z"/><path class="cls-5" d="M1402.44,1397.61l-54.08-23.43a2.22,2.22,0,0,1-.81-3.47l45.55-57.1a2.21,2.21,0,0,1,3.74.61l25.47,63.68a2.59,2.59,0,0,1,.16.72l.36,8a2.21,2.21,0,0,1-1.18,2.06l-17.3,8.9A2.21,2.21,0,0,1,1402.44,1397.61Z"/><path class="cls-5" d="M1424.44,1384.72l-3.45-37a1.79,1.79,0,0,1,.12-.86l5.86-15.11a1.89,1.89,0,0,1,3-.77l20.16,16.71a1.9,1.9,0,0,1,.39,2.47l-22.57,35.37A1.89,1.89,0,0,1,1424.44,1384.72Z"/><path class="cls-4" d="M1410.16,1392.69,1400,1362.25a4.19,4.19,0,0,0-5.87-2.43c-7.37,3.84-20.21,14.77-9.07,41.91a4.22,4.22,0,0,0,6,2.08Z"/><path class="cls-4" d="M1416.9,1388.4s-3.86-34.68,23.12-50.09c0,0,14.25-7.92,11.17,17.87a32.44,32.44,0,0,1-9,19A45.86,45.86,0,0,1,1416.9,1388.4Z"/><path class="cls-6" d="M1418.63,1392.27l11.35-4s19.72,16.55,18.2,35.31l-5.52,2.74S1431.59,1394.1,1418.63,1392.27Z"/><path class="cls-6" d="M1387.69,1414.91l8.91-8.62s18.9,11.89,16.69,32.71l-6,1.39S1398.81,1414.86,1387.69,1414.91Z"/><path class="cls-4" d="M1490.45,1379.39,1467.78,1398a.76.76,0,0,1-1.16-.21l-5.72-9.83a.78.78,0,0,1,.44-1.13l28.39-8.8A.78.78,0,0,1,1490.45,1379.39Z"/><path class="cls-3" d="M1774.32,2112.06s26.12-5.18,4-17.59c0,0-38.07-18.11-69-10.19-20.42,5.23-14.76,14.94-8.56,20.93a25.52,25.52,0,0,0,14.06,6.36C1729.21,2113.65,1760.35,2114.88,1774.32,2112.06Z"/><path class="cls-5" d="M1750.26,2082.5l43.42-29.44c1.1-.74.91-2.06-.38-2.61l-61.73-28.83c-1.44-.63-3.26.1-3.33,1.33l-3.21,50.6a1,1,0,0,0,.09.54l2.25,5.64a2.16,2.16,0,0,0,1.8,1.16l19.26,2A2.83,2.83,0,0,0,1750.26,2082.5Z"/><path class="cls-5" d="M1725.24,2078.83l-8.84-26.64a1.3,1.3,0,0,0-.4-.57l-10.49-9.12a2.29,2.29,0,0,0-3,.18l-13.57,16.53a1.17,1.17,0,0,0,.45,1.82l32.9,19.22C1723.65,2081.08,1725.67,2080.12,1725.24,2078.83Z"/><path class="cls-4" d="M1741.35,2080.93l-.38-23.7c0-1.89,2.22-3.39,4.75-3.11,8.22.89,23.93,5.42,22.3,27.05-.14,1.9-2.49,3.28-5,2.91Z"/><path class="cls-4" d="M1733.58,2079.57s-7.72-25.14-38.25-29.37c0,0-16.06-2.07-4.7,15.18a29.52,29.52,0,0,0,14.75,11.07A60.28,60.28,0,0,0,1733.58,2079.57Z"/><path class="cls-6" d="M1733.21,2082.69l-12-.05s-13.21,16.31-5.63,29l6.11.58S1721.56,2087.1,1733.21,2082.69Z"/><path class="cls-6" d="M1769.86,2091l-11.24-3.86s-14,12.88-5.06,26.86l6.09-.47S1759.33,2093.66,1769.86,2091Z"/><path class="cls-4" d="M1661.13,2091.07l27.53,7.52a.84.84,0,0,0,1-.42l2.17-8.25c.1-.36-.28-.69-.78-.68l-29.7.72C1660.53,2090,1660.34,2090.85,1661.13,2091.07Z"/><g id="Small_Bee_1-2" data-name="Small Bee 1"><path class="cls-3" d="M300.6,886.7l-65.34-4.81-28.62,41.69s53.11,22.16,83.49,6.15Z"/><path class="cls-4" d="M275.46,881.2s11.16-2.83,26.06-56.48l-42-25Z"/><path class="cls-5" d="M264.83,876.77s-14.67-48.53-34.16-31.72S264.83,876.77,264.83,876.77Z"/><path class="cls-6" d="M273.83,884.73l-17.18-1.27s-25.46,19.09-20.32,49.06l13.27,2.33S259.8,896.24,273.83,884.73Z"/></g><g id="Small_Bee_1-3" data-name="Small Bee 1"><path class="cls-3" d="M1807.23,2880.15l-65.35-4.81L1713.26,2917s53.12,22.16,83.5,6.15Z"/><path class="cls-4" d="M1782.08,2874.65s11.16-2.83,26.06-56.48l-42-25Z"/><path class="cls-5" d="M1771.46,2870.22s-14.67-48.53-34.16-31.72S1771.46,2870.22,1771.46,2870.22Z"/><path class="cls-6" d="M1780.46,2878.18l-17.18-1.27S1737.82,2896,1743,2926l13.27,2.34S1766.42,2889.69,1780.46,2878.18Z"/></g><g id="Robot-2" data-name="Robot"><g id="Bee_1-2" data-name="Bee 1"><path class="cls-3" d="M815.72,2831.31c-13.27-9.37-60-39.64-104.71-36.18a6.67,6.67,0,0,0-6.12,6.64h0a6.61,6.61,0,0,1-4.58,6.31c-11.42,3.66-40.69,15-47.24,36.84,0,0-13.46,18.85,45.22,40.49a6.49,6.49,0,0,1,1.93,1.1c5.85,4.9,44.22,33.78,102.93,3.45a6.68,6.68,0,0,0,3.37-4.3l11.83-47.31A6.64,6.64,0,0,0,815.72,2831.31Z"/><path class="cls-4" d="M871.35,2869.67,831.58,2851a1.17,1.17,0,0,0-1.61.73l-4.68,16.38a1.16,1.16,0,0,0,1.05,1.48l44.46,2.34A1.16,1.16,0,0,0,871.35,2869.67Z"/><path class="cls-5" d="M758.76,2787.15l32.48-137.43a2.79,2.79,0,0,0-3-3.41l-82.46,10a2.79,2.79,0,0,0-2.25,3.79l50,127.44A2.79,2.79,0,0,0,758.76,2787.15Z"/><path class="cls-5" d="M766.81,2793.11l43.78-61.8a2.85,2.85,0,0,1,1.79-1.15l52.43-10a2.86,2.86,0,0,1,3.37,3.06l-4.93,54.22a2.87,2.87,0,0,1-2.15,2.51L776.82,2801a2.92,2.92,0,0,1-2-.22l-7-3.5A2.85,2.85,0,0,1,766.81,2793.11Z"/><path class="cls-4" d="M752.63,2794.86s-60.14-33.39-29.4-84.39C723.23,2710.47,775.83,2698.44,752.63,2794.86Z"/><path class="cls-4" d="M764.89,2801.28s35.45-76.36,60-65.45-8.18,51.82-8.18,51.82S800.34,2814.92,764.89,2801.28Z"/></g><path class="cls-6" d="M709.18,2892.63c6.43-53.48,45.29-91.92,45.29-91.92l-19.33-4.48s-34.4,30.87-32.4,91.87Z"/><path class="cls-6" d="M797.36,2819.65l-12.15-6.52S752.35,2848.86,769,2902l10.29-3.05S770,2850.19,797.36,2819.65Z"/></g></g></g></g></svg>