<svg xmlns="http://www.w3.org/2000/svg" viewBox="0 0 1929.41 3331.6"><defs><style>.cls-1{fill:none;stroke:#078fda;stroke-miterlimit:10;stroke-width:10px;}.cls-2{fill:#fdcd49;}.cls-3{fill:#078fda;}.cls-4{fill:#0cc0d4;}.cls-5{fill:#f76f26;}</style></defs><title>Asset 9</title><g id="Layer_2" data-name="Layer 2"><g id="Layer_8" data-name="Layer 8"><polygon class="cls-1" points="892.25 293.41 814.5 293.41 775.63 360.74 814.5 428.08 892.25 428.08 931.13 360.74 892.25 293.41"/><polygon class="cls-1" points="1008.24 360.92 930.49 360.92 891.61 428.25 930.49 495.59 1008.24 495.59 1047.11 428.25 1008.24 360.92"/><polygon class="cls-1" points="1124.24 427.91 1046.49 427.91 1007.62 495.25 1046.49 562.58 1124.24 562.58 1163.12 495.25 1124.24 427.91"/><polygon class="cls-1" points="1124.24 292.91 1046.49 292.91 1007.62 360.25 1046.49 427.58 1124.24 427.58 1163.12 360.25 1124.24 292.91"/><polygon class="cls-1" points="1127.23 23.42 1049.48 23.42 1010.6 90.76 1049.48 158.09 1127.23 158.09 1166.1 90.76 1127.23 23.42"/><polygon class="cls-1" points="892.24 157.91 814.49 157.91 775.62 225.25 814.49 292.58 892.24 292.58 931.12 225.25 892.24 157.91"/><polygon class="cls-1" points="1008.23 225.42 930.48 225.42 891.6 292.76 930.48 360.09 1008.23 360.09 1047.1 292.76 1008.23 225.42"/><polygon class="cls-1" points="1535.25 359.41 1457.5 359.41 1418.63 426.74 1457.5 494.08 1535.25 494.08 1574.13 426.74 1535.25 359.41"/><polygon class="cls-1" points="1651.24 426.92 1573.49 426.92 1534.61 494.25 1573.49 561.59 1651.24 561.59 1690.11 494.25 1651.24 426.92"/><polygon class="cls-1" points="1767.24 493.91 1689.49 493.91 1650.62 561.25 1689.49 628.58 1767.24 628.58 1806.12 561.25 1767.24 493.91"/><polygon class="cls-1" points="1767.24 358.91 1689.49 358.91 1650.62 426.25 1689.49 493.58 1767.24 493.58 1806.12 426.25 1767.24 358.91"/><polygon class="cls-1" points="1884.23 22.42 1806.48 22.42 1767.6 89.76 1806.48 157.09 1884.23 157.09 1923.1 89.76 1884.23 22.42"/><polygon class="cls-1" points="1535.24 223.91 1457.49 223.91 1418.62 291.25 1457.49 358.58 1535.24 358.58 1574.12 291.25 1535.24 223.91"/><polygon class="cls-1" points="1651.23 291.42 1573.48 291.42 1534.6 358.76 1573.48 426.09 1651.23 426.09 1690.1 358.76 1651.23 291.42"/><polygon class="cls-1" points="1884.74 292.67 1806.99 292.67 1768.11 360 1806.99 427.33 1884.74 427.33 1923.61 360 1884.74 292.67"/><polygon class="cls-1" points="1884.74 426.67 1806.99 426.67 1768.11 494 1806.99 561.33 1884.74 561.33 1923.61 494 1884.74 426.67"/><polygon class="cls-1" points="1884.76 560.84 1807.01 560.84 1768.13 628.17 1807.01 695.5 1884.76 695.5 1923.63 628.17 1884.76 560.84"/><polygon class="cls-1" points="1766.76 628.84 1689.01 628.84 1650.13 696.17 1689.01 763.5 1766.76 763.5 1805.63 696.17 1766.76 628.84"/><polygon class="cls-1" points="1884.76 156.82 1807.01 156.82 1768.13 224.16 1807.01 291.49 1884.76 291.49 1923.63 224.16 1884.76 156.82"/><polygon class="cls-1" points="1767.71 87.69 1689.96 87.69 1651.09 155.03 1689.96 222.36 1767.71 222.36 1806.59 155.03 1767.71 87.69"/><polygon class="cls-1" points="240.94 1036.68 163.19 1036.68 124.31 1104.01 163.19 1171.35 240.94 1171.35 279.81 1104.01 240.94 1036.68"/><polygon class="cls-1" points="356.92 1104.19 279.17 1104.19 240.3 1171.52 279.17 1238.86 356.92 1238.86 395.8 1171.52 356.92 1104.19"/><polygon class="cls-1" points="472.93 1171.18 395.18 1171.18 356.3 1238.51 395.18 1305.85 472.93 1305.85 511.8 1238.51 472.93 1171.18"/><polygon class="cls-1" points="472.93 1036.18 395.18 1036.18 356.3 1103.51 395.18 1170.85 472.93 1170.85 511.8 1103.51 472.93 1036.18"/><polygon class="cls-1" points="123.91 697.69 46.16 697.69 7.29 765.02 46.16 832.36 123.91 832.36 162.79 765.02 123.91 697.69"/><polygon class="cls-1" points="240.93 901.18 163.18 901.18 124.3 968.51 163.18 1035.85 240.93 1035.85 279.8 968.51 240.93 901.18"/><polygon class="cls-1" points="356.91 968.69 279.16 968.69 240.29 1036.02 279.16 1103.36 356.91 1103.36 395.79 1036.02 356.91 968.69"/><polygon class="cls-1" points="124.42 967.93 46.67 967.93 7.8 1035.27 46.67 1102.6 124.42 1102.6 163.3 1035.27 124.42 967.93"/><polygon class="cls-1" points="124.42 1101.93 46.67 1101.93 7.8 1169.27 46.67 1236.6 124.42 1236.6 163.3 1169.27 124.42 1101.93"/><polygon class="cls-1" points="124.45 1236.1 46.7 1236.1 7.82 1303.44 46.7 1370.77 124.45 1370.77 163.32 1303.44 124.45 1236.1"/><polygon class="cls-1" points="240.45 1171.1 162.7 1171.1 123.82 1238.44 162.7 1305.77 240.45 1305.77 279.32 1238.44 240.45 1171.1"/><polygon class="cls-1" points="124.45 832.09 46.7 832.09 7.82 899.42 46.7 966.76 124.45 966.76 163.32 899.42 124.45 832.09"/><polygon class="cls-1" points="472.48 900.16 394.73 900.16 355.86 967.5 394.73 1034.83 472.48 1034.83 511.36 967.5 472.48 900.16"/><polygon class="cls-1" points="356.49 833.15 278.74 833.15 239.87 900.49 278.74 967.82 356.49 967.82 395.37 900.49 356.49 833.15"/><polygon class="cls-1" points="588.49 832.15 510.74 832.15 471.87 899.49 510.74 966.82 588.49 966.82 627.37 899.49 588.49 832.15"/><polygon class="cls-1" points="472.48 764.66 394.73 764.66 355.85 832 394.73 899.33 472.48 899.33 511.35 832 472.48 764.66"/><polygon class="cls-1" points="588.48 1103.91 510.73 1103.91 471.86 1171.24 510.73 1238.58 588.48 1238.58 627.36 1171.24 588.48 1103.91"/><polygon class="cls-1" points="356.48 1238.91 278.73 1238.91 239.86 1306.24 278.73 1373.58 356.48 1373.58 395.36 1306.24 356.48 1238.91"/><polygon class="cls-1" points="125.22 295.83 47.47 295.83 8.59 363.16 47.47 430.5 125.22 430.5 164.09 363.16 125.22 295.83"/><polygon class="cls-1" points="241.2 363.34 163.45 363.34 124.58 430.67 163.45 498.01 241.2 498.01 280.08 430.67 241.2 363.34"/><polygon class="cls-1" points="357.21 430.33 279.46 430.33 240.59 497.67 279.46 565 357.21 565 396.08 497.67 357.21 430.33"/><polygon class="cls-1" points="357.21 295.33 279.46 295.33 240.59 362.67 279.46 430 357.21 430 396.08 362.67 357.21 295.33"/><polygon class="cls-1" points="125.19 23.84 47.45 23.84 8.57 91.17 47.45 158.51 125.19 158.51 164.07 91.17 125.19 23.84"/><polygon class="cls-1" points="125.21 160.33 47.46 160.33 8.59 227.66 47.46 295 125.21 295 164.09 227.66 125.21 160.33"/><polygon class="cls-1" points="241.19 227.84 163.44 227.84 124.57 295.18 163.44 362.51 241.19 362.51 280.07 295.18 241.19 227.84"/><polygon class="cls-1" points="1083.7 886.09 1005.95 886.09 967.08 953.42 1005.95 1020.75 1083.7 1020.75 1122.58 953.42 1083.7 886.09"/><polygon class="cls-1" points="1201.7 953.09 1123.95 953.09 1085.08 1020.42 1123.95 1087.75 1201.7 1087.75 1240.58 1020.42 1201.7 953.09"/><polygon class="cls-1" points="1085.73 1020.25 1007.98 1020.25 969.1 1087.59 1007.98 1154.92 1085.73 1154.92 1124.6 1087.59 1085.73 1020.25"/><polygon class="cls-1" points="124.73 430.25 46.98 430.25 8.1 497.59 46.98 564.92 124.73 564.92 163.6 497.59 124.73 430.25"/><polygon class="cls-1" points="472.73 225.24 394.98 225.24 356.1 292.58 394.98 359.91 472.73 359.91 511.6 292.58 472.73 225.24"/><polygon class="cls-1" points="356.76 159.31 279.01 159.31 240.14 226.65 279.01 293.98 356.76 293.98 395.64 226.65 356.76 159.31"/><polygon class="cls-1" points="240.77 92.31 163.02 92.31 124.15 159.64 163.02 226.97 240.77 226.97 279.65 159.64 240.77 92.31"/><polygon class="cls-1" points="472.77 91.31 395.02 91.31 356.15 158.64 395.02 225.97 472.77 225.97 511.65 158.64 472.77 91.31"/><polygon class="cls-1" points="356.76 23.82 279.01 23.82 240.13 91.15 279.01 158.48 356.76 158.48 395.63 91.15 356.76 23.82"/><polygon class="cls-1" points="472.76 363.06 395.01 363.06 356.14 430.39 395.01 497.73 472.76 497.73 511.64 430.39 472.76 363.06"/><polygon class="cls-1" points="240.76 498.06 163.01 498.06 124.14 565.39 163.01 632.73 240.76 632.73 279.64 565.39 240.76 498.06"/><polygon class="cls-1" points="1689.93 1032.68 1767.68 1032.68 1806.56 965.35 1767.68 898.01 1689.93 898.01 1651.06 965.35 1689.93 1032.68"/><polygon class="cls-1" points="1573.94 965.17 1651.69 965.17 1690.57 897.84 1651.69 830.5 1573.94 830.5 1535.07 897.84 1573.94 965.17"/><polygon class="cls-1" points="1457.94 898.18 1535.69 898.18 1574.56 830.85 1535.69 763.51 1457.94 763.51 1419.06 830.85 1457.94 898.18"/><polygon class="cls-1" points="1457.94 1033.18 1535.69 1033.18 1574.56 965.85 1535.69 898.51 1457.94 898.51 1419.06 965.85 1457.94 1033.18"/><polygon class="cls-1" points="1806.95 1371.67 1884.7 1371.67 1923.58 1304.34 1884.7 1237 1806.95 1237 1768.08 1304.34 1806.95 1371.67"/><polygon class="cls-1" points="1689.94 1168.18 1767.69 1168.18 1806.56 1100.85 1767.69 1033.51 1689.94 1033.51 1651.06 1100.85 1689.94 1168.18"/><polygon class="cls-1" points="1573.95 1100.67 1651.7 1100.67 1690.58 1033.34 1651.7 966 1573.95 966 1535.08 1033.34 1573.95 1100.67"/><polygon class="cls-1" points="1806.44 1101.42 1884.19 1101.42 1923.07 1034.09 1884.19 966.76 1806.44 966.76 1767.57 1034.09 1806.44 1101.42"/><polygon class="cls-1" points="1806.44 967.42 1884.19 967.42 1923.07 900.09 1884.19 832.76 1806.44 832.76 1767.57 900.09 1806.44 967.42"/><polygon class="cls-1" points="1806.42 833.26 1884.17 833.26 1923.05 765.92 1884.17 698.59 1806.42 698.59 1767.55 765.92 1806.42 833.26"/><polygon class="cls-1" points="1690.42 898.26 1768.17 898.26 1807.05 830.92 1768.17 763.59 1690.42 763.59 1651.55 830.92 1690.42 898.26"/><polygon class="cls-1" points="1806.42 1237.27 1884.17 1237.27 1923.05 1169.93 1884.17 1102.6 1806.42 1102.6 1767.55 1169.93 1806.42 1237.27"/><polygon class="cls-1" points="1458.38 1169.2 1536.13 1169.2 1575.01 1101.86 1536.13 1034.53 1458.38 1034.53 1419.51 1101.86 1458.38 1169.2"/><polygon class="cls-1" points="1574.38 1236.2 1652.13 1236.2 1691 1168.87 1652.13 1101.54 1574.38 1101.54 1535.5 1168.87 1574.38 1236.2"/><polygon class="cls-1" points="1342.38 1237.2 1420.13 1237.2 1459 1169.87 1420.13 1102.54 1342.38 1102.54 1303.5 1169.87 1342.38 1237.2"/><polygon class="cls-1" points="1458.39 1304.69 1536.14 1304.69 1575.02 1237.36 1536.14 1170.03 1458.39 1170.03 1419.52 1237.36 1458.39 1304.69"/><polygon class="cls-1" points="1342.38 965.45 1420.13 965.45 1459.01 898.12 1420.13 830.78 1342.38 830.78 1303.51 898.12 1342.38 965.45"/><polygon class="cls-1" points="1574.38 830.45 1652.13 830.45 1691.01 763.12 1652.13 695.78 1574.38 695.78 1535.51 763.12 1574.38 830.45"/><polygon class="cls-1" points="1805.65 1773.53 1883.4 1773.53 1922.27 1706.2 1883.4 1638.86 1805.65 1638.86 1766.77 1706.2 1805.65 1773.53"/><polygon class="cls-1" points="1689.66 1706.02 1767.41 1706.02 1806.29 1638.69 1767.41 1571.35 1689.66 1571.35 1650.79 1638.69 1689.66 1706.02"/><polygon class="cls-1" points="1573.66 1639.03 1651.41 1639.03 1690.28 1571.69 1651.41 1504.36 1573.66 1504.36 1534.78 1571.69 1573.66 1639.03"/><polygon class="cls-1" points="1573.66 1774.03 1651.41 1774.03 1690.28 1706.69 1651.41 1639.36 1573.66 1639.36 1534.78 1706.69 1573.66 1774.03"/><polygon class="cls-1" points="1805.67 2045.52 1883.42 2045.52 1922.3 1978.18 1883.42 1910.85 1805.67 1910.85 1766.8 1978.18 1805.67 2045.52"/><polygon class="cls-1" points="1805.66 1909.03 1883.41 1909.03 1922.28 1841.69 1883.41 1774.36 1805.66 1774.36 1766.78 1841.69 1805.66 1909.03"/><polygon class="cls-1" points="1689.67 1841.52 1767.42 1841.52 1806.3 1774.18 1767.42 1706.85 1689.67 1706.85 1650.8 1774.18 1689.67 1841.52"/><polygon class="cls-1" points="1806.14 1639.1 1883.89 1639.1 1922.77 1571.77 1883.89 1504.44 1806.14 1504.44 1767.27 1571.77 1806.14 1639.1"/><polygon class="cls-1" points="1458.14 1844.12 1535.89 1844.12 1574.77 1776.78 1535.89 1709.45 1458.14 1709.45 1419.27 1776.78 1458.14 1844.12"/><polygon class="cls-1" points="1574.1 1910.05 1651.85 1910.05 1690.73 1842.71 1651.85 1775.38 1574.1 1775.38 1535.23 1842.71 1574.1 1910.05"/><polygon class="cls-1" points="1690.1 1977.05 1767.85 1977.05 1806.72 1909.72 1767.85 1842.39 1690.1 1842.39 1651.22 1909.72 1690.1 1977.05"/><polygon class="cls-1" points="1458.1 1978.05 1535.85 1978.05 1574.72 1910.72 1535.85 1843.39 1458.1 1843.39 1419.22 1910.72 1458.1 1978.05"/><polygon class="cls-1" points="1574.11 2045.54 1651.86 2045.54 1690.74 1978.21 1651.86 1910.88 1574.11 1910.88 1535.24 1978.21 1574.11 2045.54"/><polygon class="cls-1" points="1458.1 1706.3 1535.85 1706.3 1574.73 1638.96 1535.85 1571.63 1458.1 1571.63 1419.23 1638.96 1458.1 1706.3"/><polygon class="cls-1" points="1690.1 1571.3 1767.85 1571.3 1806.73 1503.96 1767.85 1436.63 1690.1 1436.63 1651.23 1503.96 1690.1 1571.3"/><polygon class="cls-1" points="745.65 2318.24 823.4 2318.24 862.27 2250.9 823.4 2183.57 745.65 2183.57 706.77 2250.9 745.65 2318.24"/><polygon class="cls-1" points="629.66 2250.73 707.41 2250.73 746.29 2183.39 707.41 2116.06 629.66 2116.06 590.79 2183.39 629.66 2250.73"/><polygon class="cls-1" points="513.65 2183.73 591.4 2183.73 630.28 2116.4 591.4 2049.07 513.65 2049.07 474.78 2116.4 513.65 2183.73"/><polygon class="cls-1" points="513.65 2318.73 591.4 2318.73 630.28 2251.4 591.4 2184.07 513.65 2184.07 474.78 2251.4 513.65 2318.73"/><polygon class="cls-1" points="396.67 2655.22 474.42 2655.22 513.3 2587.89 474.42 2520.56 396.67 2520.56 357.8 2587.89 396.67 2655.22"/><polygon class="cls-1" points="745.65 2453.73 823.4 2453.73 862.28 2386.4 823.4 2319.07 745.65 2319.07 706.78 2386.4 745.65 2453.73"/><polygon class="cls-1" points="629.67 2386.22 707.42 2386.22 746.3 2318.89 707.42 2251.56 629.67 2251.56 590.8 2318.89 629.67 2386.22"/><polygon class="cls-1" points="396.16 2384.98 473.91 2384.98 512.79 2317.65 473.91 2250.31 396.16 2250.31 357.29 2317.65 396.16 2384.98"/><polygon class="cls-1" points="396.16 2250.98 473.91 2250.98 512.79 2183.65 473.91 2116.31 396.16 2116.31 357.29 2183.65 396.16 2250.98"/><polygon class="cls-1" points="396.14 2116.81 473.89 2116.81 512.76 2049.48 473.89 1982.14 396.14 1982.14 357.26 2049.48 396.14 2116.81"/><polygon class="cls-1" points="514.14 2048.81 591.89 2048.81 630.76 1981.48 591.89 1914.14 514.14 1914.14 475.26 1981.48 514.14 2048.81"/><polygon class="cls-1" points="396.14 2520.82 473.89 2520.82 512.76 2453.49 473.89 2386.16 396.14 2386.16 357.26 2453.49 396.14 2520.82"/><polygon class="cls-1" points="513.19 2589.95 590.94 2589.95 629.81 2522.62 590.94 2455.29 513.19 2455.29 474.31 2522.62 513.19 2589.95"/><polygon class="cls-1" points="240.97 1711.97 163.22 1711.97 124.34 1779.3 163.22 1846.63 240.97 1846.63 279.84 1779.3 240.97 1711.97"/><polygon class="cls-1" points="356.95 1779.47 279.2 1779.47 240.33 1846.81 279.2 1914.14 356.95 1914.14 395.83 1846.81 356.95 1779.47"/><polygon class="cls-1" points="472.96 1846.47 395.21 1846.47 356.34 1913.8 395.21 1981.13 472.96 1981.13 511.84 1913.8 472.96 1846.47"/><polygon class="cls-1" points="472.96 1711.47 395.21 1711.47 356.34 1778.8 395.21 1846.13 472.96 1846.13 511.84 1778.8 472.96 1711.47"/><polygon class="cls-1" points="123.95 1372.98 46.2 1372.98 7.32 1440.31 46.2 1507.64 123.95 1507.64 162.82 1440.31 123.95 1372.98"/><polygon class="cls-1" points="240.96 1576.47 163.21 1576.47 124.34 1643.8 163.21 1711.13 240.96 1711.13 279.84 1643.8 240.96 1576.47"/><polygon class="cls-1" points="356.95 1643.98 279.2 1643.98 240.32 1711.31 279.2 1778.64 356.95 1778.64 395.82 1711.31 356.95 1643.98"/><polygon class="cls-1" points="124.45 1643.22 46.7 1643.22 7.83 1710.56 46.7 1777.89 124.45 1777.89 163.33 1710.56 124.45 1643.22"/><polygon class="cls-1" points="124.45 1777.22 46.7 1777.22 7.83 1844.56 46.7 1911.89 124.45 1911.89 163.33 1844.56 124.45 1777.22"/><polygon class="cls-1" points="124.48 1911.39 46.73 1911.39 7.85 1978.72 46.73 2046.06 124.48 2046.06 163.35 1978.72 124.48 1911.39"/><polygon class="cls-1" points="240.48 1846.39 162.73 1846.39 123.85 1913.72 162.73 1981.06 240.48 1981.06 279.35 1913.72 240.48 1846.39"/><polygon class="cls-1" points="124.48 1507.38 46.73 1507.38 7.85 1574.71 46.73 1642.05 124.48 1642.05 163.35 1574.71 124.48 1507.38"/><polygon class="cls-1" points="472.51 1575.45 394.76 1575.45 355.89 1642.78 394.76 1710.12 472.51 1710.12 511.39 1642.78 472.51 1575.45"/><polygon class="cls-1" points="356.52 1508.44 278.77 1508.44 239.9 1575.78 278.77 1643.11 356.52 1643.11 395.4 1575.78 356.52 1508.44"/><polygon class="cls-1" points="588.52 1507.44 510.77 1507.44 471.9 1574.78 510.77 1642.11 588.52 1642.11 627.4 1574.78 588.52 1507.44"/><polygon class="cls-1" points="472.51 1439.95 394.76 1439.95 355.88 1507.29 394.76 1574.62 472.51 1574.62 511.38 1507.29 472.51 1439.95"/><polygon class="cls-1" points="588.51 1779.2 510.76 1779.2 471.89 1846.53 510.76 1913.86 588.51 1913.86 627.39 1846.53 588.51 1779.2"/><polygon class="cls-1" points="356.51 1914.2 278.76 1914.2 239.89 1981.53 278.76 2048.86 356.51 2048.86 395.39 1981.53 356.51 1914.2"/><polygon class="cls-1" points="125.25 971.12 47.5 971.12 8.63 1038.45 47.5 1105.78 125.25 1105.78 164.13 1038.45 125.25 971.12"/><polygon class="cls-1" points="241.24 1038.63 163.49 1038.63 124.61 1105.96 163.49 1173.29 241.24 1173.29 280.11 1105.96 241.24 1038.63"/><polygon class="cls-1" points="357.24 1105.62 279.49 1105.62 240.62 1172.95 279.49 1240.29 357.24 1240.29 396.12 1172.95 357.24 1105.62"/><polygon class="cls-1" points="357.24 970.62 279.49 970.62 240.62 1037.95 279.49 1105.29 357.24 1105.29 396.12 1037.95 357.24 970.62"/><polygon class="cls-1" points="125.23 699.13 47.48 699.13 8.6 766.46 47.48 833.8 125.23 833.8 164.1 766.46 125.23 699.13"/><polygon class="cls-1" points="125.24 835.62 47.49 835.62 8.62 902.95 47.49 970.29 125.24 970.29 164.12 902.95 125.24 835.62"/><polygon class="cls-1" points="241.23 903.13 163.48 903.13 124.6 970.46 163.48 1037.8 241.23 1037.8 280.1 970.46 241.23 903.13"/><polygon class="cls-1" points="124.76 1105.54 47.01 1105.54 8.13 1172.88 47.01 1240.21 124.76 1240.21 163.63 1172.88 124.76 1105.54"/><polygon class="cls-1" points="472.76 900.53 395.01 900.53 356.13 967.86 395.01 1035.2 472.76 1035.2 511.63 967.86 472.76 900.53"/><polygon class="cls-1" points="356.8 834.6 279.05 834.6 240.17 901.93 279.05 969.27 356.8 969.27 395.67 901.93 356.8 834.6"/><polygon class="cls-1" points="240.8 767.59 163.05 767.59 124.18 834.93 163.05 902.26 240.8 902.26 279.68 834.93 240.8 767.59"/><polygon class="cls-1" points="472.8 766.59 395.05 766.59 356.18 833.93 395.05 901.26 472.8 901.26 511.68 833.93 472.8 766.59"/><polygon class="cls-1" points="356.79 699.1 279.04 699.1 240.16 766.44 279.04 833.77 356.79 833.77 395.66 766.44 356.79 699.1"/><polygon class="cls-1" points="472.8 1038.35 395.05 1038.35 356.17 1105.68 395.05 1173.02 472.8 1173.02 511.67 1105.68 472.8 1038.35"/><polygon class="cls-1" points="240.8 1173.35 163.05 1173.35 124.17 1240.68 163.05 1308.02 240.8 1308.02 279.67 1240.68 240.8 1173.35"/><polygon class="cls-1" points="823.06 2591.66 745.31 2591.66 706.43 2659 745.31 2726.33 823.06 2726.33 861.93 2659 823.06 2591.66"/><polygon class="cls-1" points="939.04 2659.17 861.29 2659.17 822.42 2726.51 861.29 2793.84 939.04 2793.84 977.92 2726.51 939.04 2659.17"/><polygon class="cls-1" points="1055.05 2726.17 977.3 2726.17 938.43 2793.5 977.3 2860.83 1055.05 2860.83 1093.93 2793.5 1055.05 2726.17"/><polygon class="cls-1" points="1055.05 2591.17 977.3 2591.17 938.43 2658.5 977.3 2725.83 1055.05 2725.83 1093.93 2658.5 1055.05 2591.17"/><polygon class="cls-1" points="1055.04 2324.68 977.29 2324.68 938.41 2392.01 977.29 2459.34 1055.04 2459.34 1093.91 2392.01 1055.04 2324.68"/><polygon class="cls-1" points="823.05 2456.17 745.3 2456.17 706.43 2523.5 745.3 2590.83 823.05 2590.83 861.93 2523.5 823.05 2456.17"/><polygon class="cls-1" points="939.04 2523.68 861.29 2523.68 822.41 2591.01 861.29 2658.34 939.04 2658.34 977.91 2591.01 939.04 2523.68"/><polygon class="cls-1" points="1303.62 1711.28 1225.87 1711.28 1186.99 1778.62 1225.87 1845.95 1303.62 1845.95 1342.49 1778.62 1303.62 1711.28"/><polygon class="cls-1" points="1071.09 3057.87 993.34 3057.87 954.46 3125.21 993.34 3192.54 1071.09 3192.54 1109.96 3125.21 1071.09 3057.87"/><polygon class="cls-1" points="707.9 3056.88 630.15 3056.88 591.28 3124.22 630.15 3191.55 707.9 3191.55 746.78 3124.22 707.9 3056.88"/><polygon class="cls-1" points="1300.25 3191.17 1222.5 3191.17 1183.62 3258.51 1222.5 3325.84 1300.25 3325.84 1339.12 3258.51 1300.25 3191.17"/><polygon class="cls-1" points="1417.07 3124.19 1339.32 3124.19 1300.44 3191.52 1339.32 3258.85 1417.07 3258.85 1455.94 3191.52 1417.07 3124.19"/><polygon class="cls-1" points="1187.16 3125.68 1109.41 3125.68 1070.53 3193.01 1109.41 3260.35 1187.16 3260.35 1226.03 3193.01 1187.16 3125.68"/><polygon class="cls-1" points="395.64 3056.6 473.39 3056.6 512.26 2989.27 473.39 2921.93 395.64 2921.93 356.76 2989.27 395.64 3056.6"/><polygon class="cls-1" points="279.65 2989.09 357.4 2989.09 396.28 2921.76 357.4 2854.42 279.65 2854.42 240.78 2921.76 279.65 2989.09"/><polygon class="cls-1" points="162.65 2787.1 240.4 2787.1 279.27 2719.77 240.4 2652.43 162.65 2652.43 123.77 2719.77 162.65 2787.1"/><polygon class="cls-1" points="162.65 2922.1 240.4 2922.1 279.27 2854.77 240.4 2787.43 162.65 2787.43 123.77 2854.77 162.65 2922.1"/><polygon class="cls-1" points="45.66 3258.59 123.41 3258.59 162.29 3191.26 123.41 3123.92 45.66 3123.92 6.79 3191.26 45.66 3258.59"/><polygon class="cls-1" points="395.65 3192.1 473.4 3192.1 512.27 3124.77 473.4 3057.43 395.65 3057.43 356.77 3124.77 395.65 3192.1"/><polygon class="cls-1" points="279.66 3124.59 357.41 3124.59 396.29 3057.26 357.41 2989.92 279.66 2989.92 240.79 3057.26 279.66 3124.59"/><polygon class="cls-1" points="45.16 2988.34 122.91 2988.34 161.78 2921.01 122.91 2853.68 45.16 2853.68 6.28 2921.01 45.16 2988.34"/><polygon class="cls-1" points="45.16 2854.34 122.91 2854.34 161.78 2787.01 122.91 2719.68 45.16 2719.68 6.28 2787.01 45.16 2854.34"/><polygon class="cls-1" points="45.13 2720.18 122.88 2720.18 161.76 2652.84 122.88 2585.51 45.13 2585.51 6.26 2652.84 45.13 2720.18"/><polygon class="cls-1" points="163.13 2117.18 240.88 2117.18 279.76 2049.84 240.88 1982.51 163.13 1982.51 124.26 2049.84 163.13 2117.18"/><polygon class="cls-1" points="45.13 3124.19 122.88 3124.19 161.76 3056.85 122.88 2989.52 45.13 2989.52 6.26 3056.85 45.13 3124.19"/><polygon class="cls-1" points="162.18 3193.32 239.93 3193.32 278.8 3125.99 239.93 3058.65 162.18 3058.65 123.3 3125.99 162.18 3193.32"/><polygon class="cls-1" points="395.64 3326.1 473.39 3326.1 512.26 3258.77 473.39 3191.43 395.64 3191.43 356.76 3258.77 395.64 3326.1"/><polygon class="cls-1" points="279.65 3258.59 357.4 3258.59 396.28 3191.26 357.4 3123.92 279.65 3123.92 240.78 3191.26 279.65 3258.59"/><polygon class="cls-1" points="162.65 3326.6 240.4 3326.6 279.27 3259.26 240.4 3191.93 162.65 3191.93 123.77 3259.26 162.65 3326.6"/><polygon class="cls-1" points="513.66 3259.09 591.41 3259.09 630.29 3191.75 591.41 3124.42 513.66 3124.42 474.79 3191.75 513.66 3259.09"/><polygon class="cls-1" points="1688.65 2247.97 1766.4 2247.97 1805.27 2180.64 1766.4 2113.3 1688.65 2113.3 1649.77 2180.64 1688.65 2247.97"/><polygon class="cls-1" points="1572.66 2180.46 1650.41 2180.46 1689.29 2113.13 1650.41 2045.79 1572.66 2045.79 1533.79 2113.13 1572.66 2180.46"/><polygon class="cls-1" points="1456.66 2113.47 1534.41 2113.47 1573.28 2046.13 1534.41 1978.8 1456.66 1978.8 1417.78 2046.13 1456.66 2113.47"/><polygon class="cls-1" points="1456.66 2248.47 1534.41 2248.47 1573.28 2181.14 1534.41 2113.8 1456.66 2113.8 1417.78 2181.14 1456.66 2248.47"/><polygon class="cls-1" points="1805.67 2586.96 1883.42 2586.96 1922.3 2519.63 1883.42 2452.29 1805.67 2452.29 1766.8 2519.63 1805.67 2586.96"/><polygon class="cls-1" points="1688.66 2383.47 1766.41 2383.47 1805.28 2316.14 1766.41 2248.8 1688.66 2248.8 1649.78 2316.14 1688.66 2383.47"/><polygon class="cls-1" points="1572.67 2315.96 1650.42 2315.96 1689.3 2248.63 1650.42 2181.29 1572.67 2181.29 1533.8 2248.63 1572.67 2315.96"/><polygon class="cls-1" points="1805.16 2316.71 1882.91 2316.71 1921.79 2249.38 1882.91 2182.05 1805.16 2182.05 1766.29 2249.38 1805.16 2316.71"/><polygon class="cls-1" points="1805.16 2182.71 1882.91 2182.71 1921.79 2115.38 1882.91 2048.05 1805.16 2048.05 1766.29 2115.38 1805.16 2182.71"/><polygon class="cls-1" points="1805.14 2048.55 1882.89 2048.55 1921.77 1981.21 1882.89 1913.88 1805.14 1913.88 1766.27 1981.21 1805.14 2048.55"/><polygon class="cls-1" points="1689.14 2113.55 1766.89 2113.55 1805.77 2046.21 1766.89 1978.88 1689.14 1978.88 1650.27 2046.21 1689.14 2113.55"/><polygon class="cls-1" points="1805.14 2452.56 1882.89 2452.56 1921.77 2385.22 1882.89 2317.89 1805.14 2317.89 1766.27 2385.22 1805.14 2452.56"/><polygon class="cls-1" points="1457.1 2384.49 1534.85 2384.49 1573.73 2317.15 1534.85 2249.82 1457.1 2249.82 1418.23 2317.15 1457.1 2384.49"/><polygon class="cls-1" points="1573.1 2451.49 1650.85 2451.49 1689.72 2384.16 1650.85 2316.83 1573.1 2316.83 1534.22 2384.16 1573.1 2451.49"/><polygon class="cls-1" points="1341.1 2452.49 1418.85 2452.49 1457.72 2385.16 1418.85 2317.83 1341.1 2317.83 1302.22 2385.16 1341.1 2452.49"/><polygon class="cls-1" points="1457.11 2519.99 1534.86 2519.99 1573.73 2452.65 1534.86 2385.32 1457.11 2385.32 1418.23 2452.65 1457.11 2519.99"/><polygon class="cls-1" points="1341.1 2180.74 1418.85 2180.74 1457.73 2113.41 1418.85 2046.07 1341.1 2046.07 1302.23 2113.41 1341.1 2180.74"/><polygon class="cls-1" points="1573.1 2045.74 1650.85 2045.74 1689.73 1978.41 1650.85 1911.07 1573.1 1911.07 1534.23 1978.41 1573.1 2045.74"/><polygon class="cls-1" points="1804.37 2988.82 1882.12 2988.82 1920.99 2921.49 1882.12 2854.15 1804.37 2854.15 1765.49 2921.49 1804.37 2988.82"/><polygon class="cls-1" points="1688.38 2921.31 1766.13 2921.31 1805.01 2853.97 1766.13 2786.64 1688.38 2786.64 1649.51 2853.97 1688.38 2921.31"/><polygon class="cls-1" points="1572.38 2854.32 1650.13 2854.32 1689 2786.98 1650.13 2719.65 1572.38 2719.65 1533.5 2786.98 1572.38 2854.32"/><polygon class="cls-1" points="1572.38 2989.32 1650.13 2989.32 1689 2921.98 1650.13 2854.65 1572.38 2854.65 1533.5 2921.98 1572.38 2989.32"/><polygon class="cls-1" points="1804.39 3260.81 1882.14 3260.81 1921.02 3193.47 1882.14 3126.14 1804.39 3126.14 1765.52 3193.47 1804.39 3260.81"/><polygon class="cls-1" points="1804.38 3124.32 1882.13 3124.32 1921 3056.98 1882.13 2989.65 1804.38 2989.65 1765.5 3056.98 1804.38 3124.32"/><polygon class="cls-1" points="1688.39 3056.81 1766.14 3056.81 1805.02 2989.47 1766.14 2922.14 1688.39 2922.14 1649.52 2989.47 1688.39 3056.81"/><polygon class="cls-1" points="1804.86 2854.39 1882.61 2854.39 1921.48 2787.06 1882.61 2719.73 1804.86 2719.73 1765.98 2787.06 1804.86 2854.39"/><polygon class="cls-1" points="1456.86 3059.41 1534.61 3059.41 1573.48 2992.07 1534.61 2924.74 1456.86 2924.74 1417.98 2992.07 1456.86 3059.41"/><polygon class="cls-1" points="1572.82 3125.34 1650.57 3125.34 1689.45 3058 1650.57 2990.67 1572.82 2990.67 1533.95 3058 1572.82 3125.34"/><polygon class="cls-1" points="1688.82 3192.34 1766.57 3192.34 1805.44 3125.01 1766.57 3057.68 1688.82 3057.68 1649.94 3125.01 1688.82 3192.34"/><polygon class="cls-1" points="1456.82 3193.34 1534.57 3193.34 1573.44 3126.01 1534.57 3058.68 1456.82 3058.68 1417.94 3126.01 1456.82 3193.34"/><polygon class="cls-1" points="1572.83 3260.83 1650.58 3260.83 1689.45 3193.5 1650.58 3126.17 1572.83 3126.17 1533.95 3193.5 1572.83 3260.83"/><polygon class="cls-1" points="1456.82 2921.59 1534.57 2921.59 1573.45 2854.25 1534.57 2786.92 1456.82 2786.92 1417.95 2854.25 1456.82 2921.59"/><polygon class="cls-1" points="1688.82 2786.59 1766.57 2786.59 1805.45 2719.25 1766.57 2651.92 1688.82 2651.92 1649.95 2719.25 1688.82 2786.59"/><polygon class="cls-1" points="122.4 2317.79 44.65 2317.79 5.77 2385.12 44.65 2452.45 122.4 2452.45 161.27 2385.12 122.4 2317.79"/><polygon class="cls-1" points="240.4 2384.79 162.65 2384.79 123.77 2452.12 162.65 2519.45 240.4 2519.45 279.27 2452.12 240.4 2384.79"/><polygon class="cls-1" points="124.42 2451.96 46.67 2451.96 7.8 2519.29 46.67 2586.62 124.42 2586.62 163.3 2519.29 124.42 2451.96"/><polygon class="cls-1" points="1054.54 1778.94 976.79 1778.94 937.91 1846.27 976.79 1913.61 1054.54 1913.61 1093.41 1846.27 1054.54 1778.94"/><polygon class="cls-1" points="821.52 1778.45 743.77 1778.45 704.9 1845.78 743.77 1913.12 821.52 1913.12 860.4 1845.78 821.52 1778.45"/><polygon class="cls-1" points="937.53 1845.44 859.78 1845.44 820.91 1912.78 859.78 1980.11 937.53 1980.11 976.41 1912.78 937.53 1845.44"/><polygon class="cls-1" points="937.53 1710.44 859.78 1710.44 820.91 1777.78 859.78 1845.11 937.53 1845.11 976.41 1777.78 937.53 1710.44"/><polygon class="cls-1" points="937.52 1570.95 859.77 1570.95 820.89 1638.29 859.77 1705.62 937.52 1705.62 976.39 1638.29 937.52 1570.95"/><polygon class="cls-1" points="1054.53 1643.44 976.78 1643.44 937.91 1710.78 976.78 1778.11 1054.53 1778.11 1093.41 1710.78 1054.53 1643.44"/><polygon class="cls-1" points="821.52 1642.95 743.77 1642.95 704.89 1710.29 743.77 1777.62 821.52 1777.62 860.39 1710.29 821.52 1642.95"/><g id="Robot"><g id="Bee_1" data-name="Bee 1"><path class="cls-2" d="M499.3,522.87c13.27-9.36,60-39.64,104.72-36.17a6.66,6.66,0,0,1,6.12,6.64h0a6.62,6.62,0,0,0,4.58,6.31c11.41,3.65,40.69,15,47.24,36.83,0,0,13.46,18.85-45.22,40.49a6.71,6.71,0,0,0-1.93,1.1c-5.86,4.9-44.22,33.79-102.93,3.45a6.66,6.66,0,0,1-3.37-4.29l-11.83-47.32A6.64,6.64,0,0,1,499.3,522.87Z"/><path class="cls-3" d="M443.67,561.24l39.78-18.72a1.16,1.16,0,0,1,1.61.73l4.68,16.38a1.15,1.15,0,0,1-1.05,1.47l-44.46,2.34A1.16,1.16,0,0,1,443.67,561.24Z"/><path class="cls-4" d="M556.27,478.71,523.79,341.28a2.79,2.79,0,0,1,3-3.41l82.46,10a2.78,2.78,0,0,1,2.26,3.78l-50,127.44A2.79,2.79,0,0,1,556.27,478.71Z"/><path class="cls-4" d="M548.22,484.68l-43.78-61.8a2.82,2.82,0,0,0-1.79-1.16l-52.43-10a2.85,2.85,0,0,0-3.37,3.06L451.78,469a2.84,2.84,0,0,0,2.15,2.51l84.28,21.07a2.8,2.8,0,0,0,2-.22l7-3.49A2.85,2.85,0,0,0,548.22,484.68Z"/><path class="cls-3" d="M562.4,486.42S622.54,453,591.8,402C591.8,402,539.2,390,562.4,486.42Z"/><path class="cls-3" d="M550.14,492.85s-35.45-76.37-60-65.46,8.18,51.82,8.18,51.82S514.69,506.48,550.14,492.85Z"/></g><path class="cls-5" d="M605.85,584.19c-6.43-53.48-45.3-91.91-45.3-91.91l19.34-4.49s34.4,30.88,32.4,91.88Z"/><path class="cls-5" d="M517.67,511.21l12.15-6.52s32.86,35.73,16.16,88.86l-10.28-3.06S545.05,541.76,517.67,511.21Z"/></g><g id="Small_Bee_1" data-name="Small Bee 1"><path class="cls-2" d="M124.6,2131.38l62.61,19.32L198.67,2200s-57.54,1.28-80-24.7Z"/><path class="cls-3" d="M150,2135.41s-9.36-6.69-3.69-62.09l48.18-8Z"/><path class="cls-4" d="M161.53,2135.16s31.35-39.85,43.37-17.09S161.53,2135.16,161.53,2135.16Z"/><path class="cls-5" d="M150.25,2139.29l16.46,5.09s16.75,27,1,53.08l-13.22-2.66S159.12,2155.13,150.25,2139.29Z"/></g><path class="cls-2" d="M1392.81,1462.15s-27,1.93-11.56-21.19c0,0,27.94-35.65,60.69-35.65,21.62,0,20.58,14.27,17.37,24a23.25,23.25,0,0,1-10.46,12.75C1436.14,1449.41,1407.26,1461.19,1392.81,1462.15Z"/><path class="cls-4" d="M1402.44,1416.45,1348.36,1393a2.22,2.22,0,0,1-.81-3.47l45.55-57.1a2.21,2.21,0,0,1,3.74.61l25.47,63.68a2.59,2.59,0,0,1,.16.72l.36,8a2.21,2.21,0,0,1-1.18,2.06l-17.3,8.9A2.21,2.21,0,0,1,1402.44,1416.45Z"/><path class="cls-4" d="M1424.44,1403.57l-3.45-37a1.8,1.8,0,0,1,.12-.86l5.86-15.11a1.89,1.89,0,0,1,3-.77l20.16,16.71a1.9,1.9,0,0,1,.39,2.47l-22.57,35.37A1.89,1.89,0,0,1,1424.44,1403.57Z"/><path class="cls-3" d="M1410.16,1411.53,1400,1381.09a4.19,4.19,0,0,0-5.87-2.43c-7.37,3.84-20.21,14.77-9.07,41.91a4.22,4.22,0,0,0,6,2.08Z"/><path class="cls-3" d="M1416.9,1407.24s-3.86-34.68,23.12-50.09c0,0,14.25-7.92,11.17,17.87a32.44,32.44,0,0,1-9,19A45.86,45.86,0,0,1,1416.9,1407.24Z"/><path class="cls-5" d="M1418.63,1411.11l11.35-4s19.72,16.55,18.2,35.31l-5.52,2.74S1431.59,1412.94,1418.63,1411.11Z"/><path class="cls-5" d="M1387.69,1433.75l8.91-8.62s18.9,11.9,16.69,32.71l-6,1.39S1398.81,1433.7,1387.69,1433.75Z"/><path class="cls-3" d="M1490.45,1398.23l-22.67,18.63a.76.76,0,0,1-1.16-.21l-5.72-9.83a.78.78,0,0,1,.44-1.13l28.39-8.8A.78.78,0,0,1,1490.45,1398.23Z"/><path class="cls-2" d="M1875.32,2261s26.12-7,4-23.81c0,0-38.07-24.52-69-13.79-20.42,7.08-14.76,20.21-8.56,28.33a23.29,23.29,0,0,0,14.06,8.62C1830.21,2263.15,1861.35,2264.82,1875.32,2261Z"/><path class="cls-4" d="M1851.26,2221l43.42-39.86a2.21,2.21,0,0,0-.38-3.54l-61.73-39a2.21,2.21,0,0,0-3.33,1.81l-3.21,68.51a1.81,1.81,0,0,0,.09.73l2.25,7.63a2.24,2.24,0,0,0,1.8,1.57l19.26,2.74A2.24,2.24,0,0,0,1851.26,2221Z"/><path class="cls-4" d="M1826.24,2216l-8.84-36.07a1.9,1.9,0,0,0-.4-.77l-10.49-12.35a1.89,1.89,0,0,0-3,.24l-13.57,22.39a1.89,1.89,0,0,0,.45,2.46l32.9,26A1.88,1.88,0,0,0,1826.24,2216Z"/><path class="cls-3" d="M1842.35,2218.85l-.38-32.09a4.17,4.17,0,0,1,4.75-4.21c8.22,1.21,23.93,7.33,22.3,36.63a4.21,4.21,0,0,1-5,3.93Z"/><path class="cls-3" d="M1834.58,2217s-7.72-34-38.25-39.76c0,0-16.06-2.81-4.7,20.56a32.44,32.44,0,0,0,14.75,15A45.82,45.82,0,0,0,1834.58,2217Z"/><path class="cls-5" d="M1834.21,2221.22l-12-.06s-13.21,22.09-5.63,39.32l6.11.78S1822.56,2227.2,1834.21,2221.22Z"/><path class="cls-5" d="M1870.86,2232.48l-11.24-5.23s-14,17.44-5.06,36.38l6.09-.64S1860.33,2236.08,1870.86,2232.48Z"/><path class="cls-3" d="M1762.13,2232.58l27.53,10.18a.78.78,0,0,0,1-.58l2.17-11.16a.76.76,0,0,0-.78-.92l-29.7,1A.78.78,0,0,0,1762.13,2232.58Z"/><g id="Small_Bee_1-2" data-name="Small Bee 1"><path class="cls-2" d="M300.6,905.54l-65.34-4.81-28.62,41.69s53.11,22.16,83.49,6.15Z"/><path class="cls-3" d="M275.46,900s11.16-2.83,26.06-56.48l-42-25Z"/><path class="cls-4" d="M264.83,895.61s-14.67-48.53-34.16-31.72S264.83,895.61,264.83,895.61Z"/><path class="cls-5" d="M273.83,903.57l-17.18-1.26s-25.46,19.08-20.32,49.05l13.27,2.34S259.8,915.08,273.83,903.57Z"/></g><g id="Small_Bee_1-3" data-name="Small Bee 1"><path class="cls-2" d="M1824.23,2873l-65.35-4.81-28.62,41.69s53.12,22.16,83.5,6.15Z"/><path class="cls-3" d="M1799.08,2867.49s11.16-2.83,26.06-56.48l-42-25Z"/><path class="cls-4" d="M1788.46,2863.06s-14.67-48.53-34.16-31.72S1788.46,2863.06,1788.46,2863.06Z"/><path class="cls-5" d="M1797.46,2871l-17.18-1.27s-25.46,19.09-20.32,49.06l13.27,2.33S1783.42,2882.53,1797.46,2871Z"/></g><g id="Robot-2" data-name="Robot"><g id="Bee_1-2" data-name="Bee 1"><path class="cls-2" d="M780.72,2951.15c-13.27-9.36-60-39.64-104.71-36.17a6.65,6.65,0,0,0-6.12,6.63h0a6.61,6.61,0,0,1-4.58,6.31c-11.42,3.66-40.69,15-47.24,36.84,0,0-13.46,18.85,45.22,40.49a6.49,6.49,0,0,1,1.93,1.1c5.85,4.9,44.22,33.78,102.93,3.45a6.68,6.68,0,0,0,3.37-4.3l11.83-47.31A6.64,6.64,0,0,0,780.72,2951.15Z"/><path class="cls-3" d="M836.35,2989.51l-39.77-18.72a1.17,1.17,0,0,0-1.61.73l-4.68,16.38a1.16,1.16,0,0,0,1.05,1.48l44.46,2.34A1.16,1.16,0,0,0,836.35,2989.51Z"/><path class="cls-4" d="M723.76,2907l32.48-137.43a2.79,2.79,0,0,0-3-3.41l-82.46,10a2.78,2.78,0,0,0-2.25,3.78l50,127.44A2.79,2.79,0,0,0,723.76,2907Z"/><path class="cls-4" d="M731.81,2913l43.78-61.8a2.85,2.85,0,0,1,1.79-1.15l52.43-10a2.86,2.86,0,0,1,3.37,3.06l-4.93,54.22a2.86,2.86,0,0,1-2.15,2.51l-84.28,21.07a2.86,2.86,0,0,1-2-.22l-7-3.49A2.87,2.87,0,0,1,731.81,2913Z"/><path class="cls-3" d="M717.63,2914.7s-60.14-33.39-29.4-84.39C688.23,2830.31,740.83,2818.28,717.63,2914.7Z"/><path class="cls-3" d="M729.89,2921.12s35.45-76.36,60-65.45-8.18,51.82-8.18,51.82S765.34,2934.76,729.89,2921.12Z"/></g><path class="cls-5" d="M674.18,3012.47c6.43-53.48,45.29-91.91,45.29-91.91l-19.33-4.49s-34.4,30.88-32.4,91.88Z"/><path class="cls-5" d="M762.36,2939.49,750.21,2933s-32.86,35.73-16.17,88.85l10.29-3.05S735,2970,762.36,2939.49Z"/></g><path class="cls-2" d="M1480.64,122.76s26.11-7,4-23.81c0,0-38.07-24.52-69-13.8-20.42,7.08-14.77,20.22-8.56,28.34a23.29,23.29,0,0,0,14.06,8.62C1435.52,124.92,1466.67,126.59,1480.64,122.76Z"/><path class="cls-4" d="M1456.58,82.74,1500,42.88a2.22,2.22,0,0,0-.38-3.54l-61.73-39a2.22,2.22,0,0,0-3.34,1.8l-3.21,68.52a2.29,2.29,0,0,0,.09.73l2.26,7.63a2.2,2.2,0,0,0,1.79,1.56l19.27,2.75A2.24,2.24,0,0,0,1456.58,82.74Z"/><path class="cls-4" d="M1431.56,77.77l-8.84-36.07a1.9,1.9,0,0,0-.4-.77l-10.49-12.35a1.89,1.89,0,0,0-3,.24l-13.57,22.39a1.9,1.9,0,0,0,.44,2.46l32.91,26A1.88,1.88,0,0,0,1431.56,77.77Z"/><path class="cls-3" d="M1447.67,80.62l-.39-32.09a4.2,4.2,0,0,1,4.76-4.22c8.22,1.22,23.93,7.34,22.3,36.63a4.23,4.23,0,0,1-5,3.94Z"/><path class="cls-3" d="M1439.9,78.77s-7.72-34-38.26-39.76c0,0-16.05-2.81-4.7,20.55a32.44,32.44,0,0,0,14.76,15A45.82,45.82,0,0,0,1439.9,78.77Z"/><path class="cls-5" d="M1439.53,83l-12-.06s-13.21,22.09-5.63,39.32l6.11.78S1427.88,89,1439.53,83Z"/><path class="cls-5" d="M1476.17,94.25,1464.93,89s-14,17.44-5,36.37l6.09-.63S1465.65,97.84,1476.17,94.25Z"/><path class="cls-3" d="M1367.45,94.35,1395,104.53a.78.78,0,0,0,1-.58l2.18-11.16a.77.77,0,0,0-.78-.92l-29.71,1A.77.77,0,0,0,1367.45,94.35Z"/></g></g></svg>