<svg xmlns="http://www.w3.org/2000/svg" viewBox="0 0 1927.8 1497.95"><defs><style>.cls-1{opacity:0.25;}.cls-2{fill:none;stroke:#078fda;stroke-miterlimit:10;stroke-width:10px;}.cls-3{fill:#fdcd49;}.cls-4{fill:#078fda;}.cls-5{fill:#0cc0d4;}.cls-6{fill:#f76f26;}</style></defs><title>Asset 13</title><g id="Layer_2" data-name="Layer 2"><g id="Hex_Bees" data-name="Hex + Bees"><g id="opacity_25_" data-name="opacity 25%" class="cls-1"><polygon class="cls-2" points="1688.38 341.9 1766.13 341.9 1805.01 274.56 1766.13 207.23 1688.38 207.23 1649.51 274.56 1688.38 341.9"/><polygon class="cls-2" points="1572.4 274.39 1650.15 274.39 1689.02 207.05 1650.15 139.72 1572.4 139.72 1533.52 207.05 1572.4 274.39"/><polygon class="cls-2" points="1456.39 207.4 1534.14 207.4 1573.01 140.06 1534.14 72.73 1456.39 72.73 1417.51 140.06 1456.39 207.4"/><polygon class="cls-2" points="1456.39 342.4 1534.14 342.4 1573.01 275.06 1534.14 207.73 1456.39 207.73 1417.51 275.06 1456.39 342.4"/><polygon class="cls-2" points="1805.4 680.89 1883.15 680.89 1922.03 613.55 1883.15 546.22 1805.4 546.22 1766.53 613.55 1805.4 680.89"/><polygon class="cls-2" points="1688.39 477.4 1766.14 477.4 1805.01 410.06 1766.14 342.73 1688.39 342.73 1649.51 410.06 1688.39 477.4"/><polygon class="cls-2" points="1572.4 409.89 1650.15 409.89 1689.03 342.55 1650.15 275.22 1572.4 275.22 1533.53 342.55 1572.4 409.89"/><polygon class="cls-2" points="1804.9 410.64 1882.65 410.64 1921.52 343.31 1882.65 275.97 1804.9 275.97 1766.02 343.31 1804.9 410.64"/><polygon class="cls-2" points="1804.9 276.64 1882.65 276.64 1921.52 209.31 1882.65 141.97 1804.9 141.97 1766.02 209.31 1804.9 276.64"/><polygon class="cls-2" points="1804.87 142.47 1882.62 142.47 1921.5 75.14 1882.62 7.8 1804.87 7.8 1766 75.14 1804.87 142.47"/><polygon class="cls-2" points="1688.87 207.47 1766.62 207.47 1805.5 140.14 1766.62 72.81 1688.87 72.81 1650 140.14 1688.87 207.47"/><polygon class="cls-2" points="1804.87 546.48 1882.62 546.48 1921.5 479.15 1882.62 411.82 1804.87 411.82 1766 479.15 1804.87 546.48"/><polygon class="cls-2" points="1456.84 478.41 1534.59 478.41 1573.46 411.08 1534.59 343.75 1456.84 343.75 1417.96 411.08 1456.84 478.41"/><polygon class="cls-2" points="1572.83 545.42 1650.58 545.42 1689.45 478.09 1650.58 410.75 1572.83 410.75 1533.95 478.09 1572.83 545.42"/><polygon class="cls-2" points="1340.83 546.42 1418.58 546.42 1457.45 479.09 1418.58 411.75 1340.83 411.75 1301.95 479.09 1340.83 546.42"/><polygon class="cls-2" points="1456.84 613.91 1534.59 613.91 1573.47 546.58 1534.59 479.25 1456.84 479.25 1417.97 546.58 1456.84 613.91"/><polygon class="cls-2" points="1340.84 274.67 1418.59 274.67 1457.46 207.33 1418.59 140 1340.84 140 1301.96 207.33 1340.84 274.67"/><polygon class="cls-2" points="1572.84 139.67 1650.59 139.67 1689.46 72.33 1650.59 5 1572.84 5 1533.96 72.33 1572.84 139.67"/><polygon class="cls-2" points="1804.1 1082.75 1881.85 1082.75 1920.73 1015.41 1881.85 948.08 1804.1 948.08 1765.23 1015.41 1804.1 1082.75"/><polygon class="cls-2" points="1688.12 1015.24 1765.87 1015.24 1804.74 947.9 1765.87 880.57 1688.12 880.57 1649.24 947.9 1688.12 1015.24"/><polygon class="cls-2" points="1572.11 948.24 1649.86 948.24 1688.73 880.91 1649.86 813.58 1572.11 813.58 1533.23 880.91 1572.11 948.24"/><polygon class="cls-2" points="1572.11 1083.24 1649.86 1083.24 1688.73 1015.91 1649.86 948.58 1572.11 948.58 1533.23 1015.91 1572.11 1083.24"/><polygon class="cls-2" points="1804.12 1354.73 1881.87 1354.73 1920.75 1287.4 1881.87 1220.07 1804.12 1220.07 1765.25 1287.4 1804.12 1354.73"/><polygon class="cls-2" points="1804.11 1218.24 1881.86 1218.24 1920.73 1150.91 1881.86 1083.58 1804.11 1083.58 1765.23 1150.91 1804.11 1218.24"/><polygon class="cls-2" points="1688.12 1150.73 1765.87 1150.73 1804.75 1083.4 1765.87 1016.07 1688.12 1016.07 1649.25 1083.4 1688.12 1150.73"/><polygon class="cls-2" points="1804.59 948.32 1882.34 948.32 1921.22 880.99 1882.34 813.65 1804.59 813.65 1765.72 880.99 1804.59 948.32"/><polygon class="cls-2" points="1456.59 1153.33 1534.34 1153.33 1573.22 1086 1534.34 1018.67 1456.59 1018.67 1417.72 1086 1456.59 1153.33"/><polygon class="cls-2" points="1572.56 1219.26 1650.31 1219.26 1689.18 1151.93 1650.31 1084.6 1572.56 1084.6 1533.68 1151.93 1572.56 1219.26"/><polygon class="cls-2" points="1688.55 1286.27 1766.3 1286.27 1805.17 1218.94 1766.3 1151.6 1688.55 1151.6 1649.67 1218.94 1688.55 1286.27"/><polygon class="cls-2" points="1456.55 1287.27 1534.3 1287.27 1573.17 1219.94 1534.3 1152.6 1456.55 1152.6 1417.67 1219.94 1456.55 1287.27"/><polygon class="cls-2" points="1572.56 1354.76 1650.31 1354.76 1689.19 1287.43 1650.31 1220.09 1572.56 1220.09 1533.69 1287.43 1572.56 1354.76"/><polygon class="cls-2" points="1456.56 1015.51 1534.31 1015.51 1573.18 948.18 1534.31 880.85 1456.56 880.85 1417.68 948.18 1456.56 1015.51"/><polygon class="cls-2" points="1688.56 880.51 1766.31 880.51 1805.18 813.18 1766.31 745.85 1688.56 745.85 1649.68 813.18 1688.56 880.51"/><polygon class="cls-2" points="512.11 1492.95 589.86 1492.95 628.73 1425.62 589.86 1358.28 512.11 1358.28 473.23 1425.62 512.11 1492.95"/><polygon class="cls-2" points="394.59 1426.03 472.34 1426.03 511.22 1358.69 472.34 1291.36 394.59 1291.36 355.72 1358.69 394.59 1426.03"/><polygon class="cls-2" points="512.59 1358.03 590.34 1358.03 629.22 1290.69 590.34 1223.36 512.59 1223.36 473.72 1290.69 512.59 1358.03"/><polygon class="cls-2" points="239.42 1021.18 161.67 1021.18 122.8 1088.52 161.67 1155.85 239.42 1155.85 278.3 1088.52 239.42 1021.18"/><polygon class="cls-2" points="355.41 1088.69 277.66 1088.69 238.78 1156.03 277.66 1223.36 355.41 1223.36 394.28 1156.03 355.41 1088.69"/><polygon class="cls-2" points="471.41 1155.68 393.66 1155.68 354.79 1223.02 393.66 1290.35 471.41 1290.35 510.29 1223.02 471.41 1155.68"/><polygon class="cls-2" points="471.41 1020.68 393.66 1020.68 354.79 1088.02 393.66 1155.35 471.41 1155.35 510.29 1088.02 471.41 1020.68"/><polygon class="cls-2" points="122.4 682.19 44.65 682.19 5.77 749.53 44.65 816.86 122.4 816.86 161.27 749.53 122.4 682.19"/><polygon class="cls-2" points="239.41 885.68 161.66 885.68 122.79 953.02 161.66 1020.35 239.41 1020.35 278.29 953.02 239.41 885.68"/><polygon class="cls-2" points="355.4 953.19 277.65 953.19 238.77 1020.53 277.65 1087.86 355.4 1087.86 394.27 1020.53 355.4 953.19"/><polygon class="cls-2" points="122.91 952.44 45.16 952.44 6.28 1019.77 45.16 1087.11 122.91 1087.11 161.78 1019.77 122.91 952.44"/><polygon class="cls-2" points="122.91 1086.44 45.16 1086.44 6.28 1153.77 45.16 1221.11 122.91 1221.11 161.78 1153.77 122.91 1086.44"/><polygon class="cls-2" points="122.93 1220.61 45.18 1220.61 6.3 1287.94 45.18 1355.28 122.93 1355.28 161.81 1287.94 122.93 1220.61"/><polygon class="cls-2" points="238.93 1155.61 161.18 1155.61 122.31 1222.94 161.18 1290.28 238.93 1290.28 277.81 1222.94 238.93 1155.61"/><polygon class="cls-2" points="122.93 816.6 45.18 816.6 6.3 883.93 45.18 951.26 122.93 951.26 161.81 883.93 122.93 816.6"/><polygon class="cls-2" points="470.97 884.67 393.22 884.67 354.34 952 393.22 1019.33 470.97 1019.33 509.84 952 470.97 884.67"/><polygon class="cls-2" points="354.98 817.66 277.23 817.66 238.35 884.99 277.23 952.33 354.98 952.33 393.85 884.99 354.98 817.66"/><polygon class="cls-2" points="586.98 816.66 509.23 816.66 470.35 883.99 509.23 951.33 586.98 951.33 625.85 883.99 586.98 816.66"/><polygon class="cls-2" points="470.96 749.17 393.21 749.17 354.33 816.5 393.21 883.84 470.96 883.84 509.83 816.5 470.96 749.17"/><polygon class="cls-2" points="586.97 1088.41 509.22 1088.41 470.34 1155.75 509.22 1223.08 586.97 1223.08 625.84 1155.75 586.97 1088.41"/><polygon class="cls-2" points="354.97 1223.41 277.22 1223.41 238.34 1290.75 277.22 1358.08 354.97 1358.08 393.84 1290.75 354.97 1223.41"/><polygon class="cls-2" points="123.7 280.33 45.95 280.33 7.08 347.67 45.95 415 123.7 415 162.58 347.67 123.7 280.33"/><polygon class="cls-2" points="239.69 347.84 161.94 347.84 123.06 415.18 161.94 482.51 239.69 482.51 278.56 415.18 239.69 347.84"/><polygon class="cls-2" points="355.69 414.84 277.94 414.84 239.07 482.17 277.94 549.5 355.69 549.5 394.57 482.17 355.69 414.84"/><polygon class="cls-2" points="355.69 279.84 277.94 279.84 239.07 347.17 277.94 414.5 355.69 414.5 394.57 347.17 355.69 279.84"/><polygon class="cls-2" points="123.68 8.35 45.93 8.35 7.05 75.68 45.93 143.01 123.68 143.01 162.55 75.68 123.68 8.35"/><polygon class="cls-2" points="123.69 144.84 45.94 144.84 7.07 212.17 45.94 279.5 123.69 279.5 162.57 212.17 123.69 144.84"/><polygon class="cls-2" points="239.68 212.35 161.93 212.35 123.05 279.68 161.93 347.01 239.68 347.01 278.55 279.68 239.68 212.35"/><polygon class="cls-2" points="123.21 414.76 45.46 414.76 6.59 482.09 45.46 549.43 123.21 549.43 162.09 482.09 123.21 414.76"/><polygon class="cls-2" points="471.21 209.75 393.46 209.75 354.59 277.08 393.46 344.41 471.21 344.41 510.09 277.08 471.21 209.75"/><polygon class="cls-2" points="355.25 143.82 277.5 143.82 238.62 211.15 277.5 278.48 355.25 278.48 394.12 211.15 355.25 143.82"/><polygon class="cls-2" points="239.25 76.81 161.5 76.81 122.63 144.14 161.5 211.48 239.25 211.48 278.13 144.14 239.25 76.81"/><polygon class="cls-2" points="471.25 75.81 393.5 75.81 354.63 143.14 393.5 210.48 471.25 210.48 510.13 143.14 471.25 75.81"/><polygon class="cls-2" points="355.24 8.32 277.49 8.32 238.62 75.65 277.49 142.99 355.24 142.99 394.12 75.65 355.24 8.32"/><polygon class="cls-2" points="471.25 347.56 393.5 347.56 354.62 414.9 393.5 482.23 471.25 482.23 510.12 414.9 471.25 347.56"/><polygon class="cls-2" points="239.25 482.56 161.5 482.56 122.62 549.9 161.5 617.23 239.25 617.23 278.12 549.9 239.25 482.56"/><polygon class="cls-2" points="161.58 1426.39 239.33 1426.39 278.21 1359.06 239.33 1291.72 161.58 1291.72 122.71 1359.06 161.58 1426.39"/><polygon class="cls-2" points="1052.99 1088.16 975.24 1088.16 936.37 1155.49 975.24 1222.82 1052.99 1222.82 1091.87 1155.49 1052.99 1088.16"/><polygon class="cls-2" points="819.98 1087.67 742.23 1087.67 703.35 1155 742.23 1222.33 819.98 1222.33 858.85 1155 819.98 1087.67"/><polygon class="cls-2" points="935.99 1154.66 858.24 1154.66 819.36 1221.99 858.24 1289.33 935.99 1289.33 974.86 1221.99 935.99 1154.66"/><polygon class="cls-2" points="935.99 1019.66 858.24 1019.66 819.36 1086.99 858.24 1154.33 935.99 1154.33 974.86 1086.99 935.99 1019.66"/><polygon class="cls-2" points="935.97 880.17 858.22 880.17 819.34 947.5 858.22 1014.84 935.97 1014.84 974.84 947.5 935.97 880.17"/><polygon class="cls-2" points="1052.98 952.66 975.24 952.66 936.36 1019.99 975.24 1087.33 1052.98 1087.33 1091.86 1019.99 1052.98 952.66"/><polygon class="cls-2" points="819.97 952.17 742.22 952.17 703.34 1019.5 742.22 1086.84 819.97 1086.84 858.84 1019.5 819.97 952.17"/><g id="Robot"><g id="Bee_1" data-name="Bee 1"><path class="cls-3" d="M497.76,548.09c13.27-9.36,60-39.64,104.71-36.17a6.64,6.64,0,0,1,6.12,6.63h0a6.61,6.61,0,0,0,4.58,6.31c11.42,3.66,40.69,15,47.24,36.84,0,0,13.46,18.85-45.22,40.49a6.49,6.49,0,0,0-1.93,1.1c-5.85,4.9-44.22,33.78-102.93,3.45a6.68,6.68,0,0,1-3.37-4.3l-11.83-47.31A6.64,6.64,0,0,1,497.76,548.09Z"/><path class="cls-4" d="M442.13,586.45l39.77-18.72a1.16,1.16,0,0,1,1.61.74l4.68,16.37a1.16,1.16,0,0,1-1.05,1.48l-44.46,2.34A1.16,1.16,0,0,1,442.13,586.45Z"/><path class="cls-5" d="M554.72,503.93,522.24,366.5a2.79,2.79,0,0,1,3-3.41l82.46,10a2.78,2.78,0,0,1,2.25,3.78L560,504.31A2.79,2.79,0,0,1,554.72,503.93Z"/><path class="cls-5" d="M546.67,509.9l-43.78-61.81a2.85,2.85,0,0,0-1.79-1.15l-52.43-10A2.86,2.86,0,0,0,445.3,440l4.93,54.22a2.86,2.86,0,0,0,2.15,2.51l84.28,21.07a2.86,2.86,0,0,0,2-.22l7-3.49A2.86,2.86,0,0,0,546.67,509.9Z"/><path class="cls-4" d="M560.85,511.64s60.14-33.39,29.4-84.39C590.25,427.25,537.65,415.22,560.85,511.64Z"/><path class="cls-4" d="M548.59,518.06s-35.45-76.36-60-65.45,8.18,51.82,8.18,51.82S513.14,531.7,548.59,518.06Z"/></g><path class="cls-6" d="M604.31,609.41C597.87,555.93,559,517.5,559,517.5L578.34,513s34.4,30.88,32.4,91.88Z"/><path class="cls-6" d="M516.12,536.43l12.15-6.52s32.86,35.73,16.17,88.85l-10.29-3S543.5,567,516.12,536.43Z"/></g><g id="Small_Bee_1" data-name="Small Bee 1"><path class="cls-3" d="M179.05,1408.59l62.61,19.33,11.46,49.25s-57.54,1.29-80-24.69Z"/><path class="cls-4" d="M204.47,1412.63s-9.36-6.7-3.68-62.09l48.17-8Z"/><path class="cls-5" d="M216,1412.37s31.35-39.84,43.37-17.08S216,1412.37,216,1412.37Z"/><path class="cls-6" d="M204.7,1416.51l16.46,5.08s16.75,27.05,1.05,53.09L209,1472S213.58,1432.35,204.7,1416.51Z"/></g><path class="cls-3" d="M1391.27,771.37s-27,1.92-11.56-21.2c0,0,27.93-35.64,60.69-35.64,21.61,0,20.57,14.27,17.36,24a23.23,23.23,0,0,1-10.46,12.74C1434.59,758.63,1405.72,770.4,1391.27,771.37Z"/><path class="cls-5" d="M1400.89,725.67l-54.08-23.44a2.21,2.21,0,0,1-.8-3.47l45.54-57.1a2.22,2.22,0,0,1,3.74.62L1420.76,706a2.22,2.22,0,0,1,.16.72l.36,8a2.22,2.22,0,0,1-1.18,2.07l-17.3,8.9A2.21,2.21,0,0,1,1400.89,725.67Z"/><path class="cls-5" d="M1422.9,712.78l-3.46-37a1.76,1.76,0,0,1,.12-.85l5.86-15.11a1.9,1.9,0,0,1,3-.77l20.15,16.71a1.88,1.88,0,0,1,.39,2.47l-22.57,35.37A1.88,1.88,0,0,1,1422.9,712.78Z"/><path class="cls-4" d="M1408.61,720.75l-10.14-30.44a4.19,4.19,0,0,0-5.88-2.43c-7.37,3.83-20.21,14.77-9.07,41.91a4.22,4.22,0,0,0,6,2.08Z"/><path class="cls-4" d="M1415.35,716.46s-3.85-34.68,23.12-50.1c0,0,14.25-7.91,11.17,17.88a32.44,32.44,0,0,1-9,19A45.89,45.89,0,0,1,1415.35,716.46Z"/><path class="cls-6" d="M1417.08,720.32l11.35-4s19.72,16.54,18.21,35.31l-5.53,2.74S1430,722.16,1417.08,720.32Z"/><path class="cls-6" d="M1386.14,743l8.91-8.63s18.9,11.9,16.69,32.71l-6,1.4S1397.26,742.91,1386.14,743Z"/><path class="cls-4" d="M1488.9,707.44l-22.67,18.64a.78.78,0,0,1-1.16-.21l-5.72-9.83a.78.78,0,0,1,.44-1.13l28.39-8.8A.77.77,0,0,1,1488.9,707.44Z"/><path class="cls-3" d="M1772.77,1440.12s26.12-5.18,4-17.59c0,0-38.07-18.11-69-10.19-20.42,5.23-14.76,14.93-8.55,20.93a25.49,25.49,0,0,0,14,6.36C1727.66,1441.71,1758.8,1442.94,1772.77,1440.12Z"/><path class="cls-5" d="M1748.71,1410.56l43.42-29.44c1.1-.74.91-2.06-.38-2.62L1730,1349.68c-1.44-.63-3.25.1-3.33,1.33l-3.21,50.6a1.26,1.26,0,0,0,.09.54l2.26,5.64a2.1,2.1,0,0,0,1.79,1.15l19.26,2A2.82,2.82,0,0,0,1748.71,1410.56Z"/><path class="cls-5" d="M1723.7,1406.89l-8.85-26.64a1.27,1.27,0,0,0-.39-.57l-10.49-9.13a2.31,2.31,0,0,0-3,.18l-13.58,16.54a1.16,1.16,0,0,0,.45,1.81l32.9,19.23C1722.1,1409.13,1724.12,1408.18,1723.7,1406.89Z"/><path class="cls-4" d="M1739.8,1409l-.38-23.7c0-1.89,2.22-3.39,4.76-3.11,8.21.89,23.92,5.42,22.29,27-.14,1.9-2.49,3.28-5,2.91Z"/><path class="cls-4" d="M1732,1407.63s-7.72-25.14-38.25-29.37c0,0-16.06-2.08-4.7,15.18a29.52,29.52,0,0,0,14.75,11.07A60.3,60.3,0,0,0,1732,1407.63Z"/><path class="cls-6" d="M1731.66,1410.74l-12,0s-13.22,16.32-5.64,29l6.12.58S1720,1415.16,1731.66,1410.74Z"/><path class="cls-6" d="M1768.31,1419.06l-11.24-3.86s-14,12.87-5.06,26.86l6.09-.47S1757.79,1421.71,1768.31,1419.06Z"/><path class="cls-4" d="M1659.59,1419.13l27.52,7.52a.83.83,0,0,0,1-.43l2.18-8.24c.09-.36-.29-.69-.79-.68l-29.7.72C1659,1418,1658.79,1418.91,1659.59,1419.13Z"/><g id="Small_Bee_1-2" data-name="Small Bee 1"><path class="cls-3" d="M299.05,214.76,233.71,210l-28.62,41.69s53.11,22.16,83.49,6.15Z"/><path class="cls-4" d="M273.91,209.26s11.16-2.83,26.06-56.48l-42-25Z"/><path class="cls-5" d="M263.29,204.83s-14.68-48.53-34.17-31.72S263.29,204.83,263.29,204.83Z"/><path class="cls-6" d="M272.28,212.79l-17.18-1.27s-25.45,19.09-20.32,49.06l13.28,2.33S258.25,224.3,272.28,212.79Z"/></g></g></g></g></svg>