<svg xmlns="http://www.w3.org/2000/svg" viewBox="0 0 2200.64 2846.48"><defs><style>.cls-1{opacity:0.45;}.cls-2{fill:#0cc0d4;}.cls-3,.cls-8{fill:none;stroke:#078fda;}.cls-3{stroke-linecap:round;stroke-linejoin:round;stroke-width:5px;}.cls-4{fill:#078fda;}.cls-5{fill:#fdcd49;}.cls-6{fill:#f76f26;}.cls-7{opacity:0.5;}.cls-8{stroke-miterlimit:10;stroke-width:10px;}</style></defs><title>robotbackground</title><g id="Layer_4" data-name="Layer 4" class="cls-1"><g id="Robot"><path class="cls-2" d="M1616.57,1328.44s-31,19.09-31,62c0,0-41.28-3-19.09-50.12C1585.54,1299.8,1616.57,1328.44,1616.57,1328.44Z" transform="translate(128.49 -195.52)"/><path class="cls-2" d="M1945.2,1499.72l-8.38,12.57a2.79,2.79,0,0,0,.78,3.88c3.56,2.37,11.1,5.73,20.11.09a4.35,4.35,0,0,0,1.83-4.9c-1.26-4.27-4.29-11.64-10.58-13.21A3.56,3.56,0,0,0,1945.2,1499.72Z" transform="translate(128.49 -195.52)"/><path class="cls-3" d="M1462.62,876.82c-10.68,173.36,4.27,437.75-2.36,471.91-4.31,22.22-11.8,48.94-7.16,85.9,2.52,20.06,6.76,28.45,4.77,47.73-3.06,29.69-15.94,37.18-14.32,57.27,1.94,23.89,21.84,34.18,33.41,50.12,16.32,22.47,22.5,65-19.09,152.72" transform="translate(128.49 -195.52)"/><path class="cls-2" d="M1820.42,1249.24,1764.71,1352a.39.39,0,0,0,.17.53l8.83,4.42a.38.38,0,0,0,.52-.19L1823,1250.52A1.43,1.43,0,0,0,1820.42,1249.24Z" transform="translate(128.49 -195.52)"/><path class="cls-2" d="M1829,1311.74s-7.16,23.86-50.11-16.71a135.69,135.69,0,0,1-11-11.39,12.81,12.81,0,0,0-7.65-4.46c-5.55-1-13.18-.75-10,8.69,4.78,14.32,33.41,26.25,33.41,26.25S1826.57,1338,1829,1311.74Z" transform="translate(128.49 -195.52)"/><path class="cls-2" d="M1831.34,1292.65s-14.32,16.7-45.34-7.16-16.71-26.25-16.71-26.25c4.78-2.39,11.93,4.77,11.93,4.77l11.94,14.32S1812.25,1299.8,1831.34,1292.65Z" transform="translate(128.49 -195.52)"/><path class="cls-2" d="M1796.83,1257.87s-7.67-6.76-1.92-8.55,15,7.54,15,7.54S1815.69,1268.79,1796.83,1257.87Z" transform="translate(128.49 -195.52)"/><circle class="cls-2" cx="1955.06" cy="1030.31" r="7.16"/><path class="cls-2" d="M2072.11,2037.86l-11.35-77.18a3.45,3.45,0,0,0-2.52-2.83l-85.33-23.06a3.66,3.66,0,0,1-1.39-.74c-114.52-99.49-109.68-203.24-108.39-217.7a3.43,3.43,0,0,1,1.62-2.58c6.69-4.26,13.14-10.78,19.09-20.22,39.43-62.62-20.33-82.41-23.72-83.47a1.47,1.47,0,0,0-.3-.08l-32.28-6.92a3.45,3.45,0,0,0-1.91.13l-21.71,7.9a3.45,3.45,0,0,1-4.53-2.41l-1-4.11a3.45,3.45,0,0,0-2.07-2.37L1716,1570.1a3.41,3.41,0,0,1-2.11-2.5c-2.06-11.3,9.55-37.13,13.54-45.55a3.44,3.44,0,0,1,4.16-1.8l93.85,29.76a3.28,3.28,0,0,0,2.25,0c12.53-5.08,39.7-29.43,48.54-37.53a3.46,3.46,0,0,1,4.87.25c5.36,5.68,15.68,6.52,18.64,6.65a3.52,3.52,0,0,0,1.57-.3c3.61-1.62,19.18-9.68,25.49-30.7,5.65-18.84-14-27.27-22.49-30a3.44,3.44,0,0,1-2.12-4.6c9.94-23.73-.68-43.52-3.41-48a3.45,3.45,0,0,0-1.61-1.36l-222.38-92.26a3.54,3.54,0,0,0-2-.22c-92.43,16.18-80,120.43-78,134.32a3.49,3.49,0,0,0,1.52,2.37l86.67,57a3.43,3.43,0,0,1,1.25,4.28c-3.65,8.2-8,31.51-9.72,41.07a3.44,3.44,0,0,1-4.68,2.59l-30.8-12.32a3.42,3.42,0,0,0-2.12-.14l-7.49,1.87a3.52,3.52,0,0,1-1.93-.07l-48.42-16.15a3.54,3.54,0,0,0-1.51-.16c-19.21,2.08-29.28,15.7-33.13,22.43a3.47,3.47,0,0,1-5.33.9c-42.78-38.68-59.29-179.7-60.87-194.05a3.4,3.4,0,0,1,.52-2.19l38.42-61a3.45,3.45,0,0,0-.53-4.33l-50-47.79a3.45,3.45,0,0,0-5.2.5l-48.42,68.22a3.45,3.45,0,0,0,.5,4.55l46.85,42.39a3.4,3.4,0,0,1,1.11,2.25c13.64,151.53,64.73,219.35,70.87,227a3.38,3.38,0,0,1,.72,1.72c.7,5.94,4.61,37.15,9.43,42,3.09,3.09,10.19,3.18,14.8,2.86a3.43,3.43,0,0,1,3.64,3.76c-3.48,35.9,25,159,28.86,175.34a3.42,3.42,0,0,1-.86,3.15l-42.24,44.46a3.44,3.44,0,0,0-.45,4.16l51.74,85.49a3.45,3.45,0,0,0,4.73,1.17l2.23-1.33a3.44,3.44,0,0,1,5.19,3.38c-4.67,35.93,10.57,136.17,13.14,152.56a3.45,3.45,0,0,1-1.64,3.47l-7.56,4.54a3.45,3.45,0,0,0-1.5,4l15.49,46.46a3.42,3.42,0,0,0,1.2,1.67L1637,2170a3.39,3.39,0,0,1,1.31,2.07l28.17,138.5a3.44,3.44,0,0,1-.19,2c-7.59,18.88-2.45,26,1.61,28.59a3.44,3.44,0,0,1,.89,5l-54.77,72.3a3.46,3.46,0,0,0,.83,5l50.81,33.87a3.45,3.45,0,0,0,5.07-1.49l24.34-55.3a3.3,3.3,0,0,0,.28-1.24l2.34-53.66a3.41,3.41,0,0,0-.15-1.14l-6.83-22.79a3.23,3.23,0,0,0-.46-.93c-13.5-19.61-29-149.46-30.59-163.09a3.42,3.42,0,0,1,.48-2.16l5.83-9.72a3.44,3.44,0,0,0,.39-2.57l-10.73-45.08a3.44,3.44,0,0,0-4.45-2.47,3.45,3.45,0,0,1-4.46-2.48c-17.31-74.76,3.78-162.48,9.21-182.86a3.43,3.43,0,0,1,5-2.11c23.82,13,59,8,70.89,5.73a3.45,3.45,0,0,1,4.09,3.39v35.38a3.4,3.4,0,0,0,.5,1.78l5.58,9.31a3.45,3.45,0,0,1,.22,3.24c-7.89,16.47-8.61,114.17-8.68,131.84a3.42,3.42,0,0,1-2.7,3.34l-16.08,3.57a3.46,3.46,0,0,0-2.7,3.37V2145a3.45,3.45,0,0,0,1.74,3l12.42,7.09a3.48,3.48,0,0,1,1.61,3.92c-6.24,23.73,14.78,145.82,17.38,160.71a3.55,3.55,0,0,1-.68,2.7c-8,10.89.24,20.21,4,23.64a3.44,3.44,0,0,1,1,3.62l-25.17,77.8a3.48,3.48,0,0,0,0,2.21l13,37a3.46,3.46,0,0,0,3.55,2.29l51.2-4.27a3.45,3.45,0,0,0,3.16-3.7l-9.1-120.57a3.46,3.46,0,0,0-2.61-3.09l-5.66-1.42a3.43,3.43,0,0,1-2.2-1.68c-27.74-50.79-32.07-157.3-32.61-175.11a3.42,3.42,0,0,1,2.36-3.36l9.65-3.22a3.45,3.45,0,0,0,2.36-3.1l2.14-42.91a3.45,3.45,0,0,0-2.16-3.38l-7.55-3a3.44,3.44,0,0,1-2.18-3.08c-1.42-45.72,16-109.72,20.51-125.42a3.45,3.45,0,0,1,4.53-2.28l12.83,4.81a3.45,3.45,0,0,0,4.23-1.56l45.26-81.46a3.46,3.46,0,0,0-.15-3.6l-31.21-46.82a3.46,3.46,0,0,0-2.88-1.54h-7.67a3.45,3.45,0,0,1-3.26-4.55c18.54-56.21,18.33-102.19,17.78-115.58a3.44,3.44,0,0,1,3.79-3.56l16.22,1.63a3.44,3.44,0,0,1,3,4c-17.13,117.06,118.52,222.59,130.92,232a3.39,3.39,0,0,1,1.23,1.8l18.24,63.84a3.46,3.46,0,0,0,2.39,2.37l82.11,22.81a3.45,3.45,0,0,0,3.36-.88l2.12-2.13A3.42,3.42,0,0,0,2072.11,2037.86Zm-605.59-710.09c-9.66,0-17.5-12.31-17.5-27.5s7.84-27.5,17.5-27.5,17.5,12.32,17.5,27.5S1476.19,1327.77,1466.52,1327.77Zm573.54,682.82c-7.14,6.51-21.23,2.7-31.47-8.52s-12.74-25.6-5.6-32.11,21.22-2.7,31.46,8.52S2047.2,2004.08,2040.06,2010.59Z" transform="translate(128.49 -195.52)"/><ellipse class="cls-4" cx="1679.49" cy="1373.01" rx="19.09" ry="10.24" transform="translate(-180.14 2045.36) rotate(-62.85)"/><ellipse class="cls-4" cx="1776.72" cy="1411.78" rx="17.84" ry="10.24" transform="translate(-161.78 2152.95) rotate(-62.85)"/><rect class="cls-4" x="1637.44" y="1648.84" width="83.2" height="83.2" transform="translate(-570.17 1342.28) rotate(-41.52)"/><ellipse class="cls-4" cx="1709.43" cy="1662.61" rx="40.75" ry="42.03" transform="translate(-40.92 -1.37) rotate(-6.19)"/><ellipse class="cls-4" cx="1651.35" cy="1658.4" rx="40.75" ry="42.03" transform="translate(-174.93 175.98) rotate(-11.76)"/><path class="cls-4" d="M1689,1442.82l4.4-1.47a1.41,1.41,0,0,1,1.15.12L1713,1452a1.43,1.43,0,0,0,.7.18h6.46a1.43,1.43,0,0,1,1.43,1.43v.08a3.8,3.8,0,0,1-3.63,3.8l-4.26.19a1.56,1.56,0,0,1-.71-.15l-24.12-12.07A1.42,1.42,0,0,1,1689,1442.82Z" transform="translate(128.49 -195.52)"/><g id="Bee_1" data-name="Bee 1"><path class="cls-5" d="M1397,796.2c13.27-9.36,60-39.64,104.72-36.17a6.66,6.66,0,0,1,6.12,6.64h0a6.62,6.62,0,0,0,4.58,6.31c11.41,3.65,40.69,15,47.24,36.83,0,0,13.46,18.85-45.22,40.49a6.71,6.71,0,0,0-1.93,1.1c-5.86,4.91-44.22,33.79-102.93,3.45a6.66,6.66,0,0,1-3.37-4.29l-11.83-47.32A6.64,6.64,0,0,1,1397,796.2Z" transform="translate(128.49 -195.52)"/><path class="cls-4" d="M1341.39,834.57l39.77-18.72a1.15,1.15,0,0,1,1.61.73l4.68,16.38a1.16,1.16,0,0,1-1,1.48l-44.46,2.33A1.15,1.15,0,0,1,1341.39,834.57Z" transform="translate(128.49 -195.52)"/><path class="cls-2" d="M1454,752,1421.5,614.61a2.78,2.78,0,0,1,3-3.4l82.45,10a2.78,2.78,0,0,1,2.26,3.78l-50,127.44A2.79,2.79,0,0,1,1454,752Z" transform="translate(128.49 -195.52)"/><path class="cls-2" d="M1445.93,758l-43.78-61.8a2.86,2.86,0,0,0-1.79-1.16l-52.43-10a2.85,2.85,0,0,0-3.37,3.06l4.93,54.21a2.84,2.84,0,0,0,2.15,2.51l84.28,21.07a2.86,2.86,0,0,0,2-.21l7-3.5A2.85,2.85,0,0,0,1445.93,758Z" transform="translate(128.49 -195.52)"/><path class="cls-4" d="M1460.11,759.75s60.14-33.38,29.4-84.39C1489.51,675.36,1436.91,663.33,1460.11,759.75Z" transform="translate(128.49 -195.52)"/><path class="cls-4" d="M1447.85,766.18s-35.45-76.37-60-65.46,8.18,51.82,8.18,51.82S1412.4,779.81,1447.85,766.18Z" transform="translate(128.49 -195.52)"/></g><path class="cls-6" d="M1503.56,857.52c-6.43-53.47-45.29-91.91-45.29-91.91l19.33-4.49S1512,792,1510,853Z" transform="translate(128.49 -195.52)"/><path class="cls-6" d="M1415.38,784.54l12.15-6.52s32.86,35.74,16.16,88.86l-10.28-3.06S1442.76,815.09,1415.38,784.54Z" transform="translate(128.49 -195.52)"/><circle class="cls-4" cx="1590.79" cy="682.16" r="4.77"/><path class="cls-3" d="M1462.3,875.3s36.2-63.8-3.8-109.8" transform="translate(128.49 -195.52)"/><line class="cls-3" x1="1591.98" y1="678.58" x2="1582.99" y2="672.98"/><path class="cls-3" d="M1463.49,878.87s19.09,2.39,38.18,47.73" transform="translate(128.49 -195.52)"/><path class="cls-3" d="M1460.6,878.87s-13.81-4.77-13.81,47.73" transform="translate(128.49 -195.52)"/><path class="cls-4" d="M1484.12,872.89c-11.58-2.34-21.48-1.61-22.14,1.62s8.2,7.74,19.78,10.07,21.48,1.62,22.13-1.61S1495.69,875.22,1484.12,872.89Zm-1.37,9.12c-6.8-1.37-12-3.82-11.72-5.46s6.11-1.85,12.92-.48,12.06,3.82,11.73,5.46S1489.56,883.39,1482.75,882Z" transform="translate(128.49 -195.52)"/><path class="cls-4" d="M1441.52,871.54c-11.16.93-20,4.34-19.72,7.63s9.54,5.19,20.71,4.26,20-4.34,19.72-7.62S1452.69,870.62,1441.52,871.54Zm-.31,8.54c-7.15.59-13.07-.27-13.2-1.92s5.55-3.47,12.7-4.06,13.07.26,13.21,1.91S1448.37,879.48,1441.21,880.08Z" transform="translate(128.49 -195.52)"/></g><g class="cls-7"><polygon class="cls-8" points="172.12 1135.18 94.37 1135.18 55.49 1202.51 94.37 1269.84 172.12 1269.84 210.99 1202.51 172.12 1135.18"/><polygon class="cls-8" points="288.1 1202.69 210.35 1202.69 171.48 1270.02 210.35 1337.35 288.1 1337.35 326.98 1270.02 288.1 1202.69"/><polygon class="cls-8" points="288.11 1336.93 210.36 1336.93 171.48 1404.27 210.36 1471.6 288.11 1471.6 326.98 1404.27 288.11 1336.93"/><polygon class="cls-8" points="404.09 1539.44 326.34 1539.44 287.47 1606.78 326.34 1674.11 404.09 1674.11 442.97 1606.78 404.09 1539.44"/><polygon class="cls-8" points="172.11 1404.93 94.36 1404.93 55.48 1472.27 94.36 1539.6 172.11 1539.6 210.98 1472.27 172.11 1404.93"/><polygon class="cls-8" points="172.09 1269.44 94.34 1269.44 55.47 1336.78 94.34 1404.11 172.09 1404.11 210.97 1336.78 172.09 1269.44"/><polygon class="cls-8" points="404.11 1269.68 326.36 1269.68 287.48 1337.01 326.36 1404.35 404.11 1404.35 442.98 1337.01 404.11 1269.68"/><polygon class="cls-8" points="404.11 1134.68 326.36 1134.68 287.48 1202.01 326.36 1269.35 404.11 1269.35 442.98 1202.01 404.11 1134.68"/><polygon class="cls-8" points="520.09 1202.19 442.34 1202.19 403.47 1269.52 442.34 1336.86 520.09 1336.86 558.97 1269.52 520.09 1202.19"/><polygon class="cls-8" points="172.11 999.68 94.36 999.68 55.48 1067.01 94.36 1134.35 172.11 1134.35 210.98 1067.01 172.11 999.68"/><polygon class="cls-8" points="288.19 1472.08 210.44 1472.08 171.56 1539.41 210.44 1606.75 288.19 1606.75 327.06 1539.41 288.19 1472.08"/><polygon class="cls-8" points="636.18 1405.08 558.43 1405.08 519.56 1472.41 558.43 1539.75 636.18 1539.75 675.06 1472.41 636.18 1405.08"/><polygon class="cls-8" points="636.32 1134.88 558.57 1134.88 519.7 1202.22 558.57 1269.55 636.32 1269.55 675.2 1202.22 636.32 1134.88"/></g><g class="cls-7"><polygon class="cls-8" points="1755.12 2437.55 1677.37 2437.55 1638.49 2504.88 1677.37 2572.22 1755.12 2572.22 1793.99 2504.88 1755.12 2437.55"/><polygon class="cls-8" points="1871.1 2505.06 1793.35 2505.06 1754.48 2572.39 1793.35 2639.73 1871.1 2639.73 1909.98 2572.39 1871.1 2505.06"/><polygon class="cls-8" points="1987.09 2706.82 1909.34 2706.82 1870.47 2774.15 1909.34 2841.48 1987.09 2841.48 2025.97 2774.15 1987.09 2706.82"/><polygon class="cls-8" points="1755.09 2571.82 1677.34 2571.82 1638.47 2639.15 1677.34 2706.48 1755.09 2706.48 1793.97 2639.15 1755.09 2571.82"/><polygon class="cls-8" points="1987.11 2572.05 1909.36 2572.05 1870.48 2639.39 1909.36 2706.72 1987.11 2706.72 2025.98 2639.39 1987.11 2572.05"/><polygon class="cls-8" points="2103.09 2639.56 2025.34 2639.56 1986.47 2706.9 2025.34 2774.23 2103.09 2774.23 2141.97 2706.9 2103.09 2639.56"/><polygon class="cls-8" points="1987.11 2437.05 1909.36 2437.05 1870.48 2504.39 1909.36 2571.72 1987.11 2571.72 2025.98 2504.39 1987.11 2437.05"/><polygon class="cls-8" points="2103.09 2504.56 2025.34 2504.56 1986.47 2571.9 2025.34 2639.23 2103.09 2639.23 2141.97 2571.9 2103.09 2504.56"/><polygon class="cls-8" points="2103.11 2370.05 2025.36 2370.05 1986.48 2437.39 2025.36 2504.72 2103.11 2504.72 2141.98 2437.39 2103.11 2370.05"/><polygon class="cls-8" points="1871.09 2369.56 1793.34 2369.56 1754.47 2436.9 1793.34 2504.23 1871.09 2504.23 1909.97 2436.9 1871.09 2369.56"/></g><g class="cls-7"><polygon class="cls-8" points="146.41 2389.15 68.66 2389.15 29.78 2456.49 68.66 2523.82 146.41 2523.82 185.28 2456.49 146.41 2389.15"/><polygon class="cls-8" points="262.39 2456.66 184.64 2456.66 145.77 2524 184.64 2591.33 262.39 2591.33 301.27 2524 262.39 2456.66"/><polygon class="cls-8" points="262.4 2590.91 184.65 2590.91 145.77 2658.24 184.65 2725.57 262.4 2725.57 301.27 2658.24 262.4 2590.91"/><polygon class="cls-8" points="378.38 2658.42 300.63 2658.42 261.76 2725.75 300.63 2793.09 378.38 2793.09 417.26 2725.75 378.38 2658.42"/><polygon class="cls-8" points="146.4 2658.91 68.65 2658.91 29.77 2726.24 68.65 2793.57 146.4 2793.57 185.27 2726.24 146.4 2658.91"/><polygon class="cls-8" points="146.38 2523.42 68.63 2523.42 29.76 2590.75 68.63 2658.09 146.38 2658.09 185.26 2590.75 146.38 2523.42"/><polygon class="cls-8" points="378.4 2523.66 300.65 2523.66 261.77 2590.99 300.65 2658.32 378.4 2658.32 417.27 2590.99 378.4 2523.66"/><polygon class="cls-8" points="494.38 2591.16 416.63 2591.16 377.76 2658.5 416.63 2725.83 494.38 2725.83 533.26 2658.5 494.38 2591.16"/><polygon class="cls-8" points="378.4 2388.66 300.65 2388.66 261.77 2455.99 300.65 2523.32 378.4 2523.32 417.27 2455.99 378.4 2388.66"/><polygon class="cls-8" points="238.38 1885.16 160.63 1885.16 121.76 1952.5 160.63 2019.83 238.38 2019.83 277.26 1952.5 238.38 1885.16"/><polygon class="cls-8" points="122.4 1810.65 44.65 1810.65 5.77 1877.99 44.65 1945.32 122.4 1945.32 161.27 1877.99 122.4 1810.65"/><polygon class="cls-8" points="354.38 1952.16 276.63 1952.16 237.76 2019.5 276.63 2086.83 354.38 2086.83 393.26 2019.5 354.38 1952.16"/><polygon class="cls-8" points="238.4 2019.65 160.65 2019.65 121.77 2086.99 160.65 2154.32 238.4 2154.32 277.27 2086.99 238.4 2019.65"/><polygon class="cls-8" points="262.38 2321.16 184.63 2321.16 145.76 2388.5 184.63 2455.83 262.38 2455.83 301.26 2388.5 262.38 2321.16"/></g><g class="cls-7"><polygon class="cls-8" points="1745.24 342.55 1667.49 342.55 1628.61 409.88 1667.49 477.22 1745.24 477.22 1784.11 409.88 1745.24 342.55"/><polygon class="cls-8" points="1861.22 410.06 1783.47 410.06 1744.6 477.39 1783.47 544.73 1861.22 544.73 1900.1 477.39 1861.22 410.06"/><polygon class="cls-8" points="1977.21 611.82 1899.46 611.82 1860.59 679.15 1899.46 746.48 1977.21 746.48 2016.09 679.15 1977.21 611.82"/><polygon class="cls-8" points="1977.23 477.05 1899.48 477.05 1860.61 544.39 1899.48 611.72 1977.23 611.72 2016.11 544.39 1977.23 477.05"/><polygon class="cls-8" points="2093.22 544.56 2015.46 544.56 1976.59 611.9 2015.46 679.23 2093.22 679.23 2132.09 611.9 2093.22 544.56"/><polygon class="cls-8" points="1977.23 342.05 1899.48 342.05 1860.61 409.39 1899.48 476.72 1977.23 476.72 2016.11 409.39 1977.23 342.05"/><polygon class="cls-8" points="2093.22 409.56 2015.46 409.56 1976.59 476.9 2015.46 544.23 2093.22 544.23 2132.09 476.9 2093.22 409.56"/><polygon class="cls-8" points="2093.23 275.05 2015.48 275.05 1976.61 342.39 2015.48 409.72 2093.23 409.72 2132.11 342.39 2093.23 275.05"/><polygon class="cls-8" points="1980.21 72.56 1902.46 72.56 1863.59 139.9 1902.46 207.23 1980.21 207.23 2019.09 139.9 1980.21 72.56"/><polygon class="cls-8" points="1745.23 207.05 1667.48 207.05 1628.61 274.39 1667.48 341.72 1745.23 341.72 1784.11 274.39 1745.23 207.05"/><polygon class="cls-8" points="1861.21 274.56 1783.46 274.56 1744.59 341.9 1783.46 409.23 1861.21 409.23 1900.09 341.9 1861.21 274.56"/><polygon class="cls-8" points="2093.56 5 2015.81 5 1976.93 72.33 2015.81 139.67 2093.56 139.67 2132.43 72.33 2093.56 5"/></g><g class="cls-7"><polygon class="cls-8" points="89.97 275.64 167.72 275.64 206.6 342.98 167.72 410.31 89.97 410.31 51.1 342.98 89.97 275.64"/><polygon class="cls-8" points="86.99 6.16 164.74 6.16 203.62 73.49 164.74 140.82 86.99 140.82 48.12 73.49 86.99 6.16"/><polygon class="cls-8" points="205.99 208.16 283.74 208.16 322.62 275.49 283.74 342.82 205.99 342.82 167.12 275.49 205.99 208.16"/></g><g id="Small_Bee_1" data-name="Small Bee 1"><path class="cls-5" d="M449.31,2919.71,511.92,2939l11.46,49.26s-57.54,1.28-80-24.7Z" transform="translate(128.49 -195.52)"/><path class="cls-4" d="M474.73,2923.75s-9.36-6.7-3.69-62.1l48.18-8Z" transform="translate(128.49 -195.52)"/><path class="cls-2" d="M486.24,2923.49s31.35-39.85,43.37-17.09S486.24,2923.49,486.24,2923.49Z" transform="translate(128.49 -195.52)"/><path class="cls-6" d="M475,2927.63l16.46,5.08s16.75,27.05,1.05,53.08l-13.21-2.66S483.83,2943.46,475,2927.63Z" transform="translate(128.49 -195.52)"/></g><path class="cls-5" d="M294.52,2047.48s-27,1.93-11.56-21.19c0,0,27.94-35.65,60.69-35.65,21.62,0,20.58,14.27,17.37,24a23.25,23.25,0,0,1-10.46,12.75C337.85,2034.74,309,2046.52,294.52,2047.48Z" transform="translate(128.49 -195.52)"/><path class="cls-2" d="M304.15,2001.78l-54.08-23.43a2.22,2.22,0,0,1-.81-3.47l45.55-57.1a2.21,2.21,0,0,1,3.74.61L324,1982.07a2.27,2.27,0,0,1,.16.73l.36,8a2.21,2.21,0,0,1-1.18,2.06l-17.3,8.9A2.21,2.21,0,0,1,304.15,2001.78Z" transform="translate(128.49 -195.52)"/><path class="cls-2" d="M326.16,1988.9l-3.46-37a1.8,1.8,0,0,1,.12-.86l5.86-15.11a1.89,1.89,0,0,1,3-.77l20.15,16.71a1.9,1.9,0,0,1,.39,2.47l-22.57,35.37A1.88,1.88,0,0,1,326.16,1988.9Z" transform="translate(128.49 -195.52)"/><path class="cls-4" d="M311.87,1996.86l-10.15-30.44a4.19,4.19,0,0,0-5.87-2.43c-7.37,3.84-20.21,14.77-9.07,41.92a4.23,4.23,0,0,0,6,2.08Z" transform="translate(128.49 -195.52)"/><path class="cls-4" d="M318.61,1992.57s-3.86-34.68,23.12-50.09c0,0,14.25-7.92,11.17,17.87a32.44,32.44,0,0,1-9,19A45.79,45.79,0,0,1,318.61,1992.57Z" transform="translate(128.49 -195.52)"/><path class="cls-6" d="M320.34,1996.44l11.35-4s19.72,16.55,18.2,35.31l-5.52,2.74S333.3,1998.27,320.34,1996.44Z" transform="translate(128.49 -195.52)"/><path class="cls-6" d="M289.4,2019.08l8.91-8.62s18.9,11.9,16.69,32.71l-6,1.39S300.52,2019,289.4,2019.08Z" transform="translate(128.49 -195.52)"/><path class="cls-4" d="M392.16,1983.56l-22.67,18.63a.77.77,0,0,1-1.16-.2l-5.72-9.84a.77.77,0,0,1,.44-1.12l28.39-8.81A.78.78,0,0,1,392.16,1983.56Z" transform="translate(128.49 -195.52)"/></g></svg>