<svg xmlns="http://www.w3.org/2000/svg" viewBox="0 0 391.47 268.37"><defs><style>.cls-1{fill:#0cc0d4;}.cls-2{fill:#078fda;}</style></defs><title>Asset 8</title><g id="Layer_2" data-name="Layer 2"><g id="Layer_7" data-name="Layer 7"><path class="cls-1" d="M39.78,157.38s-19.11,35.76,0,71c0,0-38.65,11.08-39.76-36.84C-.94,150.31,39.78,157.38,39.78,157.38Z"/><path class="cls-1" d="M191.65,18.63,188.59,119a.34.34,0,0,0,.33.35l8.49,0a.33.33,0,0,0,.33-.34L194.11,18.63A1.23,1.23,0,0,0,191.65,18.63Z"/><path class="cls-1" d="M222.36,68.19s3.73,21.09-44.93,6.56a118.56,118.56,0,0,1-12.82-4.51,11,11,0,0,0-7.59-.47c-4.64,1.41-10.42,4.52-4.35,10.55,9.2,9.15,35.8,7.24,35.8,7.24S230.68,89.27,222.36,68.19Z"/><path class="cls-1" d="M216.81,52.61s-4.53,18.37-37.58,12-23-13.7-23-13.7c2.74-3.68,11-1,11-1L182,56.38S204.92,65.49,216.81,52.61Z"/><path class="cls-1" d="M173.87,43.26s-8.5-2.23-4.78-5.82,14.45,0,14.45,0S192.57,44.35,173.87,43.26Z"/><circle class="cls-1" cx="193.31" cy="6.16" r="6.15"/><path class="cls-1" d="M350.78,235.38s20.68-33,3-69c0,0,38.49-9.55,37.68,38.38C390.76,246,350.78,235.38,350.78,235.38Z"/><path class="cls-1" d="M311.59,124.36a3.77,3.77,0,0,0-1.88-.55h-.15l-.05-.44-227.84-2a3.82,3.82,0,0,0-1.88.55c-78,47.92-24.64,131.05-17.13,142,.52.76,1.37,2.28,2.34,2.43l260.51,2-.06-.57h.4a3.47,3.47,0,0,0,2.35-1.42C335.75,255.5,389.45,172.57,311.59,124.36Z"/><ellipse class="cls-2" cx="117.34" cy="185.64" rx="20.11" ry="11.72" transform="translate(-79.41 283.19) rotate(-84.08)"/><ellipse class="cls-2" cx="267.15" cy="185.84" rx="18.79" ry="11.72" transform="translate(54.45 432.14) rotate(-84.01)"/><path class="cls-2" d="M168.89,230.45l5.16-4.39a2.31,2.31,0,0,1,1.67-.52l32,2.75a2.38,2.38,0,0,0,1.09-.17L219,223a2.24,2.24,0,0,1,2.86,1l0,.1c1.27,2.58-1.16,7-3.91,8.3l-5.77,2.7a2.26,2.26,0,0,1-1.06.21l-40.9-1.41A2,2,0,0,1,168.89,230.45Z"/></g></g></svg>