<svg xmlns="http://www.w3.org/2000/svg" viewBox="0 0 1920 1553"><defs><style>.cls-1{opacity:0.45;}.cls-2{opacity:0.5;}.cls-3{fill:#0cc0d4;}.cls-4,.cls-8{fill:none;stroke:#078fda;}.cls-4{stroke-linecap:round;stroke-linejoin:round;stroke-width:5px;}.cls-5{fill:#078fda;}.cls-6{fill:#fdcd49;}.cls-7{fill:#f76f26;}.cls-8{stroke-miterlimit:10;stroke-width:10px;}</style></defs><g id="Home_Smaller" data-name="Home Smaller"><g class="cls-2"><g id="Robot"><path class="cls-3" d="M1488,862.48s-24.58,15.12-24.58,49.16c0,0-32.71-2.34-15.12-39.71C1463.45,839.79,1488,862.48,1488,862.48Z"/><path class="cls-3" d="M1748.42,998.19l-6.64,10a2.21,2.21,0,0,0,.62,3.07,14,14,0,0,0,15.93.07,3.44,3.44,0,0,0,1.45-3.89c-1-3.38-3.4-9.21-8.39-10.46A2.81,2.81,0,0,0,1748.42,998.19Z"/><path class="cls-4" d="M1366.05,504.65c-8.46,137.36,3.39,346.84-1.86,373.9-3.42,17.61-9.35,38.78-5.68,68.07,2,15.89,5.36,22.53,3.79,37.81-2.43,23.53-12.64,29.46-11.35,45.38,1.53,18.93,17.3,27.08,26.47,39.71,12.93,17.8,17.83,51.51-15.12,121"/><path class="cls-3" d="M1649.55,799.73l-44.14,81.37a.32.32,0,0,0,.14.43l7,3.49a.32.32,0,0,0,.42-.14l38.62-84.14A1.13,1.13,0,0,0,1649.55,799.73Z"/><path class="cls-3" d="M1656.31,849.24s-5.67,18.91-39.7-13.23a108.64,108.64,0,0,1-8.69-9,10.15,10.15,0,0,0-6.05-3.53c-4.41-.76-10.45-.6-7.95,6.88,3.78,11.35,26.47,20.8,26.47,20.8S1654.42,870,1656.31,849.24Z"/><path class="cls-3" d="M1658.2,834.11s-11.34,13.24-35.92-5.67-13.24-20.8-13.24-20.8c3.78-1.89,9.46,3.79,9.46,3.79l9.45,11.34S1643.08,839.79,1658.2,834.11Z"/><path class="cls-3" d="M1630.86,806.56s-6.08-5.36-1.52-6.77,11.9,6,11.9,6S1645.8,815.21,1630.86,806.56Z"/><circle class="cls-3" cx="1654.42" cy="781.17" r="5.67"/><path class="cls-3" d="M1849,1424.57l-9-61.15a2.75,2.75,0,0,0-2-2.25l-67.62-18.27a2.8,2.8,0,0,1-1.1-.59c-90.74-78.82-86.9-161-85.87-172.48a2.68,2.68,0,0,1,1.27-2c5.31-3.37,10.42-8.54,15.13-16,31.24-49.62-16.1-65.3-18.79-66.15l-.24-.06-25.58-5.48a2.78,2.78,0,0,0-1.51.1l-17.21,6.26a2.72,2.72,0,0,1-3.58-1.91l-.82-3.26a2.7,2.7,0,0,0-1.64-1.87L1566.81,1054a2.7,2.7,0,0,1-1.67-2c-1.63-9,7.56-29.42,10.72-36.09a2.73,2.73,0,0,1,3.3-1.43l74.36,23.58a2.59,2.59,0,0,0,1.78,0c9.93-4,31.46-23.32,38.47-29.73a2.72,2.72,0,0,1,3.85.19c4.25,4.5,12.43,5.17,14.77,5.27a2.74,2.74,0,0,0,1.24-.23c2.87-1.29,15.21-7.67,20.2-24.33,4.48-14.93-11.07-21.61-17.82-23.76a2.71,2.71,0,0,1-1.68-3.64,42.55,42.55,0,0,0-2.7-38,2.7,2.7,0,0,0-1.28-1.08l-176.19-73.1a2.83,2.83,0,0,0-1.55-.17c-73.24,12.82-63.43,95.42-61.79,106.42a2.73,2.73,0,0,0,1.2,1.88l68.68,45.18a2.73,2.73,0,0,1,1,3.39c-2.9,6.5-6.36,25-7.71,32.54a2.73,2.73,0,0,1-3.7,2.06l-24.41-9.77a2.76,2.76,0,0,0-1.68-.11l-5.93,1.48a2.66,2.66,0,0,1-1.53-.06l-38.37-12.79a3,3,0,0,0-1.19-.13c-15.22,1.65-23.2,12.45-26.26,17.78a2.74,2.74,0,0,1-4.21.71c-33.9-30.65-47-142.38-48.23-153.75a2.73,2.73,0,0,1,.4-1.74l30.45-48.36a2.73,2.73,0,0,0-.42-3.43l-39.59-37.86a2.73,2.73,0,0,0-4.12.39l-38.36,54a2.73,2.73,0,0,0,.4,3.61l37.11,33.58a2.73,2.73,0,0,1,.89,1.78c10.8,120.07,51.29,173.8,56.15,179.87a2.59,2.59,0,0,1,.57,1.36c.55,4.71,3.65,29.43,7.47,33.25,2.45,2.45,8.07,2.52,11.73,2.27a2.71,2.71,0,0,1,2.88,3c-2.76,28.44,19.83,126,22.87,138.92a2.73,2.73,0,0,1-.68,2.5l-33.47,35.23a2.73,2.73,0,0,0-.36,3.3l41,67.73a2.73,2.73,0,0,0,3.74.93l1.77-1.06a2.72,2.72,0,0,1,4.11,2.68c-3.7,28.47,8.38,107.89,10.41,120.87a2.72,2.72,0,0,1-1.3,2.76l-6,3.59a2.73,2.73,0,0,0-1.18,3.21l12.27,36.82a2.69,2.69,0,0,0,1,1.32l6,4.54a2.77,2.77,0,0,1,1,1.64l22.32,109.74a2.82,2.82,0,0,1-.16,1.57c-6,15-1.94,20.58,1.28,22.65a2.73,2.73,0,0,1,.71,3.95l-43.4,57.29a2.72,2.72,0,0,0,.66,3.92l40.25,26.84a2.73,2.73,0,0,0,4-1.18l19.28-43.82a2.56,2.56,0,0,0,.23-1l1.85-42.51a3.11,3.11,0,0,0-.11-.91l-5.42-18.06a2.61,2.61,0,0,0-.36-.73c-10.7-15.54-23-118.42-24.24-129.22a2.64,2.64,0,0,1,.38-1.71l4.62-7.7a2.76,2.76,0,0,0,.31-2l-8.5-35.72a2.74,2.74,0,0,0-3.53-2,2.75,2.75,0,0,1-3.54-2c-13.71-59.23,3-128.74,7.31-144.89a2.72,2.72,0,0,1,3.94-1.67c18.88,10.29,46.75,6.31,56.17,4.54a2.74,2.74,0,0,1,3.24,2.69v28a2.8,2.8,0,0,0,.39,1.41l4.43,7.38a2.71,2.71,0,0,1,.17,2.56c-6.25,13.06-6.82,90.46-6.87,104.47a2.72,2.72,0,0,1-2.15,2.64l-12.73,2.83a2.74,2.74,0,0,0-2.15,2.67v28.37a2.74,2.74,0,0,0,1.38,2.37l9.84,5.62a2.75,2.75,0,0,1,1.28,3.11c-5,18.8,11.71,115.53,13.77,127.33a2.84,2.84,0,0,1-.54,2.14c-6.3,8.63.19,16,3.19,18.73a2.73,2.73,0,0,1,.77,2.87l-19.95,61.64a2.79,2.79,0,0,0,0,1.76l10.33,29.28a2.73,2.73,0,0,0,2.81,1.81l40.57-3.38a2.74,2.74,0,0,0,2.5-2.93l-7.21-95.54a2.73,2.73,0,0,0-2.07-2.44l-4.48-1.12a2.74,2.74,0,0,1-1.74-1.34c-22-40.24-25.42-124.63-25.84-138.74a2.72,2.72,0,0,1,1.87-2.67l7.65-2.54a2.75,2.75,0,0,0,1.86-2.46l1.7-34a2.74,2.74,0,0,0-1.71-2.68l-6-2.39a2.71,2.71,0,0,1-1.73-2.44c-1.13-36.23,12.68-86.93,16.25-99.38a2.74,2.74,0,0,1,3.59-1.8l10.16,3.81a2.74,2.74,0,0,0,3.35-1.23l35.86-64.55a2.73,2.73,0,0,0-.11-2.85l-24.73-37.1a2.76,2.76,0,0,0-2.28-1.22H1628a2.73,2.73,0,0,1-2.58-3.61c14.69-44.53,14.52-81,14.08-91.57a2.73,2.73,0,0,1,3-2.82l12.85,1.29a2.74,2.74,0,0,1,2.42,3.14c-13.58,92.75,93.9,176.36,103.73,183.79a2.69,2.69,0,0,1,1,1.43l14.45,50.58a2.73,2.73,0,0,0,1.9,1.88l65,18.07a2.72,2.72,0,0,0,2.67-.7l1.68-1.68A2.73,2.73,0,0,0,1849,1424.57ZM1369.15,862c-7.66,0-13.87-9.76-13.87-21.79s6.21-21.79,13.87-21.79,13.86,9.76,13.86,21.79S1376.81,862,1369.15,862Zm454.42,541c-5.65,5.16-16.81,2.14-24.92-6.75s-10.1-20.28-4.45-25.44,16.82-2.14,24.93,6.75S1829.23,1397.8,1823.57,1403Z"/><ellipse class="cls-5" cx="1537.89" cy="897.79" rx="15.13" ry="8.11" transform="translate(37.24 1856.53) rotate(-62.85)"/><ellipse class="cls-5" cx="1614.92" cy="928.51" rx="14.14" ry="8.11" transform="translate(51.79 1941.77) rotate(-62.85)"/><rect class="cls-5" x="1504.57" y="1116.34" width="65.93" height="65.93" transform="translate(-375.5 1308.02) rotate(-41.52)"/><ellipse class="cls-5" cx="1561.61" cy="1127.25" rx="32.29" ry="33.3" transform="translate(-112.51 175.07) rotate(-6.19)"/><ellipse class="cls-5" cx="1515.6" cy="1123.91" rx="32.29" ry="33.3" transform="translate(-197.3 332.59) rotate(-11.76)"/><path class="cls-5" d="M1545.45,953.1l3.48-1.16a1.14,1.14,0,0,1,.92.09l14.57,8.33a1.23,1.23,0,0,0,.56.15h5.12a1.13,1.13,0,0,1,1.13,1.12v.07a3,3,0,0,1-2.88,3l-3.38.15a1.3,1.3,0,0,1-.55-.12l-19.12-9.56A1.13,1.13,0,0,1,1545.45,953.1Z"/><g id="Bee_1" data-name="Bee 1"><path class="cls-6" d="M1314.08,440.77c10.51-7.42,47.53-31.41,83-28.66a5.27,5.27,0,0,1,4.85,5.26h0a5.24,5.24,0,0,0,3.63,5c9,2.89,32.24,11.88,37.43,29.18,0,0,10.67,14.94-35.83,32.09a5,5,0,0,0-1.52.87c-4.64,3.88-35,26.76-81.56,2.73a5.29,5.29,0,0,1-2.67-3.4L1312,446.35A5.25,5.25,0,0,1,1314.08,440.77Z"/><path class="cls-5" d="M1270,471.17l31.52-14.83a.91.91,0,0,1,1.27.58l3.71,13a.92.92,0,0,1-.84,1.17l-35.22,1.86A.92.92,0,0,1,1270,471.17Z"/><path class="cls-3" d="M1359.21,405.78l-25.73-108.89a2.2,2.2,0,0,1,2.41-2.7l65.33,7.92a2.21,2.21,0,0,1,1.79,3l-39.59,101A2.21,2.21,0,0,1,1359.21,405.78Z"/><path class="cls-3" d="M1352.83,410.51l-34.68-49a2.26,2.26,0,0,0-1.42-.91l-41.54-7.91a2.26,2.26,0,0,0-2.68,2.42l3.91,42.95a2.26,2.26,0,0,0,1.7,2l66.78,16.7a2.28,2.28,0,0,0,1.56-.17l5.54-2.77A2.26,2.26,0,0,0,1352.83,410.51Z"/><path class="cls-5" d="M1364.07,411.89s47.65-26.45,23.29-66.86C1387.36,345,1345.69,335.49,1364.07,411.89Z"/><path class="cls-5" d="M1354.36,417s-28.1-60.5-47.54-51.86,6.48,41.06,6.48,41.06S1326.26,427.78,1354.36,417Z"/></g><path class="cls-7" d="M1398.5,489.36c-5.1-42.38-35.89-72.83-35.89-72.83l15.31-3.55s27.26,24.46,25.68,72.79Z"/><path class="cls-7" d="M1328.63,431.53l9.63-5.16s26,28.31,12.8,70.4l-8.14-2.42S1350.32,455.73,1328.63,431.53Z"/><circle class="cls-5" cx="1365.8" cy="505.33" r="3.78"/><path class="cls-4" d="M1365.8,503.44s28.69-50.55-3-87"/><line class="cls-4" x1="1366.75" y1="502.49" x2="1359.62" y2="498.05"/><path class="cls-4" d="M1366.75,506.27s15.12,1.89,30.25,37.82"/><path class="cls-4" d="M1364.46,506.27s-11-3.78-11,37.82"/><path class="cls-5" d="M1383.09,501.53c-9.17-1.85-17-1.28-17.54,1.28s6.5,6.14,15.67,8,17,1.27,17.54-1.29S1392.26,503.38,1383.09,501.53Zm-1.08,7.23c-5.39-1.09-9.55-3-9.29-4.33s4.85-1.47,10.24-.38,9.55,3,9.29,4.33S1387.4,509.85,1382,508.76Z"/><path class="cls-5" d="M1349.34,500.46c-8.84.74-15.84,3.44-15.62,6.05s7.56,4.11,16.4,3.38,15.84-3.44,15.63-6.05S1358.19,499.73,1349.34,500.46Zm-.25,6.76c-5.66.48-10.35-.2-10.46-1.51s4.4-2.75,10.07-3.22,10.35.21,10.46,1.51S1354.76,506.75,1349.09,507.22Z"/></g><g class="cls-2"><polygon class="cls-8" points="241.75 864.26 180.15 864.26 149.35 917.62 180.15 970.97 241.75 970.97 272.55 917.62 241.75 864.26"/><polygon class="cls-8" points="333.65 917.75 272.05 917.75 241.24 971.11 272.05 1024.45 333.65 1024.45 364.45 971.11 333.65 917.75"/><polygon class="cls-8" points="333.65 1024.12 272.05 1024.12 241.25 1077.47 272.05 1130.82 333.65 1130.82 364.46 1077.47 333.65 1024.12"/><polygon class="cls-8" points="425.55 1184.58 363.95 1184.58 333.15 1237.92 363.95 1291.28 425.55 1291.28 456.35 1237.92 425.55 1184.58"/><polygon class="cls-8" points="241.75 1078 180.14 1078 149.34 1131.35 180.14 1184.7 241.75 1184.7 272.55 1131.35 241.75 1078"/><polygon class="cls-8" points="241.73 970.65 180.13 970.65 149.33 1024 180.13 1077.35 241.73 1077.35 272.54 1024 241.73 970.65"/><polygon class="cls-8" points="425.56 970.84 363.96 970.84 333.16 1024.18 363.96 1077.54 425.56 1077.54 456.37 1024.18 425.56 970.84"/><polygon class="cls-8" points="425.56 863.87 363.96 863.87 333.16 917.22 363.96 970.57 425.56 970.57 456.37 917.22 425.56 863.87"/><polygon class="cls-8" points="517.46 917.36 455.86 917.36 425.06 970.71 455.86 1024.06 517.46 1024.06 548.26 970.71 517.46 917.36"/><polygon class="cls-8" points="241.75 756.91 180.14 756.91 149.34 810.26 180.14 863.61 241.75 863.61 272.55 810.26 241.75 756.91"/><polygon class="cls-8" points="333.71 1131.2 272.11 1131.2 241.31 1184.55 272.11 1237.9 333.71 1237.9 364.52 1184.55 333.71 1131.2"/><polygon class="cls-8" points="609.44 1078.12 547.84 1078.12 517.04 1131.47 547.84 1184.82 609.44 1184.82 640.25 1131.47 609.44 1078.12"/><polygon class="cls-8" points="609.55 864.03 547.95 864.03 517.15 917.38 547.95 970.73 609.55 970.73 640.36 917.38 609.55 864.03"/></g><g class="cls-2"><polygon class="cls-8" points="294.25 1458.5 232.65 1458.5 201.85 1511.85 232.65 1565.2 294.25 1565.2 325.06 1511.85 294.25 1458.5"/><polygon class="cls-8" points="202.36 1399.46 140.75 1399.46 109.95 1452.81 140.75 1506.16 202.36 1506.16 233.16 1452.81 202.36 1399.46"/><polygon class="cls-8" points="386.17 1511.59 324.56 1511.59 293.76 1564.94 324.56 1618.29 386.17 1618.29 416.97 1564.94 386.17 1511.59"/></g><g class="cls-2"><polygon class="cls-8" points="1488.17 236.25 1426.57 236.25 1395.77 289.6 1426.57 342.95 1488.17 342.95 1518.98 289.6 1488.17 236.25"/><polygon class="cls-8" points="1580.07 289.74 1518.47 289.74 1487.67 343.09 1518.47 396.44 1580.07 396.44 1610.88 343.09 1580.07 289.74"/><polygon class="cls-8" points="1671.98 449.59 1610.37 449.59 1579.57 502.94 1610.37 556.29 1671.98 556.29 1702.78 502.94 1671.98 449.59"/><polygon class="cls-8" points="1671.99 342.82 1610.38 342.82 1579.58 396.17 1610.38 449.52 1671.99 449.52 1702.79 396.17 1671.99 342.82"/><polygon class="cls-8" points="1763.89 396.31 1702.28 396.31 1671.48 449.66 1702.28 503.01 1763.89 503.01 1794.69 449.66 1763.89 396.31"/><polygon class="cls-8" points="1671.99 235.85 1610.38 235.85 1579.58 289.2 1610.38 342.55 1671.99 342.55 1702.79 289.2 1671.99 235.85"/><polygon class="cls-8" points="1763.89 289.34 1702.28 289.34 1671.48 342.69 1702.28 396.04 1763.89 396.04 1794.69 342.69 1763.89 289.34"/><polygon class="cls-8" points="1763.9 182.77 1702.3 182.77 1671.49 236.12 1702.3 289.47 1763.9 289.47 1794.7 236.12 1763.9 182.77"/><polygon class="cls-8" points="1674.35 22.33 1612.75 22.33 1581.95 75.68 1612.75 129.03 1674.35 129.03 1705.15 75.68 1674.35 22.33"/><polygon class="cls-8" points="1488.17 128.89 1426.57 128.89 1395.76 182.24 1426.57 235.59 1488.17 235.59 1518.97 182.24 1488.17 128.89"/><polygon class="cls-8" points="1580.07 182.38 1518.46 182.38 1487.66 235.73 1518.46 289.08 1580.07 289.08 1610.87 235.73 1580.07 182.38"/><polygon class="cls-8" points="1764.16 -31.2 1702.56 -31.2 1671.76 22.15 1702.56 75.5 1764.16 75.5 1794.96 22.15 1764.16 -31.2"/></g><g class="cls-2"><polygon class="cls-8" points="176.67 183.24 238.27 183.24 269.07 236.59 238.27 289.94 176.67 289.94 145.87 236.59 176.67 183.24"/><polygon class="cls-8" points="174.3 -30.29 235.91 -30.29 266.71 23.06 235.91 76.41 174.3 76.41 143.5 23.06 174.3 -30.29"/><polygon class="cls-8" points="268.59 129.76 330.19 129.76 360.99 183.11 330.19 236.46 268.59 236.46 237.79 183.11 268.59 129.76"/></g><path class="cls-6" d="M440.54,1432.19s-21.37,1.53-9.15-16.79c0,0,22.13-28.24,48.08-28.24,17.13,0,16.3,11.3,13.76,19a18.43,18.43,0,0,1-8.29,10.1C474.88,1422.1,452,1431.43,440.54,1432.19Z"/><path class="cls-3" d="M448.17,1396l-42.85-18.57a1.75,1.75,0,0,1-.64-2.74l36.09-45.25a1.75,1.75,0,0,1,3,.49l20.19,50.46a1.81,1.81,0,0,1,.12.57l.29,6.3a1.74,1.74,0,0,1-.94,1.63l-13.71,7.06A1.77,1.77,0,0,1,448.17,1396Z"/><path class="cls-3" d="M465.61,1385.77l-2.74-29.3a1.58,1.58,0,0,1,.09-.68l4.65-12a1.5,1.5,0,0,1,2.35-.61l16,13.24a1.5,1.5,0,0,1,.3,2l-17.88,28A1.49,1.49,0,0,1,465.61,1385.77Z"/><path class="cls-5" d="M454.29,1392.09l-8-24.13a3.32,3.32,0,0,0-4.66-1.92c-5.83,3-16,11.7-7.18,33.21a3.35,3.35,0,0,0,4.77,1.65Z"/><path class="cls-5" d="M459.63,1388.68S456.57,1361.21,478,1349c0,0,11.29-6.27,8.85,14.17a25.75,25.75,0,0,1-7.16,15A36.27,36.27,0,0,1,459.63,1388.68Z"/><path class="cls-7" d="M461,1391.75l9-3.18s15.63,13.11,14.43,28l-4.38,2.17S471.27,1393.2,461,1391.75Z"/><path class="cls-7" d="M436.49,1409.69l7.05-6.83s15,9.42,13.23,25.91l-4.72,1.11S445.3,1409.65,436.49,1409.69Z"/><path class="cls-5" d="M517.9,1381.54l-18,14.77a.61.61,0,0,1-.92-.17l-4.53-7.79a.61.61,0,0,1,.35-.89l22.49-7A.61.61,0,0,1,517.9,1381.54Z"/></g></g></svg>